<svg xmlns="http://www.w3.org/2000/svg" xmlns:xlink="http://www.w3.org/1999/xlink" viewBox="0 0 1035.8 812.5"><defs><style>.cls-1,.cls-2{fill:none;}.cls-2,.cls-23{stroke:#371a45;stroke-width:5.94px;}.cls-2,.cls-23,.cls-42,.cls-43,.cls-46,.cls-47{stroke-linecap:round;stroke-linejoin:round;}.cls-3,.cls-46,.cls-47{fill:#ffac48;}.cls-4{fill:#ffebf6;}.cls-5{fill:#000072;}.cls-6{fill:#50506d;}.cls-7{opacity:0.4;}.cls-8{fill:#fff;}.cls-9{opacity:0.3;}.cls-10{fill:#5e5753;}.cls-11{fill:#fff8c4;}.cls-12{opacity:0.45;}.cls-13{opacity:0.5;}.cls-14{fill:#55dfff;}.cls-15{fill:#00dbff;}.cls-16{fill:#512717;}.cls-17{fill:#371a45;}.cls-18{clip-path:url(#clip-path);}.cls-19{fill:url(#linear-gradient);}.cls-20{clip-path:url(#clip-path-2);}.cls-21{fill:url(#linear-gradient-2);}.cls-22{clip-path:url(#clip-path-3);}.cls-23{fill:url(#linear-gradient-3);}.cls-24{clip-path:url(#clip-path-4);}.cls-25{fill:url(#linear-gradient-4);}.cls-26{fill:#d8d8d8;}.cls-27{opacity:0.7;}.cls-28{fill:#b2b2b2;}.cls-29{fill:#f75252;}.cls-30{fill:#ff2929;}.cls-31{fill:#cc3232;}.cls-32{opacity:0.25;}.cls-33{opacity:0.2;}.cls-34{fill:#e5e5e5;}.cls-35,.cls-42,.cls-43{fill:#22a7f0;}.cls-36{opacity:0.3;}.cls-37{clip-path:url(#clip-path-5);}.cls-38{clip-path:url(#clip-path-6);}.cls-39{fill:#b5b5b5;}.cls-40{fill:#f883a0;}.cls-41{fill:#fdc1e5;}.cls-42,.cls-43{stroke:#22a7f0;}.cls-42{stroke-width:2.97px;}.cls-43{font-size:29.7px;stroke-width:2.83px;font-family:NeutraText-LightAlt, Neutra Text;font-weight:300;letter-spacing:0.1em;}.cls-44{letter-spacing:0.08em;}.cls-45{opacity:0.35;}.cls-46,.cls-47{stroke:#ffac48;}.cls-46{stroke-width:2.33px;}.cls-47{stroke-width:1.42px;}</style><clipPath id="clip-path"><path class="cls-1" d="M557.68,525.68c10.16,9.54,26.82,24.12,26.82,24.12-2.37,1.82-14.64,3.19-14.64,3.19,9.09,5.58,15.86,13.06,27.48,36.09s43.28,54.86,43.28,54.86c-11.68,1.4-29.26,11.68-50,23.1-29.49,16.23-65.41,34.75-100,33.33-64.28-2.66-90.78-49.14-90.78-49.14l41.87-146.18c2-.79,3.92-1.52,5.84-2.2,60.67-21.67,91.4,5.23,110.13,22.83"/></clipPath><linearGradient id="linear-gradient" x1="-4376.02" y1="-760.18" x2="-4374.94" y2="-760.18" gradientTransform="matrix(0, 195.46, -195.46, 0, -148083.53, 855893.43)" gradientUnits="userSpaceOnUse"><stop offset="0" stop-color="#ff4545"/><stop offset="1" stop-color="#f7931e"/></linearGradient><clipPath id="clip-path-2"><path class="cls-1" d="M636.48,605.51c4.7,7.1,13.55,9.27,13.55,9.27s-3,2.24-13.85-.14-16-10.51-18.38-16.11a35.41,35.41,0,0,0-5.82-9.31c12.59-1.19,19.81,9.19,24.5,16.29"/></clipPath><linearGradient id="linear-gradient-2" x1="-4432.44" y1="-637.39" x2="-4431.65" y2="-637.39" gradientTransform="translate(-25944.27 185397.51) rotate(90) scale(41.69)" xlink:href="#linear-gradient"/><clipPath id="clip-path-3"><path class="cls-2" d="M675.1,647.29c9.94,12.65,11.25,16.38,17.62,16.93,0,0-12.82,5-25.09.53s-22.68-11-33.18-7.92c0,0,12-7.82,23.21-7.75a59.62,59.62,0,0,0-14.84-18.36s22.34,3.92,32.28,16.57"/></clipPath><linearGradient id="linear-gradient-3" x1="-4551.15" y1="-563.1" x2="-4550.08" y2="-563.1" gradientTransform="translate(-12590.02 107731.08) rotate(90) scale(23.53)" xlink:href="#linear-gradient"/><clipPath id="clip-path-4"><path class="cls-1" d="M745.24,682S736,677,727.78,675.12a26.66,26.66,0,0,1-16.36-10.64c.88-.39,1.73-.74,2.57-1,22.62-8.08,31.25,18.59,31.25,18.59"/></clipPath><linearGradient id="linear-gradient-4" x1="-4542.14" y1="-562.88" x2="-4541.07" y2="-562.88" gradientTransform="translate(-12777.75 109648.32) rotate(90) scale(24)" xlink:href="#linear-gradient"/><clipPath id="clip-path-5"><rect class="cls-1" x="314.15" y="499.89" width="27.51" height="89.34" transform="translate(-164.08 142.05) rotate(-19.66)"/></clipPath><clipPath id="clip-path-6"><rect class="cls-1" x="288.98" y="520.39" width="17.31" height="81.13" transform="translate(-171.36 132.82) rotate(-19.66)"/></clipPath></defs><g id="Layer_2" data-name="Layer 2"><g id="Layer_1-2" data-name="Layer 1"><rect class="cls-1" width="1035.8" height="812.5"/><path class="cls-3" d="M629,216v22.79H607.88V216Z"/><path class="cls-3" d="M695,176.38H670.22v-5q0-6.36-.72-8c-.49-1.13-1.69-1.69-3.63-1.69a4.12,4.12,0,0,0-3.52,1.55,7.71,7.71,0,0,0-1.18,4.66,23.56,23.56,0,0,0,.59,6.18c.39,1.32,1.57,2.76,3.52,4.32s6,3.85,12.06,6.84q12.15,5.94,15.95,11.19t3.8,15.26q0,11.19-2.9,16.89a19.23,19.23,0,0,1-9.7,8.77,39.69,39.69,0,0,1-16.41,3.08q-10.64,0-18.2-3.32t-10.39-9q-2.84-5.66-2.84-17.13v-4.42h24.73v5.81q0,7.38.93,9.6a3.64,3.64,0,0,0,3.7,2.21c2,0,3.36-.5,4.14-1.49s1.18-3.07,1.18-6.25q0-6.56-1.52-8.22t-16.23-9.81q-12.3-6.9-15-12.53a30.67,30.67,0,0,1-2.7-13.37q0-11,2.91-16.2t9.84-8a42.43,42.43,0,0,1,16.13-2.84,45.8,45.8,0,0,1,15.5,2.32,23.82,23.82,0,0,1,9.81,6.11,16.46,16.46,0,0,1,4.15,7,51.45,51.45,0,0,1,.72,10.15Z"/><path class="cls-3" d="M728.78,126.92v25.16a24.88,24.88,0,0,1,7.77-5,23.92,23.92,0,0,1,8.94-1.67A20.72,20.72,0,0,1,758,149.16q5.14,3.74,6.29,8.6t1.14,17.79v63.2H737.48V174.24q0-8-.79-10.29a3.81,3.81,0,0,0-7,.06q-.9,2.36-.9,9.33v65.41H700.87V126.92Z"/><path class="cls-3" d="M834.51,194.54H798.39v19.83c0,4.14.29,6.81.89,8a3.49,3.49,0,0,0,3.46,1.8q3.16,0,4.25-2.39t1.07-9.22V200.48h26.45v6.77a60.9,60.9,0,0,1-1.07,13.06,26.49,26.49,0,0,1-5,9.74,24.4,24.4,0,0,1-10,7.77q-6,2.58-15.16,2.59a43.9,43.9,0,0,1-15.61-2.56,25,25,0,0,1-10.53-7,25.38,25.38,0,0,1-5.22-9.81c-1-3.56-1.45-8.76-1.45-15.57V178.73q0-12,3.25-19a22.27,22.27,0,0,1,10.63-10.64,37.57,37.57,0,0,1,17-3.7q11.73,0,19.37,4.46a24.52,24.52,0,0,1,10.71,11.81q3.07,7.35,3.07,20.69Zm-28-14.92v-6.69c0-4.75-.26-7.81-.76-9.19a3,3,0,0,0-3.11-2.07c-1.94,0-3.13.58-3.59,1.76s-.69,4.34-.69,9.5v6.69Z"/><path class="cls-3" d="M903.15,194.54H867v19.83q0,6.21.89,8a3.49,3.49,0,0,0,3.46,1.8q3.17,0,4.25-2.39t1.07-9.22V200.48h26.45v6.77a60.9,60.9,0,0,1-1.07,13.06,26.49,26.49,0,0,1-5,9.74,24.4,24.4,0,0,1-10,7.77q-6,2.58-15.16,2.59a43.9,43.9,0,0,1-15.61-2.56,25,25,0,0,1-10.53-7,25.38,25.38,0,0,1-5.22-9.81c-1-3.56-1.45-8.76-1.45-15.57V178.73q0-12,3.25-19A22.27,22.27,0,0,1,853,149.13a37.6,37.6,0,0,1,17-3.7q11.73,0,19.37,4.46a24.52,24.52,0,0,1,10.71,11.81q3.07,7.35,3.07,20.69Zm-28-14.92v-6.69c0-4.75-.26-7.81-.76-9.19a3,3,0,0,0-3.11-2.07c-1.94,0-3.13.58-3.59,1.76s-.69,4.34-.69,9.5v6.69Z"/><path class="cls-3" d="M937,147.09l-.49,8.1a26,26,0,0,1,8.22-7.33,20.32,20.32,0,0,1,9.81-2.43,18.46,18.46,0,0,1,11.23,3.49,14.63,14.63,0,0,1,5.9,8.05q1.19,4.56,1.18,15.47v38.61q0,12.51-1.49,17.79a14.77,14.77,0,0,1-6.08,8.43,19.17,19.17,0,0,1-11.08,3.14,19.67,19.67,0,0,1-9.6-2.42,26.33,26.33,0,0,1-8.09-7.2v21h-27.9V147.09Zm7.94,26.66q0-8.49-.62-10.29c-.41-1.19-1.57-1.79-3.45-1.79s-3,.69-3.56,2.07-.8,4.72-.8,10v38q0,8.3.83,10.36c.56,1.39,1.75,2.08,3.6,2.08s2.91-.64,3.35-1.9.65-4.34.65-9.22Z"/><path class="cls-3" d="M676.47,267l-21.21,71.36V378.8H628.33V338.33L607.88,267h26.71q6.27,32.75,7.07,44.07,2.42-17.9,8.1-44.07Z"/><path class="cls-3" d="M768.13,332.45q0,16.86-.79,23.87A26.75,26.75,0,0,1,751.07,378a41.15,41.15,0,0,1-16.58,3.11,42,42,0,0,1-16.12-2.94,26.9,26.9,0,0,1-16.69-21.58q-.82-6.9-.82-24.18V313.32q0-16.85.79-23.86a26.7,26.7,0,0,1,16.27-21.73,41.1,41.1,0,0,1,16.57-3.1,42,42,0,0,1,16.13,2.93,26.89,26.89,0,0,1,16.68,21.59q.84,6.9.83,24.17Zm-29.08-36.74q0-7.8-.86-10a3.45,3.45,0,0,0-3.56-2.18,4,4,0,0,0-3.49,1.76c-.8,1.18-1.21,4.64-1.21,10.4v52.22q0,9.74.8,12t3.69,2.28a3.57,3.57,0,0,0,3.8-2.62q.84-2.62.83-12.5Z"/><path class="cls-3" d="M863.47,267v74.74q0,12.71-.83,17.85a24.12,24.12,0,0,1-4.91,10.57A25.29,25.29,0,0,1,847,378.35a40.3,40.3,0,0,1-15.71,2.8,44.18,44.18,0,0,1-17.68-3.32q-7.67-3.31-11.47-8.63A24,24,0,0,1,797.64,358q-.69-5.91-.69-24.83V267H826v83.86q0,7.32.79,9.36a3.11,3.11,0,0,0,3.22,2,3.35,3.35,0,0,0,3.55-2.24q.79-2.25.8-10.6V267Z"/><path class="cls-3" d="M893.12,267H913.7q20.58,0,27.87,1.59a19.19,19.19,0,0,1,11.88,8.12Q958,283.2,958,297.5q0,13.06-3.24,17.55T942,320.44c5.75,1.42,9.62,3.34,11.6,5.73a17.16,17.16,0,0,1,3.7,6.6q.72,3,.72,16.54V378.8H931V341.64q0-9-1.42-11.12t-7.43-2.14V378.8H893.12Zm29.07,19.14V311q4.9,0,6.88-1.34t2-8.74v-6.15c0-3.54-.64-5.87-1.9-7S925.56,286.11,922.19,286.11Z"/><path class="cls-3" d="M664.74,407l16.63,111.82H651.66l-1.57-20.1h-10.4l-1.75,20.1H607.88L622.71,407Zm-15.41,71.9q-2.21-19-4.43-47-4.44,32.12-5.58,47Z"/><path class="cls-3" d="M754.92,448.19H725.84V438q0-9.6-.83-12t-3.93-2.42a3.64,3.64,0,0,0-3.66,2.08q-1,2.07-1,10.63V490q0,7.53,1,9.91a3.76,3.76,0,0,0,3.86,2.39,4.27,4.27,0,0,0,4.32-2.7q1.14-2.68,1.14-10.5V475.82h-5.87v-17h34v60H736.65l-2.69-8a20.35,20.35,0,0,1-7.5,7.77,21.12,21.12,0,0,1-10.68,2.59,27.66,27.66,0,0,1-13.72-3.56,26.22,26.22,0,0,1-9.71-8.8,27.72,27.72,0,0,1-4.15-11,132.67,132.67,0,0,1-.83-17.3V447.29q0-16,1.73-23.27t9.91-13.3q8.19-6,21.17-6,12.78,0,21.2,5.25t11,12.46q2.55,7.23,2.55,21Z"/><path class="cls-3" d="M766.18,407h48.49V429.4H795.26v21.21h18.17v21.27H795.26v24.59H816.6v22.38H766.18Z"/><path class="cls-3" d="M889.89,407V518.85H864.4L849.27,468v50.83H825V407h24.31l16.31,50.35V407Z"/><path class="cls-3" d="M960.13,407V429.4H942.87v89.45H913.79V429.4h-17.2V407Z"/><path class="cls-3" d="M972.77,496.06v22.79H951.71V496.06Z"/><path class="cls-4" d="M219.26,355.38c-1.48-9.24,5.9-18.33,5.9-18.33"/><path class="cls-5" d="M218.84,355.45c-1.49-9.32,5.68-18.29,6-18.66l.67.53c-.08.09-7.24,9.06-5.81,18Z"/><path class="cls-4" d="M249.77,387.44s4.56,14.9,18.36,1.51c0,0,8.42,14.22,18.5,1.11"/><path class="cls-5" d="M277.8,396l-.48,0c-4.82-.29-8.28-4.91-9.27-6.4-4.53,4.29-8.59,6-12,5.11-4.78-1.23-6.57-6.93-6.64-7.17l.81-.25c0,.05,1.73,5.49,6,6.6,3.25.83,7.16-.94,11.62-5.26l.38-.38.28.47c0,.06,3.69,6.12,8.88,6.43,3,.19,6-1.62,8.91-5.37l.68.52C284.05,394.12,281,396,277.8,396Z"/><path class="cls-4" d="M258.88,376.25s8.42,13.39,21.12,1.66"/><path class="cls-5" d="M269.71,383.16a11.61,11.61,0,0,1-1.44-.1c-6-.8-9.6-6.34-9.75-6.58l.72-.45c0,.05,3.5,5.44,9.15,6.19,3.67.48,7.48-1.07,11.32-4.62l.58.62C276.75,381.5,273.19,383.16,269.71,383.16Z"/><path class="cls-4" d="M292,349.23s-13.3,8.25-19.42-12.27"/><path class="cls-5" d="M285.92,351.3a10.89,10.89,0,0,1-3.84-.69c-4.39-1.67-7.72-6.22-9.9-13.53l.82-.24c2.1,7,5.25,11.4,9.37,13,4.84,1.84,9.37-.91,9.42-.94l.45.72A13,13,0,0,1,285.92,351.3Z"/><path class="cls-4" d="M261.51,328.08s7.17,17.67,19.87,3.32"/><path class="cls-5" d="M271.8,337.44a7.35,7.35,0,0,1-1.32-.11c-6-1-9.23-8.76-9.37-9.09l.79-.32c0,.08,3.16,7.62,8.73,8.57,3.27.56,6.78-1.25,10.43-5.38l.64.57C278.31,335.51,275,337.44,271.8,337.44Z"/><line class="cls-4" x1="180.56" y1="415.73" x2="180.54" y2="415.72"/><polygon class="cls-5" points="180.25 416.03 180.24 416.02 180.85 415.42 180.25 416.03"/><path class="cls-4" d="M243.19,431.93s-1.1,17.2,17.86,17.2"/><path class="cls-5" d="M261.05,449.56c-6,0-10.69-1.71-13.86-5.09-4.84-5.16-4.44-12.27-4.42-12.57l.85.06c0,.07-.39,7.05,4.2,11.93,3,3.2,7.45,4.82,13.23,4.82Z"/><line class="cls-4" x1="184.79" y1="324.89" x2="184.79" y2="324.88"/><polygon class="cls-5" points="184.36 324.89 184.36 324.88 185.21 324.88 184.36 324.89"/><path class="cls-4" d="M212.09,340.56a35.87,35.87,0,0,1-8.07,1.82"/><path class="cls-5" d="M204.07,342.8,204,342a35.6,35.6,0,0,0,8-1.79l.3.79A34.75,34.75,0,0,1,204.07,342.8Z"/><path class="cls-4" d="M180.07,240.82l0-.13"/><polygon class="cls-5" points="179.66 240.93 179.64 240.86 180.45 240.59 180.48 240.72 179.66 240.93"/><path class="cls-6" d="M181.54,251.67c0,18.87-12.74,34.2-28.66,34.77h0a167.34,167.34,0,0,1-9.69-14.79,40.07,40.07,0,0,1-5.47-24.89,24.63,24.63,0,0,1,3.07-9.73c6-9.85,15.74,0,15.74,0a24.41,24.41,0,0,1,6.57-6.25A10.23,10.23,0,0,1,178,235.72c.6,1.49,1.3,3.21,2.09,5.1A40.44,40.44,0,0,1,181.54,251.67Z"/><g class="cls-7"><path class="cls-8" d="M152.24,240.7a24.21,24.21,0,0,1,3.76-4.14c-2.05-1.82-9.84-7.85-15,.14C146.41,234.82,152.24,240.7,152.24,240.7Z"/><path class="cls-8" d="M180.07,240.82c-.79-1.89-1.49-3.61-2.09-5.1a10.23,10.23,0,0,0-14.89-4.94,23.15,23.15,0,0,0-4.67,3.93l.39-.26a10.24,10.24,0,0,1,14.9,4.94c.59,1.49,1.29,3.21,2.08,5.1a40.42,40.42,0,0,1,1.47,10.84,37.5,37.5,0,0,1-10.09,26.17c8.61-6.07,14.37-17.15,14.37-29.83A40.44,40.44,0,0,0,180.07,240.82Z"/></g><path class="cls-8" d="M192.74,265.52h0c-3.38,16.07-16.28,26.79-31.06,26.79a28.23,28.23,0,0,1-4.52-.37c-1.52-1.85-2.94-3.7-4.28-5.51,15.92-.57,28.66-15.9,28.66-34.77a40.44,40.44,0,0,0-1.47-10.85A162.44,162.44,0,0,0,192.74,265.52Z"/><path class="cls-8" d="M199.48,290.87s-13.61,3.4-11.55,16.65c0,0-12.32-7.67-17.26-1.58a107.24,107.24,0,0,1-13.51-14,28.23,28.23,0,0,0,4.52.37c14.78,0,27.68-10.72,31.06-26.79a71,71,0,0,0,7.37,9.7C198.55,278.8,198.23,284.11,199.48,290.87Z"/><g class="cls-9"><path class="cls-5" d="M167.87,229.28c-.31,0-.63.05-.94.09.33.3.52.49.52.49S167.6,229.64,167.87,229.28Z"/></g><g class="cls-9"><path class="cls-5" d="M190.38,296.81c-.54-.12-1.09-.22-1.63-.29a29.63,29.63,0,0,1-19.13-9.9c-.52-.62-1-1.23-1.53-1.85-1.52-1.84-2.94-3.7-4.28-5.51h0a167.34,167.34,0,0,1-9.69-14.79,40,40,0,0,1-5.47-24.89,28.65,28.65,0,0,1,1.52-6.49c-3-1-6.61-.61-9.38,3.94a24.68,24.68,0,0,0-3.07,9.73,40.07,40.07,0,0,0,5.47,24.89,167.34,167.34,0,0,0,9.69,14.79h0c1.34,1.81,2.76,3.66,4.28,5.51a107.24,107.24,0,0,0,13.51,14c4.94-6.09,17.26,1.58,17.26,1.58A13.51,13.51,0,0,1,190.38,296.81Z"/></g><line class="cls-4" x1="170.68" y1="305.95" x2="170.67" y2="305.94"/><polygon class="cls-5" points="170.38 306.25 170.37 306.24 170.97 305.64 170.38 306.25"/><line class="cls-4" x1="236.1" y1="284.63" x2="236.1" y2="284.62"/><polygon class="cls-5" points="235.67 284.63 235.67 284.62 236.53 284.62 235.67 284.63"/><path class="cls-4" d="M184.79,324.89a32.43,32.43,0,0,0,8,0"/><path class="cls-5" d="M188.77,325.57a31.52,31.52,0,0,1-4-.26l.11-.85a31.69,31.69,0,0,0,7.85,0l.09.85A34.09,34.09,0,0,1,188.77,325.57Z"/><path class="cls-4" d="M240.44,291.59a20.12,20.12,0,0,0-4.34-7h0"/><path class="cls-5" d="M240,291.72a19.92,19.92,0,0,0-4.24-6.8l-.12-.12v-.17h.43l.31-.29a20.31,20.31,0,0,1,4.43,7.13Z"/><polyline class="cls-4" points="344.55 460.92 344.55 460.92 349.2 442.51"/><rect class="cls-5" x="337.38" y="451.29" width="18.99" height="0.85" transform="translate(-176.02 677.43) rotate(-75.83)"/><path class="cls-4" d="M392.34,403.81s-3.83,21.42-9.66,37.36c-18.64-19.69-48.14-9.34-48.14-9.34,2.73-8.95,5.69-19.37,8.13-29.56h0a15.57,15.57,0,0,0,13.4,7,16.38,16.38,0,0,0,10.87-4A13.34,13.34,0,0,0,378.28,411c5.56,0,10.3-3,12.1-7.22.25,0,.52,0,.78,0A11.52,11.52,0,0,0,392.34,403.81Z"/><path class="cls-5" d="M382.85,442l-.48-.51c-18.23-19.25-47.4-9.33-47.69-9.23l-.79.28.24-.8c3.25-10.68,6-20.62,8.12-29.54l.08-.33h.58l.13.21c2.56,4.18,7.55,6.78,13,6.78A16,16,0,0,0,366.67,405l.37-.33.27.42a12.91,12.91,0,0,0,11,5.54c5.22,0,9.93-2.8,11.71-7l.12-.28.31,0c.24,0,.49,0,.74,0a9.17,9.17,0,0,0,1.13-.05l.57-.06-.11.56c0,.22-3.89,21.64-9.67,37.44Zm-30.54-13.23c9.53,0,21.12,2.38,30.21,11.64,5.11-14.24,8.67-32.72,9.3-36.11a9.12,9.12,0,0,1-1.17,0c-2,4.31-6.93,7.19-12.37,7.19a13.88,13.88,0,0,1-11.42-5.53,16.79,16.79,0,0,1-10.78,3.76,16.17,16.17,0,0,1-13.22-6.38c-2.06,8.47-4.63,17.84-7.68,27.87A62.19,62.19,0,0,1,352.31,428.74Z"/><path class="cls-10" d="M382.68,441.17c-2.59,7.11-5.58,13.14-8.82,15.69a12.85,12.85,0,0,1-1.65,1.11h0c-6.38,3.62-17.74,3.93-27.65,2.95a83,83,0,0,1-14-2.46,4.19,4.19,0,0,1-3-4.55,3.55,3.55,0,0,1,.19-.83c1.47-4.33,4-12,6.85-21.25C334.54,431.83,364,421.48,382.68,441.17Z"/><path class="cls-5" d="M353.84,461.81c-3.79,0-7.16-.25-9.34-.47a82.6,82.6,0,0,1-14.07-2.47,4.65,4.65,0,0,1-3.36-5,4.34,4.34,0,0,1,.22-.93c2.4-7.07,4.7-14.21,6.84-21.22l.07-.21.2-.07c.3-.11,30-10.21,48.59,9.45l.19.19-.1.25c-3,8.21-6,13.55-8.95,15.88a13.83,13.83,0,0,1-1.72,1.14l-.1.05C367.43,461.11,360.08,461.81,353.84,461.81Zm-19-29.64c-2.12,6.95-4.4,14-6.78,21a3.49,3.49,0,0,0-.18.76,3.79,3.79,0,0,0,2.74,4.08,83.16,83.16,0,0,0,13.93,2.44c12.06,1.2,22,.14,27.39-2.89l.11-.06a12.82,12.82,0,0,0,1.51-1c2.79-2.2,5.68-7.34,8.59-15.26C364.76,423.11,337.51,431.32,334.88,432.17Z"/><path class="cls-4" d="M344.75,308.24A10.23,10.23,0,0,1,326,316.43"/><path class="cls-5" d="M335,322.52a10.09,10.09,0,0,1-9.35-5.91l.78-.35c2,4.67,7.72,6.7,12.67,4.54a9.53,9.53,0,0,0,5.26-12.38l.78-.35a10.39,10.39,0,0,1-5.7,13.51A11,11,0,0,1,335,322.52Z"/><path class="cls-4" d="M384.31,344.39c0,5.33-3.86,9.67-8.65,9.68s-8.69-4.29-8.71-9.63"/><path class="cls-5" d="M375.64,354.5c-5,0-9.1-4.51-9.11-10.06h.85c0,5.08,3.72,9.21,8.26,9.21h0a7.78,7.78,0,0,0,5.81-2.71,9.75,9.75,0,0,0,2.41-6.55h.85a10.61,10.61,0,0,1-2.62,7.13,8.66,8.66,0,0,1-6.45,3Z"/><path class="cls-11" d="M416.19,388.77s1.37-12.33-11.47-15.73a17.18,17.18,0,0,0,1.71-16.27,21.25,21.25,0,0,0,3.32-11.52c0-8.54-4.78-15.77-11.35-18.19a17.6,17.6,0,0,0-10.11-24.36A23.94,23.94,0,0,0,374,275.37c-17.79,8.7-41.55,11.08-65.33,11.08-22.36,0-45.16-2.76-63.18-10-9,1.6-9.42,7.85-9.43,8.16-3.27-3.41-8.68-6.4-17.11-4.43,0,0,.64-7.64-8.37-9.85-4.93-1.21-8.62.58-10.51,4.89-1.56,3.57-1.88,8.88-.63,15.63,0,0-13.61,3.41-11.55,16.66,0,0-12.32-7.67-17.26-1.58a7.29,7.29,0,0,0-1,1.58c-3.31,7.33,3.19,15.8,15.08,17.37C185,341.41,196,343.23,204,342.38c0,0,1.31,15.32,15.23,13h0a14.71,14.71,0,0,0,3.51,7.44s-17.3,1.65-13.8,18c0,0-12.49-7.76-14.51,9,0,0-18.07-1.44-14.2,23.59l.32.82a16.28,16.28,0,0,1,4.33-10.57c5.58-5.85,14.87-6.1,21.13-1a41.59,41.59,0,0,1,15.09,26.93,31.23,31.23,0,0,1-7.83,25.85c14.56,1.65,20.14-5.78,20.14-5.78s14.9,10.85,27.6-.56c0,0,11.6,13.81,28.71,2.59,0,0,16.18,17.62,37,2.67a54.32,54.32,0,0,0,25.14,6c8.61,0,20.88-2.78,20.29-2.45,7.44,6.06,17.94,0,17.94,0,15.18,13,28.79,4,28.79,4a31.62,31.62,0,0,1-4.63-21.76,41.6,41.6,0,0,1,15.08-26.93A16,16,0,0,1,433,411S435.89,391.35,416.19,388.77Z"/><path class="cls-5" d="M407.51,465.38c-5,0-11.07-1.56-17.41-6.9-1.71.89-11.15,5.41-18.06-.1l-1.86.32c-3.89.7-12,2.15-18.27,2.15a55,55,0,0,1-25.1-6c-19.4,13.72-35-.49-37.12-2.63a24.2,24.2,0,0,1-13.18,4.25c-8.49,0-14.17-5.39-15.5-6.78-11.68,10.13-25.22,2-27.49.53-1.27,1.44-7.18,7.11-20.27,5.64l-.84-.1.57-.62a30.82,30.82,0,0,0,7.72-25.5A41.16,41.16,0,0,0,205.77,403a15.24,15.24,0,0,0-20.56,1A15.71,15.71,0,0,0,181,414.27l-.1,2-.72-1.81-.32-.82,0-.09c-1.39-9-.15-15.63,3.68-19.75a14.36,14.36,0,0,1,10.56-4.36c.71-5.26,2.54-8.64,5.46-10,3.38-1.62,7.2-.12,8.84.7-.78-4.46-.07-8.23,2.12-11.21,3.41-4.64,9.33-6,11.45-6.34a15.09,15.09,0,0,1-3-6.63,12.26,12.26,0,0,1-9.66-2.17c-4.33-3.36-5.39-9.21-5.61-10.86-5.92.56-10.77-.68-14-3.57s-5.11-7.69-5.24-14c-6.64-1-12.06-4.19-14.55-8.66a10.1,10.1,0,0,1-.5-9.26,7.64,7.64,0,0,1,1-1.67c4.45-5.48,14.23-.56,17.06,1-1.25-11.53,9.41-15.47,11.59-16.15-1.14-6.44-.89-11.79.73-15.5,2-4.56,5.91-6.38,11-5.14,7.81,1.92,8.64,7.86,8.7,9.73,8-1.69,13.26,1.11,16.38,4.07.41-1.92,2.17-6.35,9.65-7.68l.12,0,.12.05c16.24,6.52,38,10,63,10,28.66,0,50-3.61,65.14-11l.17-.08.18.07a24.32,24.32,0,0,1,15.08,22.55,24.6,24.6,0,0,1-.49,4.9A18,18,0,0,1,399,326.83c6.71,2.7,11.2,10,11.2,18.42a21.56,21.56,0,0,1-3.28,11.56,17.63,17.63,0,0,1,1.25,6.47,18,18,0,0,1-2.75,9.51c11.13,3.28,11.33,13.42,11.24,15.61,5.72.83,10.1,3.19,13,7,5.05,6.67,3.85,15.31,3.8,15.68l0,.23-.21.1a15.71,15.71,0,0,0-3.52,2.17,41.21,41.21,0,0,0-14.93,26.66,31.5,31.5,0,0,0,4.56,21.47l.23.36-.35.23A23.16,23.16,0,0,1,407.51,465.38Zm-17.31-7.93.23.19c13.39,11.45,25.67,5.45,27.91,4.18a32.27,32.27,0,0,1-4.45-21.68,42.05,42.05,0,0,1,15.23-27.2,16.59,16.59,0,0,1,3.49-2.19c.15-1.4.73-9-3.66-14.82-2.82-3.73-7.13-6-12.82-6.74l-.41-.06,0-.41c.06-.49,1.17-12-11.14-15.27l-.58-.15.33-.5a17.08,17.08,0,0,0,2.93-9.52,16.81,16.81,0,0,0-1.27-6.35l-.08-.21.12-.19a20.62,20.62,0,0,0,3.25-11.28c0-8.2-4.45-15.35-11.07-17.79l-.44-.16.2-.42a17.17,17.17,0,0,0-9.86-23.77l-.35-.13.08-.37a24.31,24.31,0,0,0,.55-5.08,23.48,23.48,0,0,0-14.38-21.69c-15.28,7.42-36.66,11-65.34,11-25,0-46.9-3.45-63.23-10-8.64,1.59-8.95,7.67-9,7.73l0,1-.7-.73c-2.94-3.06-8.22-6.28-16.7-4.31l-.57.14,0-.59c0-.29.49-7.31-8-9.4-4.71-1.15-8.18.46-10,4.65-1.58,3.63-1.79,9-.6,15.39l.07.39-.38.1c-.54.13-13.22,3.47-11.24,16.17l.15.92-.79-.49c-.12-.08-12.06-7.4-16.71-1.67a7,7,0,0,0-.9,1.48,9.26,9.26,0,0,0,.46,8.49c2.41,4.32,7.74,7.42,14.28,8.28l.37.05v.37c.08,6.26,1.75,10.89,5,13.75,4,3.54,9.7,3.76,13.8,3.32l.43,0,0,.43c0,.07.66,7.07,5.33,10.69,2.46,1.91,5.62,2.56,9.4,1.93h.44l.06.36a14.31,14.31,0,0,0,3.41,7.22l.55.62-.83.08c-.08,0-7.74.81-11.63,6.11-2.17,3-2.78,6.82-1.8,11.42l.21,1-.85-.53c-.05,0-4.9-3-8.83-1.1-2.71,1.3-4.4,4.59-5,9.77l0,.4-.41,0a13.85,13.85,0,0,0-10.28,4.07c-3.4,3.68-4.64,9.51-3.69,17.36a15.92,15.92,0,0,1,4.15-8.3,16.08,16.08,0,0,1,21.71-1,42.06,42.06,0,0,1,15.24,27.2,31.77,31.77,0,0,1-7.37,25.57c13.51,1.23,18.86-5.63,18.92-5.7l.25-.33.34.24c.14.11,14.78,10.52,27.07-.52l.33-.3.28.34c.46.55,11.56,13.38,28.15,2.5l.3-.2.25.27c.16.17,16.17,17.16,36.46,2.62l.21-.15.24.12a54.13,54.13,0,0,0,24.93,6c6.21,0,14.26-1.45,18.12-2.14,2.32-.41,2.45-.44,2.57-.12,7.13,5.64,17.23-.08,17.34-.14Z"/><g class="cls-9"><path class="cls-5" d="M221.39,363c-3.74.75-13.69,3.8-12.84,15a12.86,12.86,0,0,1,1.84,0c1.54-12.76,9.15-11.28,12.69-9.86A39.29,39.29,0,0,1,221.39,363Z"/><path class="cls-5" d="M219.25,355.38h0a14.29,14.29,0,0,0,1.41,4.32c-.15-.86-.29-1.73-.39-2.62a32.73,32.73,0,0,1,3.19-17.55,19,19,0,0,1-3.52-9c-8,.85-19-1-19.23-17.49-5.69-.75-10.13-3.09-12.86-6.13,0,.21,0,.41.07.62,0,0-12.32-7.67-17.26-1.58a7.29,7.29,0,0,0-1,1.58c-3.31,7.33,3.19,15.8,15.08,17.37C185,341.41,196,343.23,204,342.38,204,342.38,205.33,357.7,219.25,355.38Z"/><path class="cls-5" d="M197.92,384.79a12.64,12.64,0,0,1,6.18-5.64c-2.92-.39-6.43.42-8.39,5.42C196.45,384.63,197.19,384.7,197.92,384.79Z"/></g><g class="cls-9"><path class="cls-5" d="M372.88,276.27a24.45,24.45,0,0,1-.56,5.17,17.6,17.6,0,0,1,10.1,24.36c6.57,2.42,11.35,9.65,11.35,18.19a21.19,21.19,0,0,1-3.32,11.51,17.23,17.23,0,0,1-1.7,16.28c12.83,3.4,11.46,15.73,11.46,15.73a23.47,23.47,0,0,1,6.45,1.73,17,17,0,0,0-.23-12.47,21.25,21.25,0,0,0,3.32-11.52c0-8.54-4.78-15.77-11.35-18.19a17.6,17.6,0,0,0-10.11-24.36A23.94,23.94,0,0,0,374,275.37c-.38.19-.79.36-1.18.54C372.87,276,372.88,276.15,372.88,276.27Z"/></g><g class="cls-9"><path class="cls-5" d="M417.11,388.92c0,.55-.08.86-.08.86a16.07,16.07,0,0,0-3.62,2.23,41.6,41.6,0,0,0-15.08,26.93,34.12,34.12,0,0,0-.3,6.18c.56,12.51-13.76,19.95-23.4,12l-.46-.38s-10.5,6.06-17.94,0c.59-.33-11.68,2.45-20.29,2.45a54.32,54.32,0,0,1-25.14-6c-20.85,14.95-37-2.67-37-2.67-17.11,11.22-28.71-2.59-28.71-2.59-8.77,7.88-18.59,5.14-23.83,2.69a31.11,31.11,0,0,1-7.93,24.91c14.56,1.65,20.14-5.78,20.14-5.78s14.9,10.85,27.6-.56c0,0,11.6,13.81,28.71,2.59,0,0,16.18,17.62,37,2.67a54.32,54.32,0,0,0,25.14,6c8.61,0,20.88-2.78,20.29-2.45,7.44,6.06,17.94,0,17.94,0,15.18,13,28.79,4,28.79,4a31.62,31.62,0,0,1-4.63-21.76,41.6,41.6,0,0,1,15.08-26.93A16,16,0,0,1,433,411S435.78,392,417.11,388.92Z"/></g><g class="cls-9"><path class="cls-5" d="M195.13,386.32a24.55,24.55,0,0,0-.67,3.52s-18.07-1.44-14.2,23.59l.32.82a16.28,16.28,0,0,1,4.33-10.57A15.52,15.52,0,0,1,203.46,401,40.83,40.83,0,0,0,195.13,386.32Z"/></g><path class="cls-4" d="M374,275.37a23.8,23.8,0,0,0-9.14-1.81"/><path class="cls-5" d="M373.87,275.77a23.23,23.23,0,0,0-9-1.78v-.85a24.14,24.14,0,0,1,9.3,1.84Z"/><path class="cls-4" d="M181.91,423.55a25.16,25.16,0,0,1-1.37-7.83"/><path class="cls-5" d="M181.52,423.7a24.77,24.77,0,0,1-1.4-8l.85,0a24.91,24.91,0,0,0,1.34,7.69Z"/><path class="cls-5" d="M407.45,467.92c-5.12,0-11.29-1.49-17.7-6.43-3.79,1.66-12.51,4.45-19.44-1.21a3,3,0,0,1,3.77-4.63c5.73,4.68,14.5-.22,14.58-.27a3,3,0,0,1,3.43.32c13.2,11.28,24.73,4.08,25.22,3.77a3,3,0,0,1,3.27,5A26.14,26.14,0,0,1,407.45,467.92Z"/><path class="cls-5" d="M433,414a3.25,3.25,0,0,1-.44,0,3,3,0,0,1-2.52-3.37h0c0-.08,1-7.69-3.17-13.18-2.39-3.14-6.12-5.06-11.08-5.71a3,3,0,0,1-2.58-3.29c.1-1,.68-9.88-9.26-12.52a3,3,0,0,1,1.53-5.77c10.18,2.7,13.3,10.61,13.7,16.12a20.63,20.63,0,0,1,12.48,7.6c5.68,7.51,4.35,17.19,4.29,17.6A3,3,0,0,1,433,414Z"/><path class="cls-5" d="M309.83,463.4c-9.74,0-17.17-5.19-20.44-8-12.54,7.09-23.14,2.48-28.57-2.29-9.75,6.95-20.81,3.89-27,.34-3.2,2.63-10.39,6.7-22.94,4.67-17.21-2.77-31.8-39.47-33.41-43.65a3.25,3.25,0,0,1-.17-.61c-1.51-9.79-.05-17.15,4.35-21.88a16.61,16.61,0,0,1,10.25-5c1-5,3.23-8.34,6.54-9.93a11,11,0,0,1,7.07-.69,15.4,15.4,0,0,1,2.92-9,19,19,0,0,1,9.48-6.45c-4.7-9.56.82-20.65,4.93-25.71a3,3,0,0,1,4.64,3.76c-.43.53-10.25,12.94-2.46,21.94a3,3,0,0,1-2,4.92c-.05,0-6.64.73-9.82,5.1-1.71,2.35-2.17,5.5-1.35,9.34a3,3,0,0,1-4.49,3.16c-1-.62-4.19-2-6.39-1s-3.23,4.85-3.58,7.77a3,3,0,0,1-3.2,2.62,11.24,11.24,0,0,0-8.25,3.3c-3,3.24-3.94,8.95-2.81,16.54,4.16,10.67,17.05,37.73,28.67,39.6,13.81,2.22,19-4.12,19.25-4.4a3,3,0,0,1,4.12-.59c.52.38,13.15,9.26,23.85-.36a3,3,0,0,1,4.28.3c.4.47,10.18,11.59,24.79,2a3,3,0,0,1,3.84.48c.6.64,15,15.8,33.72,1.83a3,3,0,0,1,3.57,4.78C322.22,461.56,315.61,463.4,309.83,463.4Z"/><path class="cls-5" d="M180.55,418.71a3,3,0,0,1-2.1-.87h0a3,3,0,1,1,2.12.88Z"/><path class="cls-5" d="M216.47,358.61a14,14,0,0,1-8.79-2.89c-5.83-4.53-6.6-12.74-6.63-13.09a3,3,0,0,1,5.95-.52c0,.08.6,6,4.37,8.91,1.9,1.47,4.32,1.93,7.39,1.42a3,3,0,1,1,1,5.89A19.7,19.7,0,0,1,216.47,358.61Z"/><path class="cls-5" d="M245,429.16a32,32,0,0,0,1.72,7,16.36,16.36,0,0,0,3.33,5.59,11.58,11.58,0,0,0,2.27,1.85,16.32,16.32,0,0,0,2.6,1.24,31.85,31.85,0,0,0,6.1,1.3h.08a3,3,0,0,1-.08,6,17.37,17.37,0,0,1-8.53-1.26,15.65,15.65,0,0,1-3.87-2.43,16,16,0,0,1-2.91-3.49,17.7,17.7,0,0,1-2.47-8,21.21,21.21,0,0,1,.91-7.84.43.43,0,0,1,.55-.28.42.42,0,0,1,.29.35Z"/><path class="cls-5" d="M200.94,345.53a20.25,20.25,0,0,1-11.47-3.13c-5-3.41-7.57-9.29-7.67-17.49a3,3,0,0,1,2.95-3h0a3,3,0,0,1,3,2.95c.07,6.13,1.77,10.37,5,12.62,6.67,4.56,18.1.34,18.22.3a3,3,0,0,1,2.11,5.58A37.87,37.87,0,0,1,200.94,345.53Z"/><path class="cls-5" d="M152.87,289.42a3,3,0,0,1-.1-6c14.46-.5,25.78-14.46,25.78-31.79a37.13,37.13,0,0,0-1.39-10.16,3,3,0,0,1,5.75-1.62,43.38,43.38,0,0,1,1.61,11.78c0,20.56-13.85,37.15-31.54,37.76Z"/><path class="cls-5" d="M159,238.38c-.49.69-2.24,2.87-2.63,3.65a16.07,16.07,0,0,0-1.64,5.11v.05a.7.7,0,0,1-1.33.16,18.92,18.92,0,0,1-1-2.92,20.43,20.43,0,0,1-.51-3.13,23.56,23.56,0,0,1-.07-3.26c0-.55.08-1.1.15-1.66,0-.28.07-.57.13-.86a8.26,8.26,0,0,1,.22-1S159.29,238,159,238.38Z"/><path class="cls-5" d="M170.68,308.94a3,3,0,0,1-1.93-.71c-12.55-10.66-22.24-25-28.15-35.07a43.31,43.31,0,0,1-5.85-26.75,27.24,27.24,0,0,1,3.48-10.93c2.59-4.26,5.83-5.47,8.1-5.74,3.88-.46,7.48,1.44,9.77,3.08a26.21,26.21,0,0,1,5.42-4.57,13.08,13.08,0,0,1,11-1.33,13.25,13.25,0,0,1,8.18,7.7c7.08,17.75,14.33,30.73,21.56,38.59a3,3,0,1,1-4.39,4c-7.73-8.39-15.37-22-22.71-40.42a7.32,7.32,0,0,0-4.5-4.24,7.21,7.21,0,0,0-6,.72,21.79,21.79,0,0,0-5.69,5.4,3,3,0,0,1-4.59.42c-1.08-1.07-4.52-3.81-7.37-3.46-.52.06-2.07.25-3.69,2.91a21.18,21.18,0,0,0-2.65,8.54,37.23,37.23,0,0,0,5.07,23c4.65,8,14.33,22.89,26.87,33.54a3,3,0,0,1-1.94,5.26Z"/><path class="cls-5" d="M239.08,284.79l-3-.16-3-.1c0-.36.42-9,11.88-11a3,3,0,1,1,1.05,5.88C239.6,280.54,239.12,284.36,239.08,284.79Z"/><path class="cls-5" d="M188.82,328.12c-8.67,0-16.19-3.17-20.22-8.69a12.85,12.85,0,0,1-1.6-13.15,9.23,9.23,0,0,1,5.82-5.2c4-1.2,8.65.12,12.06,1.54,1-7.48,6.64-11.83,11.26-13.77-1.17-8.67.25-15.34,4.09-19,2-1.87,5.51-3.81,11.1-2.44,6.5,1.59,9.29,5.75,10.25,9.28,13.08-1.42,19.87,8.24,21.7,14a3,3,0,0,1-5.68,1.83c-.43-1.3-4.56-12.54-17.93-9.43a3,3,0,0,1-3.65-3.15c0-.83,0-5.21-6.11-6.7-2.39-.59-4.27-.26-5.58,1-2.61,2.46-3.32,8.48-1.91,16.1a3,3,0,0,1-2.21,3.44c-1.11.29-10.91,3.13-9.32,13.3a3,3,0,0,1-4.53,3c-2.87-1.77-8.62-4.23-11.81-3.26a3.23,3.23,0,0,0-2.11,2,6.94,6.94,0,0,0,1,7.16c2.55,3.5,9.05,7.18,19,6a3,3,0,1,1,.68,5.93A36.25,36.25,0,0,1,188.82,328.12Z"/><g class="cls-12"><path class="cls-5" d="M250.73,387.14a14.74,14.74,0,0,0,3.51,3.78,5.07,5.07,0,0,0,3.76.94,7.18,7.18,0,0,0,2-.6c.34-.12.68-.35,1-.51s.69-.4,1-.64a32.6,32.6,0,0,0,4.06-3.28,3,3,0,0,1,4.24.13,3.55,3.55,0,0,1,.35.44l0,0,.28.44.34.5c.23.32.48.65.74,1a15.15,15.15,0,0,0,1.64,1.74,8.14,8.14,0,0,0,3.64,2.05,6.47,6.47,0,0,0,4.16-.65,20,20,0,0,0,4.36-3h0a1,1,0,0,1,1.43.11,1,1,0,0,1,.14,1.11,15.24,15.24,0,0,1-3.86,5,9.81,9.81,0,0,1-6.7,2.4,10.61,10.61,0,0,1-3.65-.81,14.57,14.57,0,0,1-3.06-1.77,18.66,18.66,0,0,1-2.49-2.27c-.37-.41-.72-.83-1.06-1.27l-.51-.67c-.17-.24-.3-.43-.51-.77l4.62.62a26.9,26.9,0,0,1-5.09,4c-.48.29-1,.55-1.51.82a17.53,17.53,0,0,1-1.67.65,10.93,10.93,0,0,1-3.75.6,8.83,8.83,0,0,1-3.87-.94,9.12,9.12,0,0,1-2.94-2.37,11.16,11.16,0,0,1-1.74-2.95,12,12,0,0,1-.81-3.19,1,1,0,0,1,1.84-.68Z"/><path class="cls-5" d="M259.73,375.72c1.79,1,3.43,2,5,2.7a14.2,14.2,0,0,0,4.47,1.31,12.34,12.34,0,0,0,4.71-.51,53.32,53.32,0,0,0,5.44-2h0a1,1,0,0,1,1.37.58,1,1,0,0,1,0,.89,13.49,13.49,0,0,1-4.66,5,12.08,12.08,0,0,1-7.26,2,11.6,11.6,0,0,1-7-2.84,12.11,12.11,0,0,1-2.34-2.73,9.86,9.86,0,0,1-1.35-3.3,1.06,1.06,0,0,1,1.55-1.13Z"/><path class="cls-5" d="M292.54,350.07a9.29,9.29,0,0,1-3.16,2.4,10.84,10.84,0,0,1-3.95,1,10.72,10.72,0,0,1-4.26-.57,11.58,11.58,0,0,1-3.72-2.12,14.57,14.57,0,0,1-2.73-3c-.39-.54-.67-1.12-1-1.67s-.56-1.15-.78-1.73a18.78,18.78,0,0,1-1.3-7.16,1,1,0,0,1,1.06-1,1.06,1.06,0,0,1,.83.44v0c1.36,1.9,2.52,3.74,3.74,5.39a20.82,20.82,0,0,0,3.87,4.12,10.63,10.63,0,0,0,4.46,2,14.79,14.79,0,0,0,2.76.29c1,0,2.06-.05,3.12-.11h.2a1.05,1.05,0,0,1,1.09,1A1,1,0,0,1,292.54,350.07Z"/><path class="cls-5" d="M262.43,327.71c1.64,1.43,3.07,2.89,4.5,4a10.64,10.64,0,0,0,4,2.24,7.31,7.31,0,0,0,4.34-.5,45.39,45.39,0,0,0,5.38-2.72l0,0a1,1,0,0,1,1.42.42,1.08,1.08,0,0,1,0,.91,13.92,13.92,0,0,1-4.37,5.67,10.92,10.92,0,0,1-3.6,1.83,9.62,9.62,0,0,1-4.41.23,10.25,10.25,0,0,1-4-1.7,11.86,11.86,0,0,1-2.78-2.79,13.4,13.4,0,0,1-1.71-3.26,11.44,11.44,0,0,1-.7-3.57,1.08,1.08,0,0,1,1-1.09,1.11,1.11,0,0,1,.72.26Z"/><path class="cls-5" d="M345.66,307.85a8.17,8.17,0,0,1,1.92,4.21,10.38,10.38,0,0,1-.46,4.84,11.87,11.87,0,0,1-6.66,7,12.11,12.11,0,0,1-9.61,0A10.53,10.53,0,0,1,327,321a8.76,8.76,0,0,1-1.91-4.15,1,1,0,0,1,.87-1.17,1,1,0,0,1,.92.33l0,0a9.58,9.58,0,0,0,5.5,3.17,9.4,9.4,0,0,0,5.63-.73,10.11,10.11,0,0,0,4.18-3.71,10.55,10.55,0,0,0,1.58-6.12v-.06a1,1,0,0,1,1.82-.73Z"/><path class="cls-5" d="M385.3,344.38a9.4,9.4,0,0,1-1.33,8.37,10.15,10.15,0,0,1-3.54,3.14,10,10,0,0,1-9.47-.09,10.25,10.25,0,0,1-3.47-3.12,9.89,9.89,0,0,1-1.53-8.24,1,1,0,0,1,2-.06l0,.06a11.38,11.38,0,0,0,3.28,5,6.61,6.61,0,0,0,4.42,1.64,7,7,0,0,0,4.27-1.79,12.94,12.94,0,0,0,3.39-4.93l0-.07a1.06,1.06,0,0,1,1.39-.55A1,1,0,0,1,385.3,344.38Z"/></g><g class="cls-9"><path class="cls-5" d="M308.33,309.34c28.07,0,56.09-6,66.45-33.63l-.74-.34c-17.79,8.7-41.55,11.08-65.33,11.08-22.36,0-45.16-2.76-63.18-10a14.71,14.71,0,0,0-5.22,1.87C251.88,301.66,280.57,309.34,308.33,309.34Z"/></g><path class="cls-6" d="M192.08,464.8c-17.9.17-33.91-15.31-35.76-34.58-.1-1.06-.16-2.12-.18-3.15-.15-11,11.09-18.6,20.88-13.69a18.37,18.37,0,0,1,3.52,2.34,16.75,16.75,0,0,1,4.37-12,15.64,15.64,0,0,1,21.14-1,41.55,41.55,0,0,1,15.07,26.93C223.8,448.78,210,464.64,192.08,464.8Z"/><g class="cls-7"><path class="cls-8" d="M157.77,433.53c-.15-11,11.08-18.59,20.88-13.69a18.37,18.37,0,0,1,3.52,2.34,16.72,16.72,0,0,1,4.37-12c5.58-5.86,14.87-6.11,21.13-1a41.56,41.56,0,0,1,13.68,20.48c0-.71-.12-1.42-.23-2.15a41.55,41.55,0,0,0-15.07-26.93,15.64,15.64,0,0,0-21.14,1,16.76,16.76,0,0,0-4.37,12,18.37,18.37,0,0,0-3.52-2.34c-9.79-4.91-21,2.73-20.88,13.69q0,1.56.18,3.15a39,39,0,0,0,1.56,7.75C157.82,435.06,157.78,434.29,157.77,433.53Z"/></g><g class="cls-9"><path class="cls-5" d="M221.12,429.62c-.11-.8-.24-1.59-.39-2.36a29.55,29.55,0,0,1-28.65,23.63c-16.29.15-31-12.67-34.93-29.51a15.38,15.38,0,0,0-1,5.69c0,1,.08,2.09.18,3.15,1.85,19.27,17.86,34.75,35.76,34.58S223.8,448.78,221.12,429.62Z"/></g><path class="cls-5" d="M191.8,467.79c-19.25,0-36.47-16.66-38.45-37.29-.11-1.12-.18-2.27-.19-3.4a17.94,17.94,0,0,1,8.44-15.57,17,17,0,0,1,16.47-1,18.29,18.29,0,0,1,29.86-10.19,44.49,44.49,0,0,1,16.15,28.83,34.5,34.5,0,0,1-7.75,27.36,32.39,32.39,0,0,1-24.22,11.22h-.31Zm-21.11-53a11.11,11.11,0,0,0-5.92,1.75A12,12,0,0,0,159.13,427c0,1,.06,1.94.16,2.91,1.7,17.64,16.25,31.89,32.51,31.89h.26a26.4,26.4,0,0,0,19.75-9.14A28.19,28.19,0,0,0,218.17,430a38.67,38.67,0,0,0-14-25,12.65,12.65,0,0,0-17.09.74,13.61,13.61,0,0,0-3.54,9.94,3,3,0,0,1-4.9,2.33,14.82,14.82,0,0,0-2.95-2A11.05,11.05,0,0,0,170.69,414.84Z"/><path class="cls-5" d="M182.63,424.64a9.28,9.28,0,0,1-2-1.71,12.41,12.41,0,0,1-1.51-2.08,8.7,8.7,0,0,1-1-2.41,5.43,5.43,0,0,1,0-2.69,2.57,2.57,0,0,1,4.81-.45l.18.39a5.44,5.44,0,0,1,.4,1.86c.05.64,0,1.33,0,2.05l-.05,2.25c0,.78,0,1.59-.13,2.46v0a.41.41,0,0,1-.45.36A.28.28,0,0,1,182.63,424.64Z"/><path class="cls-6" d="M433.37,466.83c17.9.16,33.91-15.32,35.77-34.59.1-1.06.16-2.11.17-3.15.15-11-11.08-18.59-20.87-13.69a18.74,18.74,0,0,0-3.53,2.34,16.68,16.68,0,0,0-4.37-12c-5.58-5.86-14.86-6.11-21.13-1a41.58,41.58,0,0,0-15.08,26.94C401.65,450.81,415.48,466.66,433.37,466.83Z"/><g class="cls-7"><path class="cls-8" d="M464.5,444.46a39.37,39.37,0,0,0,4.64-15.07c.05-.57.09-1.13.12-1.69-.77-10.2-11.45-17-20.82-12.3a18.74,18.74,0,0,0-3.53,2.34,16.68,16.68,0,0,0-4.37-12c-5.58-5.86-14.86-6.11-21.13-1a42.07,42.07,0,0,0-11,13.56,42.74,42.74,0,0,1,7.56-8,15.63,15.63,0,0,1,21.13,1,16.75,16.75,0,0,1,4.37,12,18.37,18.37,0,0,1,3.52-2.34c9.8-4.91,21,2.73,20.88,13.68,0,1-.07,2.09-.18,3.16A38.8,38.8,0,0,1,464.5,444.46Z"/></g><g class="cls-9"><path class="cls-5" d="M445,451.87c-17.89-.17-31.72-16-29-35.18a42.67,42.67,0,0,1,3.45-11.95,41.54,41.54,0,0,0-15.05,26.91c-2.67,19.16,11.15,35,29,35.18,13.91.12,26.68-9.2,32.55-22.41A33.48,33.48,0,0,1,445,451.87Z"/></g><path class="cls-5" d="M433.65,469.81h-.31a32.38,32.38,0,0,1-24.22-11.21,34.51,34.51,0,0,1-7.74-27.37,44.54,44.54,0,0,1,16.14-28.83,18.32,18.32,0,0,1,29.87,10.2,17,17,0,0,1,16.47,1,17.94,17.94,0,0,1,8.44,15.57c0,1.12-.08,2.27-.19,3.4C470.12,453.15,452.91,469.81,433.65,469.81Zm-4.09-65.75a13.06,13.06,0,0,0-8.26,3,38.69,38.69,0,0,0-14,25,28.11,28.11,0,0,0,6.36,22.64,26.37,26.37,0,0,0,19.75,9.14h.26c16.25,0,30.81-14.24,32.51-31.88.09-1,.15-1.95.16-2.91a12,12,0,0,0-5.64-10.44,10.94,10.94,0,0,0-10.92-.54,16,16,0,0,0-2.94,2,3,3,0,0,1-4.9-2.32,13.64,13.64,0,0,0-3.55-9.94A12.1,12.1,0,0,0,429.56,404.06Z"/><path class="cls-5" d="M446.34,417a7.23,7.23,0,0,1-.06,2.86,13,13,0,0,1-.89,2.61,21.41,21.41,0,0,1-1.31,2.4,13.76,13.76,0,0,1-1.73,2.19.34.34,0,0,1-.48,0,.33.33,0,0,1-.09-.21h0a52.32,52.32,0,0,1-.16-5.23c0-.83,0-1.65.06-2.42a9.38,9.38,0,0,1,.38-2.25l.06-.19a2.19,2.19,0,0,1,4.22.25Z"/><g class="cls-13"><path class="cls-14" d="M418.74,279.2C417.69,299,386.8,320.66,306,316.38s-109.27-29.12-108.22-48.9c.39-7.34,4.63-10,6.11-10.54,1,.76,29.49,31.39,103.39,35.3s105.43-23.52,106.55-24.16C415.2,268.8,419.13,271.86,418.74,279.2Z"/></g><g class="cls-13"><path class="cls-15" d="M413.79,268.07h0c-1.22.73-32.77,28.08-106.55,24.17s-102.35-34.54-103.39-35.3c0,0-21.26-23.84-28-62.44a135.45,135.45,0,0,1-.88-40.67C185.1,75,246,38.74,320.48,42.69c38.8,2.06,72.78,14.58,96.66,37.34,22,20.93,35.43,50.51,36.25,88.56C454.75,230.94,413.79,268.07,413.79,268.07Z"/></g><g class="cls-13"><path class="cls-8" d="M181.23,201.41a135.18,135.18,0,0,1-.89-40.68c10.11-78.79,71-115.08,145.49-111.13,38.81,2,72.79,14.58,96.67,37.33A111.51,111.51,0,0,1,431,96,111.47,111.47,0,0,0,417.14,80c-23.88-22.76-57.85-35.28-96.66-37.34C246,38.74,185.1,75,175,153.83a135.45,135.45,0,0,0,.88,40.67c6.72,38.6,28,62.44,28,62.44a1.24,1.24,0,0,1,.22.19A141.23,141.23,0,0,1,181.23,201.41Z"/></g><polygon class="cls-16" points="313.39 243.81 313.08 243.84 313.09 243.75 313.39 243.81"/><polygon class="cls-16" points="313.69 243.78 313.68 243.87 313.39 243.81 313.69 243.78"/><path class="cls-17" d="M307.09,295.09C241.15,291.6,210,266.81,202,259.3l-.26-.24a3.61,3.61,0,0,1-.35-.33c-1.54-1.73-37.55-42.92-29.55-105.26,4.9-38.13,22.1-68.73,49.76-88.49,25.9-18.5,60.13-27.2,99-25.14s72,14.33,95.78,35.47c25.42,22.57,39.29,54.82,40.12,93.25,1.34,61.7-37.36,98.64-40.38,101.43a3,3,0,0,1-.51.41l-.29.22C406.6,277.25,373,298.58,307.09,295.09ZM206.18,255l.33.31c7.58,7.13,37.23,30.66,100.88,34S403,272.51,411.3,266.22l.34-.26c2-1.89,39.9-38.33,38.62-97.34C448.67,95.78,400.1,49.78,320.32,45.55S187.38,81.93,178.1,154.19C170.62,212.48,204.1,252.62,206.18,255Zm207.61,13h0Z"/><g class="cls-13"><path class="cls-8" d="M203.8,171.14c-13.5-1.37-13.25-15.57-12.07-28.62,2.89-32.21,32.66-77.71,77.94-78.74,39.31-.9,26.16,26.7,15.68,36.31C265.07,118.67,226.48,173.43,203.8,171.14Z"/></g><g class="cls-18"><rect class="cls-19" x="348.72" y="441.51" width="306.66" height="310.41" transform="translate(-207.91 919.33) rotate(-74.36)"/></g><path class="cls-17" d="M539.44,694.92c-16,5.72-32.57,9.34-49,8.67-65.31-2.7-92.32-48.8-93.44-50.77a3.21,3.21,0,0,1-.3-2.48l41.87-146.18a3.24,3.24,0,0,1,1.91-2.11c68-26.93,101.43,4.42,119.37,21.28,10,9.4,26.57,23.9,26.73,24a3.23,3.23,0,0,1-.15,5c-1.48,1.14-4.79,2-8.28,2.69,6.55,5.64,12.81,14.32,22,32.58,11.26,22.31,42.38,53.74,42.7,54a3.22,3.22,0,0,1-1.91,5.47c-9.89,1.18-25.1,9.6-42.72,19.35S560.47,687.4,539.44,694.92ZM403.33,650.74c4.52,6.93,31.29,44.09,87.42,46.4,36.1,1.5,74-19.46,104.41-36.29,15.15-8.39,28.59-15.82,39.1-18.85-9-9.48-30.48-33-39.8-51.47-11.53-22.86-17.9-29.65-26.29-34.79a3.22,3.22,0,0,1,1.33-6c2.85-.32,6.06-.81,8.61-1.32-5.65-5-15.69-13.92-22.63-20.44-16.77-15.76-47.88-44.93-111.11-20.56Z"/><path class="cls-3" d="M453.72,527.84s20.54-9.1,43-4.31c19.18,4.09,27.67,13.34,32.42,22.55s9.12,20.71,19.9,24.2c0,0-6,4.2-11.21,3.63,0,0,21.76,16.91,22.47,45.64a111.94,111.94,0,0,0-15.14,8.14c-6.62,4.44-30.1,14.54-36.54,17,0,0,11.08,3.71,12.52,6.5,0,0-11,2.72-18.78,8.21S451,681.1,429.25,643s24.47-115.15,24.47-115.15"/><g class="cls-20"><rect class="cls-21" x="608.92" y="579.16" width="44.53" height="46.71" transform="translate(-219.96 794.8) rotate(-56.4)"/></g><path class="cls-17" d="M650.08,617.34c-2,.7-6.22,1.4-14.4-.4-11.51-2.52-17.26-10.9-20-17.49a33.19,33.19,0,0,0-5.38-8.63,2.35,2.35,0,0,1,1.51-3.94c14.33-1.36,22.37,10.8,26.69,17.33,4.13,6.26,12.06,8.26,12.14,8.28a2.35,2.35,0,0,1,.84,4.18A5.46,5.46,0,0,1,650.08,617.34Zm-33.26-25.61a39,39,0,0,1,3.15,5.88c2.36,5.57,7.17,12.64,16.72,14.73,1.57.35,3,.59,4.18.75a23.05,23.05,0,0,1-6.35-6.28C630.1,600.12,624.79,593.11,616.82,591.73Z"/><g class="cls-22"><rect class="cls-23" x="624.44" y="614.72" width="71.11" height="71.51" transform="translate(-182.99 1035.28) rotate(-69.12)"/></g><path class="cls-2" d="M675.1,647.29c9.94,12.65,11.25,16.38,17.62,16.93,0,0-12.82,5-25.09.53s-22.68-11-33.18-7.92c0,0,12-7.82,23.21-7.75a59.62,59.62,0,0,0-14.84-18.36s22.34,3.92,32.28,16.57"/><g class="cls-24"><rect class="cls-25" x="709.34" y="653.74" width="38.74" height="38.64" transform="translate(-169.51 1094.04) rotate(-67.84)"/></g><path class="cls-17" d="M746.32,685.06a3.18,3.18,0,0,1-2.64-.21c-.08,0-8.94-4.88-16.6-6.59a29.78,29.78,0,0,1-18.41-12.1,3.22,3.22,0,0,1,1.42-4.61c7.64-3.47,14.77-3.79,21.18-.95,12,5.31,16.83,19.82,17,20.44a3.21,3.21,0,0,1-1,3.47A2.93,2.93,0,0,1,746.32,685.06Zm-29.46-19.15A24.69,24.69,0,0,0,728.48,672a61.44,61.44,0,0,1,9.72,3.18c-2.2-3.31-5.35-6.82-9.56-8.67A17.22,17.22,0,0,0,716.86,665.91Zm-5.44-1.43h0Z"/><path class="cls-17" d="M469.25,540.31a16.85,16.85,0,0,1-2.56.7,9.77,9.77,0,0,1-7.8-1.58c-4.12-3-4.89-8.68-5-9.32a2.45,2.45,0,0,1,0-.27l-.38-12.48a3.21,3.21,0,0,1,1.73-3l7.18-3.77a3.22,3.22,0,0,1,3.85.65l14.07,15a3.23,3.23,0,0,1,.5,3.7C480.68,530.35,476.82,537.61,469.25,540.31Zm-8.91-10.84c.15,1,.85,3.66,2.38,4.77a3.27,3.27,0,0,0,2.76.44c4-.77,6.91-3.8,8.43-5.8l-10.66-11.39L460,519.18Z"/><path class="cls-26" d="M438.94,507.85s9.75-7.79,13.75-6.84c6.64,1.57,22.41,18.81,22.41,18.81s3,8.21,2.9,8.71c0,0-15.28-7-15.65-6.64,2,3.3,6,15.75,6.53,17.25,0,0,10.68,6.37,11.66,7.73s6.13,17.5-2.51,47.67l-49.7-14.24Z"/><g class="cls-27"><path class="cls-8" d="M428.33,580.3l1.41.41,9.74-66.47s9.75-7.8,13.74-6.85c6.65,1.57,22.41,18.82,22.41,18.82s.23.6.55,1.49l1.81.82c.14-.49-2.89-8.7-2.89-8.7S459.33,502.57,452.69,501c-4-.95-13.75,6.84-13.75,6.84Z"/></g><path class="cls-28" d="M399,647.39s4.15,11.77,8,13.08c6.46,2.18,29-4.09,29-4.09s6.93-5.36,7.07-5.85c0,0-16.69-2.12-16.79-2.65,3.45-1.75,13.39-10.21,14.68-11.19,0,0,12.43.26,14-.38s14.47-11.6,23.11-41.77l-49.7-14.24Z"/><path class="cls-17" d="M479.12,597.58a3.26,3.26,0,0,1-2,.06l-49.7-14.24a3.22,3.22,0,0,1-2.3-3.56l10.61-72.46a3.22,3.22,0,0,1,1.18-2.05c3.3-2.64,11.51-8.64,16.5-7.46,7.24,1.71,21.3,16.77,24,19.78a3.25,3.25,0,0,1,.65,1.05c3.41,9.2,3.29,9.61,3,10.72a3.23,3.23,0,0,1-1.75,2,3.2,3.2,0,0,1-2.69,0c-2.79-1.28-5.77-2.62-8.33-3.75.94,2.57,1.92,5.42,2.83,8.15.15.42.28.8.39,1.13,10.31,6.19,11.26,7.5,11.62,8,1.46,2,7,19-2,50.44a3.24,3.24,0,0,1-1.53,1.93A3.41,3.41,0,0,1,479.12,597.58ZM431.93,578l43.86,12.57c6.34-24.14,3.42-38.75,2.12-41.76-1.29-1.08-6.39-4.32-10.68-6.88a3.13,3.13,0,0,1-1.36-1.62c-.13-.34-.43-1.2-.82-2.39-1.22-3.6-4.06-12-5.45-14.34a3.24,3.24,0,0,1,.37-3.85c1.79-2,2.91-1.46,11.64,2.4l1.06.47c-.12-.35-.25-.7-.38-1.05-6.31-6.83-16.52-16.48-20.35-17.39-1.34-.14-5.94,2.38-10,5.46Z"/><path class="cls-17" d="M461.74,516c-.5-1.57-1-3.09-1.59-4.61s-1.17-3-1.85-4.55a35.16,35.16,0,0,0-2.41-4.55,14.48,14.48,0,0,0-1.84-2.33c-.18-.19-.44-.4-.66-.59a6.63,6.63,0,0,0-.87-.6,5.35,5.35,0,0,0-2.86-.71,3.22,3.22,0,1,0,.58,6.42c-.44,0-.62-.14-.58-.16l.14,0c.08.06.16.08.26.15a7.72,7.72,0,0,1,1.33,1.2,29.8,29.8,0,0,1,2.68,3.48,81.31,81.31,0,0,1,4.67,8l0,0a1.62,1.62,0,0,0,3-1.22"/><path class="cls-17" d="M467.79,547.76c.16,1.63.25,3.34.28,5s0,3.34-.08,5a32.35,32.35,0,0,1-1.68,9.27,3.23,3.23,0,0,0,6.05,2.28,4.28,4.28,0,0,0,.15-.51,38,38,0,0,0,.32-11.16c-.18-1.78-.44-3.54-.75-5.28s-.67-3.44-1.12-5.2a1.61,1.61,0,0,0-3.17.56Z"/><path class="cls-17" d="M461.38,538.24l-11.15,2.9a3.25,3.25,0,1,0,1.64,6.3,3.31,3.31,0,0,0,.84-.35l9.91-5.88a1.62,1.62,0,0,0-1.24-3"/><path class="cls-17" d="M437.06,659.41l-.21.07c-3.92,1.09-23.82,6.43-30.87,4-4.86-1.64-8.65-11.08-10.05-15.07a3.21,3.21,0,0,1,.09-2.36L425.37,579a3.21,3.21,0,0,1,3.84-1.8l49.71,14.23a3.23,3.23,0,0,1,2.21,4c-9,31.46-22.67,42.91-25,43.86-.59.25-2.09.85-14.11.65l-.9.74c-2.23,1.83-4.57,3.74-6.73,5.42,2.76.4,6,.84,9,1.23a3.22,3.22,0,0,1,2.7,4.09c-.32,1.1-.44,1.51-8.2,7.51A3.33,3.33,0,0,1,437.06,659.41ZM402.44,647.5c1.82,4.76,4.39,9.32,5.64,9.93,3.69,1.25,17.45-1.53,26.43-4l.87-.69-1.14-.16c-9.45-1.34-10.66-1.52-11.15-4.12a3.23,3.23,0,0,1,1.72-3.47c2.4-1.21,9.29-6.88,12.23-9.3,1-.78,1.66-1.36,1.95-1.57a3.15,3.15,0,0,1,2-.66c5,.1,11,.06,12.7-.18,2.7-1.87,12.91-12.72,20.31-36.55l-43.86-12.56Z"/><path class="cls-17" d="M420.72,649.94a80.48,80.48,0,0,1-8.21,4.32,30.66,30.66,0,0,1-4.11,1.54,7.77,7.77,0,0,1-1.77.31c-.12,0-.2,0-.29,0l-.14-.05s.21-.08.57.17a3.22,3.22,0,1,0-3.88,5.14,5.2,5.2,0,0,0,2.8.91,8.79,8.79,0,0,0,1.05,0c.29-.05.62-.09.88-.16a14.35,14.35,0,0,0,2.79-1,35.81,35.81,0,0,0,4.45-2.58c1.38-.92,2.7-1.89,4-2.88s2.54-2,3.79-3.07a1.62,1.62,0,0,0-1.88-2.62Z"/><path class="cls-17" d="M447,631c1.31-1.25,2.51-2.5,3.7-3.82s2.33-2.66,3.43-4.08a37.74,37.74,0,0,0,5.64-9.64,3.23,3.23,0,0,0-6.05-2.28,2.29,2.29,0,0,0-.15.51,32.14,32.14,0,0,1-3.48,8.75c-.79,1.45-1.66,2.87-2.58,4.28s-1.89,2.8-2.88,4.09l0,0A1.62,1.62,0,0,0,447,631"/><path class="cls-29" d="M260,655.75l5,80s5.55,24.56,21.76,26.63,87.88-3.67,87.88-3.67-38.89-14-57.75-33.64-13-68.43-13-68.43"/><path class="cls-30" d="M286.72,762.41c16.21,2.07,87.88-3.67,87.88-3.67s-38.89-14-57.75-33.63c-7.49-7.82-11.08-20.24-12.69-32.37a163.54,163.54,0,0,1-.29-36.07l-43.9-.93,2.06,33,2.92,47s5.56,24.57,21.77,26.64"/><path class="cls-31" d="M293.11,762.81c23.41.58,81.49-4.07,81.49-4.07s-38.89-14-57.75-33.63a33.32,33.32,0,0,1-4.11-5.32Z"/><g class="cls-32"><path class="cls-17" d="M262,688.75l15.21,10.59s13.79-3.31,26.92-6.6a163.54,163.54,0,0,1-.29-36.07l-43.9-.93Z"/></g><path class="cls-17" d="M436.73,631.63l-5.3-10.24a3.25,3.25,0,1,0-5.78,3,3.31,3.31,0,0,0,.53.74l7.92,8.37a1.63,1.63,0,0,0,2.63-1.86"/><path class="cls-17" d="M375.68,761.77a2.79,2.79,0,0,1-.82.18c-2.94.24-72.19,5.74-88.54,3.66-18.24-2.33-24.26-28-24.51-29.12a4.46,4.46,0,0,1-.07-.51l-5-80a3.22,3.22,0,1,1,6.43-.4l5,79.74c.59,2.37,6,22.26,19,23.92,11.42,1.46,52-1.13,73.54-2.66-13.27-5.87-33.72-16.26-46.14-29.22-19.69-20.52-14.11-69-13.86-71.05a3.22,3.22,0,0,1,6.4.77c-.06.47-5.46,47.5,12.11,65.82,18.12,18.89,56.13,32.7,56.51,32.83a3.22,3.22,0,0,1,0,6.07Z"/><path class="cls-29" d="M278.29,659.74,275.83,753s4,8.36,15.88,11.07c12.65,2.89,54.13,6.4,69.12,2,4.13-1.21,13.77-7.27,13.77-7.27s-22.88-4.45-36.66-8.19-19.7-6.13-17.2-11.36c2.63-5.49,47.16-81.24,53.78-86.86s-96.23,7.41-96.23,7.41"/><path class="cls-30" d="M275.83,753s4,8.35,15.87,11.07c12.66,2.89,54.14,6.4,69.14,2,4.12-1.23,13.76-7.28,13.76-7.28s-22.88-4.45-36.66-8.2-19.71-6.11-17.2-11.35c1.28-2.66,12.4-21.85,24.28-41.55,12.62-20.92,26.09-42.41,29.51-45.31,6.62-5.63-96.24,7.41-96.24,7.41l-1.05,39.6Z"/><g class="cls-32"><path class="cls-17" d="M277.24,699.34a519.09,519.09,0,0,0,67.78-1.7c12.62-20.92,26.09-42.41,29.51-45.31,6.62-5.63-96.24,7.41-96.24,7.41Z"/></g><path class="cls-17" d="M362.5,768.86l-.75.24c-15.71,4.63-57.76,1-70.76-1.93-13.26-3-17.88-12.42-18.07-12.82a3.41,3.41,0,0,1-.31-1.47l2.46-93.22a3.23,3.23,0,0,1,2.82-3.12c.23,0,24-3,47.66-5.51,50.15-5.25,51-3.39,52.21-.59a3.72,3.72,0,0,1-1.15,4.35c-5.71,4.85-49.38,78.3-53,85.79a1.53,1.53,0,0,0-.23.85c.95,2.08,11.06,4.83,15.37,6,13.5,3.67,36.2,8.09,36.42,8.13a3.22,3.22,0,0,1,1.11,5.89C375.35,762.07,367.13,767.2,362.5,768.86Zm-83.42-16.7c1.08,1.73,4.88,6.8,13.35,8.73,12.16,2.77,53,6.3,67.49,2a35.68,35.68,0,0,0,5.76-2.69c-8-1.65-20.05-4.25-28.58-6.57-12-3.26-17.65-5.42-19.54-9.55a7.19,7.19,0,0,1,.27-6.31c1.92-4,38.18-66.1,51.08-83.7-13.21,0-51.88,4-87.47,8.49Z"/><path class="cls-8" d="M383.42,660.89c54.4-26.78,61-76,61-76s20.48-45.22-11.49-96.75S291.33,386.63,191.24,390.43a193.45,193.45,0,0,0-32.37,3.93,185.08,185.08,0,0,0-44.54,15.4,193,193,0,0,0-65.77,53.53A21.5,21.5,0,0,0,44.2,478.5a192.78,192.78,0,0,0,27.45,80.22,185.67,185.67,0,0,0,29.65,36.67,194.33,194.33,0,0,0,25.37,20.46c82.89,56.22,202.36,71.83,256.75,45"/><path class="cls-17" d="M375,669.1c-27.58,9.85-66.8,11.59-109.91,4.64-51.33-8.27-101.34-27.57-140.8-54.33a199.84,199.84,0,0,1-25.92-20.92A190.38,190.38,0,0,1,68,561a196.3,196.3,0,0,1-28.06-82.06,25.65,25.65,0,0,1,5.23-18.25,196.39,196.39,0,0,1,67.26-54.76A190.47,190.47,0,0,1,158,390.15a200,200,0,0,1,33.09-4c47.64-1.81,100.28,8.3,148.2,28.46,45.6,19.18,81.06,45.17,97.27,71.3,31.22,50.34,14.44,94.42,12,100.21-1,6.2-10.1,52.48-63.23,78.64h0A97.06,97.06,0,0,1,375,669.1ZM135.8,405.31a181.49,181.49,0,0,0-19.56,8.3A187.61,187.61,0,0,0,52,465.92a17.12,17.12,0,0,0-3.48,12.16,187.51,187.51,0,0,0,26.83,78.39,181.74,181.74,0,0,0,29,35.82,191.82,191.82,0,0,0,24.81,20c38.44,26.08,87.22,44.89,137.34,53,47.12,7.59,89.07,4.6,115.1-8.23h0c51.55-25.38,58.54-72.23,58.61-72.7a4.22,4.22,0,0,1,.34-1.2c.19-.42,19.07-43.87-11.22-92.71C414,465.77,380,441,336,422.51c-46.8-19.68-98.13-29.55-144.55-27.79a190.64,190.64,0,0,0-31.66,3.85A179.54,179.54,0,0,0,135.8,405.31Z"/><path class="cls-8" d="M383.42,660.89c54.4-26.78,61-76,61-76s20.48-45.22-11.49-96.75S291.33,386.63,191.24,390.43a193.45,193.45,0,0,0-32.37,3.93,185.08,185.08,0,0,0-44.54,15.4,193,193,0,0,0-65.77,53.53A21.5,21.5,0,0,0,44.2,478.5a192.78,192.78,0,0,0,27.45,80.22,185.67,185.67,0,0,0,29.65,36.67,194.33,194.33,0,0,0,25.37,20.46c82.89,56.22,202.36,71.83,256.75,45"/><path class="cls-8" d="M71.66,558.72a184.88,184.88,0,0,0,29.65,36.67,193.23,193.23,0,0,0,25.35,20.45c82.9,56.23,202.37,71.84,256.76,45,28.46-14,43.83-34.15,52-50.19,7.46-14.6,9-25.79,9-25.79s20.48-45.22-11.49-96.75S291.33,386.63,191.24,390.43a193.45,193.45,0,0,0-32.37,3.93,185.08,185.08,0,0,0-44.54,15.4A193,193,0,0,0,48.56,463.3a21.54,21.54,0,0,0-4.34,15.32,181.59,181.59,0,0,0,5.65,29.82,193.16,193.16,0,0,0,21.79,50.28"/><path class="cls-8" d="M71.66,558.72a184.88,184.88,0,0,0,29.65,36.67,193.23,193.23,0,0,0,25.35,20.45c82.9,56.23,202.37,71.84,256.76,45,28.46-14,43.83-34.15,52-50.19,7.46-14.6,9-25.79,9-25.79s20.48-45.22-11.49-96.75c-9.8-15.78-26.88-31.43-48.74-45.43-26.36-16.87-59.66-31.35-95.53-40.8-31.48-8.31-64.94-12.73-97.39-11.5a193.45,193.45,0,0,0-32.37,3.93,185.08,185.08,0,0,0-44.54,15.4A193,193,0,0,0,48.56,463.3a21.54,21.54,0,0,0-4.34,15.32,181.59,181.59,0,0,0,5.65,29.82,193.16,193.16,0,0,0,21.79,50.28"/><g class="cls-33"><path class="cls-17" d="M71.66,558.72a184.88,184.88,0,0,0,29.65,36.67,193.23,193.23,0,0,0,25.35,20.45c82.9,56.23,202.37,71.84,256.76,45,28.46-14,43.83-34.15,52-50.19C404.08,605,368.55,590.19,364,551,363.62,547.5,264,517.53,264,517.53s-27,40.64-73.29,28.61c-56.11-14.57-154.08-99.41-140.8-37.7a193.16,193.16,0,0,0,21.79,50.28"/></g><path class="cls-31" d="M278.56,671.31c.93.13,1.84.24,2.75.33l4.1.45c1.1.11,2.19.22,3.28.31l.16,0,3.17.27a1.94,1.94,0,0,0,.34,0c1.05.1,2.09.17,3.14.24,2.53.18,5.06.32,7.55.43l3.21.12c1,0,2,.06,3,.07l1.95,0q6.82.09,13.36-.15l2.24-.1c.93,0,1.85-.09,2.77-.15.69,0,1.39-.09,2.07-.14.91-.05,1.81-.12,2.69-.2s1.51-.12,2.26-.2c1.56-.13,3.1-.29,4.61-.48s2.81-.33,4.18-.52l2.65-.39c.93-.14,1.85-.3,2.76-.45s1.62-.29,2.43-.44l1-.18c1.55-.29,3.08-.61,4.58-1,1.73-.39,3.43-.8,5.1-1.25l2.47-.68c.82-.23,1.63-.48,2.43-.72a98.59,98.59,0,0,0,14.63-5.73c3.32-1.63,6.44-3.35,9.41-5.13l.33-.2c1.47-.87,2.88-1.78,4.25-2.69l.13-.08c.7-.46,1.38-.94,2.06-1.41s1.38-1,2-1.45,1.34-1,2-1.47,1.29-1,1.93-1.5,1.25-1,1.86-1.51,1.22-1,1.81-1.53,1.18-1,1.75-1.53c1.15-1,2.25-2.06,3.33-3.11l1.57-1.57c.51-.5,1-1,1.48-1.52l.16-.17c.45-.49.91-1,1.35-1.46.91-1,1.78-2,2.62-3l.16-.19c.45-.53.88-1.06,1.31-1.59,1.3-1.57,2.5-3.15,3.64-4.73l1.12-1.57L428.8,622c.53-.79,1-1.56,1.53-2.33.24-.37.47-.74.69-1.12.68-1.07,1.31-2.14,1.91-3.19.31-.52.6-1,.88-1.56l.83-1.52c.27-.51.53-1,.79-1.53-14.09-2.58-29-7-41.59-14.6C359.72,666,281.09,671.16,278.56,671.31"/><path class="cls-34" d="M53.57,520.39a191.49,191.49,0,0,0,18.09,38.33c.94,1.55,1.93,3.1,3,4.64.48.74,1,1.48,1.5,2.24,1,1.49,2,3,3.11,4.44.33.46.65.9,1,1.35l.2.27a.35.35,0,0,0,.08.1,59.4,59.4,0,0,0,59.57,23.16c25.42-5.26,46.75-20.87,61.12-46.87a68.32,68.32,0,0,1-10.51-1.91c-56.08-14.56-154-99.35-140.81-37.76.06.27.14.54.22.82.24.84.49,1.7.73,2.57.13.43.26.87.4,1.31s.25.88.4,1.32.19.62.29.94c.18.57.37,1.15.55,1.73s.4,1.23.62,1.85.32,1,.5,1.47"/><path class="cls-17" d="M375,669.1c-27.58,9.85-66.8,11.59-109.91,4.64-51.33-8.27-101.34-27.57-140.8-54.33a199.84,199.84,0,0,1-25.92-20.92A190.38,190.38,0,0,1,68,561a196.3,196.3,0,0,1-28.06-82.06,25.65,25.65,0,0,1,5.23-18.25,196.39,196.39,0,0,1,67.26-54.76A190.47,190.47,0,0,1,158,390.15a200,200,0,0,1,33.09-4c47.64-1.81,100.28,8.3,148.2,28.46,45.6,19.18,81.06,45.17,97.27,71.3,31.22,50.34,14.44,94.42,12,100.21-1,6.2-10.1,52.48-63.23,78.64h0A97.06,97.06,0,0,1,375,669.1ZM135.8,405.31a181.49,181.49,0,0,0-19.56,8.3A187.61,187.61,0,0,0,52,465.92a17.12,17.12,0,0,0-3.48,12.16,187.51,187.51,0,0,0,26.83,78.39,181.74,181.74,0,0,0,29,35.82,191.82,191.82,0,0,0,24.81,20c38.44,26.08,87.22,44.89,137.34,53,47.12,7.59,89.07,4.6,115.1-8.23h0c51.55-25.38,58.54-72.23,58.61-72.7a4.22,4.22,0,0,1,.34-1.2c.19-.42,19.07-43.87-11.22-92.71C414,465.77,380,441,336,422.51c-46.8-19.68-98.13-29.55-144.55-27.79a190.64,190.64,0,0,0-31.66,3.85A179.54,179.54,0,0,0,135.8,405.31Z"/><path class="cls-30" d="M278.52,671.31c42,5.18,80.19,1.75,104.9-10.42,54.4-26.79,61-76,61-76s20.49-45.22-11.48-96.75c-14.52-23.41-45.07-46.49-83.47-64.37,1.42,1,79.72,56.74,53.24,149.16s-122.56,98.27-124.15,98.36"/><g class="cls-27"><path class="cls-8" d="M433,500.76c12.15,19.6,16.73,38.27,17.72,53.9.93-17.63-2.17-41.3-17.79-66.49-14.52-23.42-45.07-46.5-83.47-64.38.58.4,13.84,9.85,27.61,27.12,25.32,15.08,45.1,32.38,55.93,49.85"/></g><g class="cls-32"><path class="cls-17" d="M278.54,671.32c.93.11,1.85.23,2.77.32l4.1.45c1.1.11,2.19.22,3.28.31l.16,0,3.17.27a1.94,1.94,0,0,0,.34,0c1.05.1,2.09.17,3.14.24q3.81.27,7.55.43l3.21.12c1,0,2,.06,3,.07l1.95,0q6.81.09,13.36-.15l2.24-.1c.93,0,1.85-.09,2.77-.15.69,0,1.39-.09,2.07-.14.91-.05,1.8-.12,2.69-.2s1.51-.12,2.26-.2c1.56-.13,3.1-.29,4.61-.48s2.81-.33,4.18-.52l2.65-.39c.93-.14,1.85-.3,2.76-.45s1.62-.29,2.43-.43l1-.19c1.55-.3,3.08-.62,4.58-1,1.73-.39,3.43-.8,5.1-1.25l2.47-.68c.82-.23,1.63-.48,2.42-.72a98.4,98.4,0,0,0,14.63-5.74c3.31-1.62,6.46-3.34,9.42-5.12l.33-.2q2.19-1.32,4.26-2.69l.12-.08c.7-.46,1.38-.94,2.06-1.41s1.38-1,2-1.45,1.34-1,2-1.47,1.29-1,1.93-1.5,1.25-1,1.86-1.51,1.22-1,1.81-1.53,1.18-1,1.75-1.53c1.15-1,2.25-2.06,3.33-3.11l1.57-1.57,1.48-1.52.16-.17c.46-.49.91-1,1.35-1.46.91-1,1.77-2,2.62-3l.15-.19c.46-.53.89-1.06,1.32-1.59,1.3-1.58,2.5-3.16,3.64-4.73l1.12-1.56L428.8,622c.53-.79,1-1.56,1.53-2.33.24-.37.47-.74.69-1.12.68-1.07,1.31-2.14,1.91-3.19.31-.52.6-1,.88-1.56s.56-1,.82-1.52.54-1,.8-1.53c-14.09-2.58-29-7-41.59-14.6C359.72,666,281.09,671.16,278.56,671.31Z"/></g><path class="cls-17" d="M374.81,669.16c-24.73,8.83-58.53,11.13-96.81,6.42a4.3,4.3,0,0,1,.27-8.56c3.86-.22,94.85-6.49,120.27-95.25,10.65-37.16,5.38-72.61-15.65-105.36-15.95-24.86-35.13-38.54-35.93-39.11a4.3,4.3,0,0,1,4.29-7.41c40.23,18.74,70.53,42.18,85.3,66,31.22,50.33,14.44,94.41,12,100.2-1,6.2-10.1,52.48-63.23,78.64A98.68,98.68,0,0,1,374.81,669.16Zm-63.95.14c28.61.43,53.43-3.78,70.66-12.27,51.55-25.38,58.54-72.23,58.6-72.7a4.59,4.59,0,0,1,.35-1.2c.19-.42,19.07-43.87-11.23-92.7-10.12-16.33-29-33.08-53.57-47.88a165.51,165.51,0,0,1,14.46,19.22c22.1,34.43,27.87,73.29,16.67,112.37C389.32,635.17,342.78,659.59,310.86,669.3Z"/><path class="cls-35" d="M287.29,610.39l10.37,3,.45-1.58c23-.44,46.26-21.91,55.16-53s.54-61.6-18.75-74.16l.45-1.57-10.36-3c-26.14-7.49-55.69,15.6-66,51.58s2.54,71.21,28.68,78.7"/><path class="cls-17" d="M312.51,612.31a45.42,45.42,0,0,1-12,2.59,3.23,3.23,0,0,1-3.72,1.56l-10.37-3h0c-27.81-8-41.66-45.06-30.89-82.68,5.17-18,15.18-33.59,28.18-43.75,13.29-10.39,28.14-14,41.8-10.05l10.37,3a3.22,3.22,0,0,1,2.33,3.29c19.6,14.34,27.08,45.33,18.17,76.43C349,585.57,332,605.36,312.51,612.31ZM297,608.75a2.93,2.93,0,0,1,1-.19c21.92-.42,43.84-21.72,52.13-50.64s1-58.6-17.41-70.57a3.19,3.19,0,0,1-1.37-2l-7.67-2.19c-11.63-3.33-24.43-.16-36.06,8.93-11.94,9.33-21.15,23.69-26,40.44-9.8,34.21,2.07,67.72,26.46,74.71l7.67,2.2A3.18,3.18,0,0,1,297,608.75Z"/><path class="cls-26" d="M300.58,611.85c26.14,7.49,55.68-15.61,66-51.58s-2.53-71.21-28.67-78.7-55.68,15.61-66,51.58,2.53,71.21,28.67,78.7"/><path class="cls-35" d="M297.8,612.84c26.14,7.49,55.68-15.6,66-51.59A86,86,0,0,0,366,521.57c-3.19-16.53-11.75-30-24.25-36.39a35.64,35.64,0,0,0-6.59-2.62c-26.15-7.48-55.68,15.6-66,51.59s2.53,71.21,28.67,78.69"/><g class="cls-33"><path class="cls-17" d="M354.63,520.43c5,4.56,10.05,3.14,14.11.15-3.19-16.53-11.75-30-24.25-36.39-.09,11.66,1.45,28.3,10.14,36.24"/></g><path class="cls-17" d="M322.56,615.3a41.7,41.7,0,0,1-25.8,1.15h0c-27.8-8-41.66-45.05-30.88-82.68s42.17-61.76,70-53.79c13.66,3.91,24.36,14.8,30.14,30.66,5.64,15.5,5.91,34,.74,52C359.25,588.8,341.82,608.42,322.56,615.3Zm-24-5c24.39,7,52.2-15.16,62-49.37,4.8-16.75,4.59-33.81-.6-48-5.05-13.87-14.23-23.34-25.86-26.67-24.39-7-52.2,15.16-62,49.37s2.07,67.72,26.46,74.71Z"/><path class="cls-17" d="M300.65,595.14a26.74,26.74,0,0,0,3.42,1.23,27.76,27.76,0,0,0,15.36-.12,36.55,36.55,0,0,0,10.55-5c8.25-5.57,15.44-14.62,20-25.9.85-2.13,1.61-4.33,2.26-6.59,7.51-26.25-1.85-51.94-20.91-57.4a26.13,26.13,0,0,0-4.52-.87c-8.89-.94-18,2.61-25.85,9.43a53.91,53.91,0,0,0-8.79,9.92,65.06,65.06,0,0,0-9,19.14c-.41,1.41-.76,2.82-1.07,4.22-5.06,23.11,2.78,44.95,18.55,51.94"/><g class="cls-36"><g class="cls-37"><path class="cls-8" d="M300.92,509.92,330,591.25c8.25-5.57,15.44-14.62,20-25.9l-23.17-64.86c-8.89-.94-18,2.62-25.85,9.43"/></g></g><g class="cls-36"><g class="cls-38"><path class="cls-8" d="M282.1,543.2l18.55,51.93a25.34,25.34,0,0,0,3.42,1.24,27.76,27.76,0,0,0,15.36-.12l-27.3-76.41a65.06,65.06,0,0,0-9,19.14c-.41,1.41-.76,2.82-1.07,4.22"/></g></g><path class="cls-17" d="M322.52,598.61a31.37,31.37,0,0,1-19.33.86c-20.74-5.94-31.11-33.48-23.12-61.38s31.37-45.76,52.11-39.82,31.11,33.47,23.12,61.37C349.76,579,336.83,593.49,322.52,598.61Zm-7.65-93.43c-12.33,4.41-23.65,17.4-28.6,34.69-7,24.48,1.37,48.44,18.69,53.4s37.12-10.92,44.14-35.4-1.38-48.44-18.7-53.41A25.14,25.14,0,0,0,314.87,505.18Z"/><path class="cls-39" d="M304.08,596.37c19.06,5.46,40.6-11.39,48.11-37.61s-1.84-51.93-20.9-57.39a25,25,0,0,0-4.06-.82c16.41,7.63,24,31.55,17,55.93s-26.08,40.64-44,38.43a25.8,25.8,0,0,0,3.88,1.46"/><path class="cls-17" d="M322.59,598.65a31.42,31.42,0,0,1-19.4.82h0a30.16,30.16,0,0,1-4.37-1.64,3.23,3.23,0,0,1,1.77-6.12c16.63,2,34.06-13.48,40.55-36.12s-.08-45.05-15.27-52.12a3.22,3.22,0,0,1,1.74-6.12,28.91,28.91,0,0,1,4.57.92c10.24,2.93,18.25,11.06,22.56,22.9,4.17,11.47,4.37,25.14.55,38.47S344.07,584.46,334.45,592A42.51,42.51,0,0,1,322.59,598.65Zm24.23-79.59c4,11,4.42,24.68.52,38.31s-11.5,25-20.72,32.22a42.53,42.53,0,0,0,3.86-2.68c8.56-6.69,15.17-17,18.61-29s3.31-24.29-.41-34.5A39.1,39.1,0,0,0,346.82,519.06Z"/><path class="cls-30" d="M80.4,571.66c13.78,18.63,37,27.94,59.65,23.26,33.89-7,60.49-32.39,73.06-76.26,10.77-37.61,3.17-72.47-14.56-96.11-16.1-21.46-44.62-29.08-69.6-19.27q-7.65,3-14.62,6.48a193,193,0,0,0-65.77,53.53A21.5,21.5,0,0,0,44.2,478.5a192.78,192.78,0,0,0,27.45,80.22c2.66,4.31,5.57,8.64,8.75,12.94"/><g class="cls-13"><path class="cls-8" d="M167.92,420.46c-3.63-7.16-16.79-9.9-33.85-4.95-22,6.38-61.6,37.12-56.11,43.08,8.58,9.33,93.59-31,90-38.13"/></g><g class="cls-32"><path class="cls-17" d="M53.57,520.39a191.49,191.49,0,0,0,18.09,38.33c.94,1.55,1.93,3.1,3,4.64.48.74,1,1.48,1.5,2.24,1,1.49,2,3,3.11,4.44.33.46.65.9,1,1.35l.2.27a.35.35,0,0,0,.08.1,59.4,59.4,0,0,0,59.57,23.16c25.42-5.26,46.75-20.87,61.12-46.87a68.32,68.32,0,0,1-10.51-1.91c-56.08-14.56-154-99.35-140.81-37.76.06.27.14.54.22.82.24.85.48,1.7.73,2.57.13.43.26.87.4,1.31s.25.88.4,1.32.19.62.29.94c.18.57.37,1.15.55,1.73s.4,1.23.62,1.85.32,1,.5,1.47"/></g><path class="cls-17" d="M153.34,595.65a92.55,92.55,0,0,1-12.42,3.47c-24,5-49.11-4.81-64-24.9h0c-3.14-4.25-6.16-8.7-9-13.24a196.3,196.3,0,0,1-28.06-82.06,25.65,25.65,0,0,1,5.23-18.25,196.35,196.35,0,0,1,67.27-54.76c4.88-2.42,9.91-4.65,14.95-6.63,26.91-10.55,57.55-2,74.6,20.7,19.88,26.49,25.59,63.83,15.26,99.86C206.22,558.31,183.77,584.78,153.34,595.65Zm-21.16-189c-.55.2-1.1.4-1.66.62-4.81,1.89-9.61,4-14.28,6.33A187.61,187.61,0,0,0,52,465.92a17.12,17.12,0,0,0-3.48,12.16,187.55,187.55,0,0,0,26.83,78.39c2.67,4.33,5.55,8.58,8.55,12.64h0c12.87,17.4,34.59,25.88,55.32,21.6,33.94-7,58.08-32.34,69.8-73.24,9.59-33.46,4.4-68-13.87-92.34C180.71,405.94,155.05,398.49,132.18,406.66Z"/><path class="cls-17" d="M279.6,674.35a3.29,3.29,0,0,1-1.09.19,3.22,3.22,0,0,1-1.73-5.95,3.28,3.28,0,0,1,3-.26,3.22,3.22,0,0,1-.13,6Z"/><path class="cls-30" d="M449.27,614.67c5.65,1,120.45,15.84,123.57,7,2-9.13-103.24-57.3-108.55-59.47S407.68,546,407.68,546h0a144.41,144.41,0,0,1-15,52.42h0s50.94,15.24,56.61,16.21"/><g class="cls-27"><path class="cls-8" d="M407,552.51c10.86,3,49.18,13.57,53.75,15.43s91.47,39.29,111.37,54.61a1.7,1.7,0,0,0,.75-.85c2-9.12-103.24-57.29-108.55-59.46S407.69,546,407.69,546h0c-.18,2.14-.41,4.3-.71,6.48"/></g><g class="cls-32"><path class="cls-17" d="M392.66,598.46s50.94,15.24,56.61,16.21,120.45,15.84,123.57,7a1.53,1.53,0,0,0-.09-.88c-24.31,1.3-114.52-17.48-119.48-18.33-5.12-.89-47.24-13.42-55.27-15.81-1.64,4.13-3.42,8-5.33,11.77Z"/></g><path class="cls-17" d="M572.06,626.13c-3.2,1.14-8.88,1.7-19.1,1.55s-24-1-41.25-2.62c-29.91-2.75-59.95-6.69-63-7.21h0c-5.79-1-54.89-15.68-57-16.31a3.2,3.2,0,0,1-2-1.77,3.24,3.24,0,0,1,0-2.69,141.33,141.33,0,0,0,14.72-51.32,3.14,3.14,0,0,1,.13-.68,3.24,3.24,0,0,1,3.94-2.17c2.1.58,51.52,14.12,57,16.34,2.84,1.17,30.42,13.73,57.25,27.23,15.45,7.78,27.69,14.38,36.38,19.63,15.09,9.1,17.6,12.87,16.85,16.29,0,.13-.07.26-.11.38C575.39,624.17,574.37,625.3,572.06,626.13ZM449.81,611.49c2.74.47,30.7,4.15,59.38,6.86,41.8,4,55.12,3,59.33,2.12-3.1-3-13.89-10.85-51.45-29.63-25.78-12.89-51.44-24.57-54-25.62-3.9-1.59-36.4-10.63-52.56-15.08a148.4,148.4,0,0,1-13.26,46.32c16.06,4.79,48.42,14.32,52.56,15Z"/><path class="cls-17" d="M464.19,573.5a32.85,32.85,0,0,0-4.72,6.63A53.48,53.48,0,0,0,454,594.85a32.15,32.15,0,0,0-.77,8.11,33.19,33.19,0,0,0,4.73-6.63,53.34,53.34,0,0,0,5.49-14.73,32.58,32.58,0,0,0,.78-8.1"/><path class="cls-8" d="M385.79,412.24a41.93,41.93,0,0,1-19.34-4.52,27.43,27.43,0,0,1-5.87.65,42.22,42.22,0,0,1-18.41-4.05c-4.92,20.05-11.67,40.51-14.48,48.76a4.18,4.18,0,0,0,2.85,5.38c10.4,2.94,34.45,5.4,43.32-1.6,7.7-6.08,14.05-31.82,16.88-45.08A28.13,28.13,0,0,1,385.79,412.24Z"/><path class="cls-5" d="M353.88,461.84a95.35,95.35,0,0,1-23.45-3,4.62,4.62,0,0,1-2.86-2.32,4.48,4.48,0,0,1-.28-3.62c2.7-7.94,9.53-28.59,14.47-48.73l.12-.51.48.23a41.38,41.38,0,0,0,18.22,4,27.17,27.17,0,0,0,5.78-.65l.15,0,.14.07a41.09,41.09,0,0,0,19.14,4.47,27.44,27.44,0,0,0,4.88-.45l.62-.12-.13.63c-3.06,14.32-9.34,39.25-17,45.33C369.77,460.64,362,461.84,353.88,461.84Zm-11.42-56.91c-4.93,20-11.68,40.4-14.37,48.29a3.75,3.75,0,0,0,2.57,4.83c10.84,3.06,34.47,5.17,42.94-1.52,7.63-6,14-32.45,16.59-44.23a27.67,27.67,0,0,1-4.4.36,42.11,42.11,0,0,1-19.4-4.49,28.05,28.05,0,0,1-5.81.63A42.44,42.44,0,0,1,342.46,404.93Z"/><path class="cls-6" d="M382.68,441.17c-2.59,7.11-5.58,13.14-8.82,15.69-8.87,7-32.92,4.54-43.32,1.6a4.18,4.18,0,0,1-2.85-5.38c1.47-4.33,4-12,6.85-21.25C334.54,431.83,364,421.48,382.68,441.17Z"/><g class="cls-7"><path class="cls-8" d="M332,455.93c1.47-4.33,4-12,6.85-21.25,0,0,19.69-6.9,37.07,1.31-18.34-12.47-42.06-4.16-42.06-4.16-2.82,9.23-5.38,16.92-6.85,21.25a4.18,4.18,0,0,0,2.85,5.38c.71.2,1.49.4,2.32.6A4.12,4.12,0,0,1,332,455.93Z"/></g><path class="cls-5" d="M342.89,458.76a23.3,23.3,0,0,1,.88-4.24c.39-1.39.92-2.74,1.44-4.1s1.09-2.7,1.7-4,1.25-2.66,2-4a.32.32,0,0,1,.6.15c0,1.5,0,3-.12,4.43s-.25,2.92-.43,4.36-.37,2.88-.68,4.29a22.72,22.72,0,0,1-1.24,4.15,2.16,2.16,0,0,1-4.14-1.05Z"/><path class="cls-5" d="M382.69,443.31a2.13,2.13,0,0,1-1.55-.66c-17.49-18.47-45.61-8.9-45.9-8.8a2.14,2.14,0,0,1-1.41-4c1.26-.44,31-10.57,50.41,9.9a2.13,2.13,0,0,1-1.55,3.6Z"/><path class="cls-5" d="M354.06,464.38a101.83,101.83,0,0,1-24.33-3,7.25,7.25,0,0,1-4.43-3.59,7.08,7.08,0,0,1-.44-5.63c2.84-8.34,10-29.94,14.9-50.55a3,3,0,1,1,5.81,1.39c-5,20.86-12.19,42.67-15.06,51.08a1.24,1.24,0,0,0,.07.94,1.3,1.3,0,0,0,.77.61c10.11,2.85,33,5,40.66-1.07,7.87-6.21,15.22-39.09,17.38-51.23a3,3,0,1,1,5.88,1c-.84,4.7-8.5,46.14-19.56,54.88C370.77,463.11,362.44,464.38,354.06,464.38Z"/><path class="cls-5" d="M331.34,346.84a17.37,17.37,0,0,0-3.22,5.9,12.75,12.75,0,0,0-.32,6,11.25,11.25,0,0,0,2.48,5.22,13.17,13.17,0,0,0,4.74,3.52l.07,0a3.19,3.19,0,0,1,1.64,4.2,3.23,3.23,0,0,1-1.23,1.42,12.34,12.34,0,0,0-2.7,2.23,10.61,10.61,0,0,0-1.87,2.89,9.81,9.81,0,0,0-.4,6.71,11,11,0,0,0,4,5.62,12.6,12.6,0,0,0,3.13,1.74,14.71,14.71,0,0,0,3.53.81,3,3,0,0,1,2.73,3v0a9.11,9.11,0,0,0,.57,3.07,9.28,9.28,0,0,0,1.66,2.77,13.12,13.12,0,0,0,1.17,1.19,15.1,15.1,0,0,0,1.37,1,12.13,12.13,0,0,0,3.14,1.45,16.26,16.26,0,0,0,1.7.43,17,17,0,0,0,1.75.19,13.92,13.92,0,0,0,3.53-.22,12.86,12.86,0,0,0,6.16-3,3,3,0,0,1,4.49.61v0a9.3,9.3,0,0,0,4,3.35,11.65,11.65,0,0,0,5.46,1,11.4,11.4,0,0,0,5.27-1.59,8.41,8.41,0,0,0,3.42-3.79l.06-.14a2.79,2.79,0,0,1,2.84-1.67,14.25,14.25,0,0,0,1.85,0,12.31,12.31,0,0,0,1.81-.35,11.22,11.22,0,0,0,3.36-1.48,12.53,12.53,0,0,0,2.73-2.46,11.8,11.8,0,0,0,1.83-3.19,11,11,0,0,0,.76-3.59,11.25,11.25,0,0,0-.38-3.66,11.79,11.79,0,0,0-4-6.08,3,3,0,0,1-.45-4.2,2.74,2.74,0,0,1,.45-.45l0,0a17.1,17.1,0,0,0,3.43-3.58,14.74,14.74,0,0,0,2.14-4.36,13.88,13.88,0,0,0,.5-2.37,16.19,16.19,0,0,0,.09-2.41,14.37,14.37,0,0,0-1.06-4.71,3,3,0,0,1,.26-2.75,18.12,18.12,0,0,0,2.81-10.72c0-.63-.1-1.25-.15-1.88s-.19-1.25-.37-1.85a17.34,17.34,0,0,0-1.25-3.52,15.85,15.85,0,0,0-2-3.11,13.21,13.21,0,0,0-5.64-4.2h0a3,3,0,0,1-1.71-3.86,1.6,1.6,0,0,1,.1-.23,14.64,14.64,0,0,0,1.48-6,15,15,0,0,0-1.11-6,14.64,14.64,0,0,0-3.51-5.05,14.83,14.83,0,0,0-5.25-3.19l-.05,0a3,3,0,0,1-1.89-3.44,21,21,0,0,0-.07-9.3,19.55,19.55,0,0,0-4.16-8.28c-.51-.59-1.08-1.12-1.61-1.69l-.87-.76a9.16,9.16,0,0,0-.89-.76c-.63-.44-1.19-1-1.86-1.38-.33-.2-.65-.43-1-.66s-.67-.38-1-.58-.67-.42-1-.59-.71-.35-1.06-.52c-.7-.42-1.45-.66-2.19-1a11.44,11.44,0,0,0-1.14-.48c-.38-.15-.77-.31-1.17-.49-.79-.32-1.62-.56-2.47-1l-.13-.07a1,1,0,0,1,.13-1.92,17.33,17.33,0,0,1,2.87-.66c.49,0,1-.07,1.48-.09a10.59,10.59,0,0,1,1.49,0,17.38,17.38,0,0,1,2.95.45c.49.13,1,.25,1.46.4a11.89,11.89,0,0,1,1.4.54,22.32,22.32,0,0,1,9.45,7.35,29.49,29.49,0,0,1,5.13,10.82,26.89,26.89,0,0,1,.09,11.94l-1.94-3.46A20.58,20.58,0,0,1,403.15,320a20.68,20.68,0,0,1-2.07,8.4l-1.66-4.11a19.31,19.31,0,0,1,8.24,6.06,20.83,20.83,0,0,1,2.67,4.26,22.72,22.72,0,0,1,1.68,4.7c.22.8.33,1.62.48,2.43s.2,1.64.21,2.47a23.28,23.28,0,0,1-.27,4.93,23.63,23.63,0,0,1-3.5,9.28l.26-2.74a20.3,20.3,0,0,1,1.49,6.65,21.78,21.78,0,0,1-.12,3.43,21.12,21.12,0,0,1-.71,3.36,20.74,20.74,0,0,1-3,6.1,23.13,23.13,0,0,1-4.63,4.84l0-4.68a17.81,17.81,0,0,1,6,9.18,17.85,17.85,0,0,1-.56,10.94,17.67,17.67,0,0,1-2.77,4.8A18.41,18.41,0,0,1,400.8,404a17.09,17.09,0,0,1-5.07,2.25,18.25,18.25,0,0,1-2.73.52,19.88,19.88,0,0,1-2.78.05l2.9-1.81a14.46,14.46,0,0,1-5.79,6.55,17.46,17.46,0,0,1-8.06,2.45,17.73,17.73,0,0,1-8.25-1.5,15.32,15.32,0,0,1-6.59-5.59l4.49.63a18.75,18.75,0,0,1-9,4.35,19.7,19.7,0,0,1-5,.32,20.68,20.68,0,0,1-2.48-.28,22.1,22.1,0,0,1-2.43-.6,18.12,18.12,0,0,1-4.57-2.13,16,16,0,0,1-3.88-3.36,14.86,14.86,0,0,1-3.65-9.77l2.72,3a20.58,20.58,0,0,1-5.12-1.18,18.25,18.25,0,0,1-4.63-2.56,17,17,0,0,1-6.1-8.68,16.46,16.46,0,0,1,.47-10.73,17.24,17.24,0,0,1,2.78-4.65,18.69,18.69,0,0,1,4-3.56l.48,5.66a17.89,17.89,0,0,1-7.25-5.4,16.16,16.16,0,0,1-3.43-8.47,14.43,14.43,0,0,1,1.93-8.74,13.18,13.18,0,0,1,6.37-5.54,1,1,0,0,1,1.18,1.59Z"/><g class="cls-9"><path class="cls-5" d="M385.79,412.24a45.06,45.06,0,0,1-7.52-.63c-3.25,13.86-8.86,33.49-15.45,38.69-7,5.54-23.51,5.15-35.25,3.3a4.18,4.18,0,0,0,3,4.86c10.4,2.94,34.45,5.4,43.32-1.6,7.7-6.08,14.05-31.82,16.88-45.08A28.13,28.13,0,0,1,385.79,412.24Z"/></g><g class="cls-13"><path class="cls-15" d="M418.74,279.2C417.69,299,386.8,320.66,306,316.38s-109.27-29.12-108.22-48.9c.39-7.34,4.63-10,6.11-10.54,1,.76,29.49,31.39,103.39,35.3s105.43-23.52,106.55-24.16C415.2,268.8,419.13,271.86,418.74,279.2Z"/></g><path class="cls-8" d="M321.93,95.75c-17.63-15.51-43.2-26-72.11-27.53-44.83-2.4-84,17.37-98.74,46.81a9.89,9.89,0,0,0,6.07,13.82c17.85,5.44,38.78,7.93,61.28,6.6C261.07,132.94,299.17,117.34,321.93,95.75Z"/><path class="cls-5" d="M216,136.05c-20.92,1-41.27-1.35-59-6.75a10.47,10.47,0,0,1-6.59-5.9,10.17,10.17,0,0,1,.24-8.58C166,84.31,205.82,65.4,249.84,67.75c28.14,1.51,53.85,11.32,72.4,27.65l.38.34-.37.35c-23.73,22.51-62.53,37.4-103.79,39.83Zm20.16-67.41c-38.09,1.78-71.14,19.6-84.68,46.6a9.21,9.21,0,0,0-.22,7.78,9.51,9.51,0,0,0,6,5.38c18.32,5.58,39.45,7.86,61.12,6.58,40.83-2.41,79.21-17.06,102.82-39.22-18.36-16-43.71-25.59-71.44-27.07C245.2,68.45,240.65,68.43,236.18,68.64Z"/><path class="cls-5" d="M216.15,138.87c-21.24,1-41.92-1.37-60-6.87a13.29,13.29,0,0,1-8.37-7.49,13,13,0,0,1,.31-11c15.8-31.5,56.74-51,101.87-48.63,28.76,1.54,55.08,11.6,74.1,28.34a3.31,3.31,0,0,1,1.12,2.42,3.26,3.26,0,0,1-1,2.45c-24.19,23-63.65,38.13-105.56,40.6Zm20.13-67.41c-37.07,1.73-69.17,19-82.26,45.05a6.34,6.34,0,0,0-.14,5.4,6.7,6.7,0,0,0,4.23,3.79c18,5.48,38.8,7.72,60.13,6.46,38.85-2.29,75.41-15.79,98.7-36.31-17.67-14.34-41.4-22.95-67.3-24.34Q242.88,71.15,236.28,71.46Z"/><path class="cls-40" d="M283.09,108c-11.79-6.85-28.75-11.65-47.81-12.67-29.54-1.58-55.07,6.39-64.43,18.81-1.73,2.3.3,5.15,4.17,6a177.75,177.75,0,0,0,40.43,3.58C243.49,123.14,268.38,116.94,283.09,108Z"/><path class="cls-5" d="M221,124c-1.83.08-3.67.15-5.52.18a179.25,179.25,0,0,1-40.54-3.59c-2.44-.53-4.34-1.88-4.95-3.54a3.25,3.25,0,0,1,.5-3.19c9.74-12.92,35.79-20.55,64.84-19,18.54,1,35.6,5.51,48,12.73l.68.4-.67.41C269,117.09,246,122.81,221,124Zm.62-28.25c-23,1.07-42.36,8-50.37,18.67a2.34,2.34,0,0,0-.38,2.3c.51,1.36,2.14,2.49,4.27,3a178.46,178.46,0,0,0,40.32,3.57C242,122.7,266.87,117,282.16,108c-12.23-6.92-28.85-11.24-46.91-12.21A135.3,135.3,0,0,0,221.6,95.73Z"/><g class="cls-33"><path class="cls-5" d="M300.14,108.89c-11.8-6.85-28.76-11.65-47.81-12.67-29.55-1.58-55.07,6.39-64.43,18.81-1.74,2.3.3,5.16,4.16,6a177.75,177.75,0,0,0,40.43,3.58C260.53,124.05,285.42,117.85,300.14,108.89Z"/></g><path class="cls-5" d="M221.07,126.36c-1.85.08-3.7.15-5.57.18a181.71,181.71,0,0,1-41.08-3.64c-3.28-.71-5.77-2.59-6.68-5a5.65,5.65,0,0,1,.83-5.46c10.19-13.52,37.06-21.53,66.86-19.94,18.92,1,36.35,5.65,49.1,13.05a2.87,2.87,0,0,1,.05,4.91C269.94,119.33,246.5,125.17,221.07,126.36Zm-48-10.47a3.61,3.61,0,0,0,2.53,1.43,176,176,0,0,0,39.77,3.52c24.06-.47,46.62-5.2,61.71-12.8-11.41-5.5-26.38-9.05-42-9.88-27.55-1.48-53,5.79-62,17.68Z"/><path class="cls-8" d="M311.9,95.21C331.08,81.67,357.62,74,386.53,75.53c44.83,2.4,81.65,26.23,93.19,57.08a9.89,9.89,0,0,1-7.51,13.09c-18.33,3.5-39.4,3.75-61.64,0C368.44,138.68,332.23,119.11,311.9,95.21Z"/><path class="cls-5" d="M450.46,148.69a190,190,0,0,1-40-2.5c-40.76-6.82-77.76-25.76-98.94-50.67l-.34-.39.42-.3c20.19-14.25,46.8-21.27,74.93-19.77,44,2.36,81.64,25.42,93.6,57.38a10.18,10.18,0,0,1-.67,8.55,10.46,10.46,0,0,1-7.19,5.17A154.27,154.27,0,0,1,450.46,148.69ZM312.6,95.3c21.1,24.55,57.71,43.21,98,50,21.41,3.58,42.66,3.57,61.47,0a9.53,9.53,0,0,0,6.54-4.71,9.19,9.19,0,0,0,.62-7.76C467.45,101.15,430.17,78.34,386.51,76,358.78,74.52,332.56,81.37,312.6,95.3Z"/><path class="cls-5" d="M450.59,151.51A192.21,192.21,0,0,1,410,149c-41.41-6.93-79-26.23-100.64-51.63a3.32,3.32,0,0,1,.61-4.83c20.7-14.62,47.94-21.82,76.71-20.28,45.13,2.41,83.75,26.21,96.1,59.21a13,13,0,0,1-.86,10.93,13.31,13.31,0,0,1-9.12,6.56A156.66,156.66,0,0,1,450.59,151.51ZM316.86,95.84c21,22.89,55.87,40.21,94.26,46.64,21.08,3.52,42,3.52,60.47,0a6.7,6.7,0,0,0,4.61-3.31,6.31,6.31,0,0,0,.43-5.39c-11.44-30.58-47.72-52.66-90.27-54.94C360.47,77.44,336,83.47,316.86,95.84Z"/><path class="cls-40" d="M349.21,111.52C361.67,106,379.05,103,398.1,104c29.55,1.58,54.08,12.23,62.06,25.57,1.48,2.47-.85,5.1-4.78,5.51a177.24,177.24,0,0,1-40.58-.75C387,130.82,362.89,122,349.21,111.52Z"/><path class="cls-5" d="M446.86,136.22a188.54,188.54,0,0,1-32.12-1.4c-26.94-3.42-51.54-12-65.82-22.93l-.62-.48.72-.32c13.12-5.86,30.56-8.53,49.11-7.54,29,1.55,54.13,11.92,62.43,25.8a3.28,3.28,0,0,1,.17,3.23c-.79,1.58-2.83,2.73-5.31,3C452.65,135.86,449.78,136.08,446.86,136.22Zm-96.72-24.6c14.23,10.61,38.34,18.91,64.71,22.27a178.55,178.55,0,0,0,40.48.74c2.16-.23,3.91-1.17,4.55-2.47a2.32,2.32,0,0,0-.13-2.33c-8.14-13.62-32.93-23.81-61.67-25.34C380,103.52,363,106.05,350.14,111.62Z"/><g class="cls-33"><path class="cls-5" d="M331.76,110.58c12.46-5.55,29.84-8.51,48.89-7.5,29.54,1.58,54.08,12.23,62.06,25.58,1.48,2.47-.85,5.09-4.79,5.51a178.4,178.4,0,0,1-40.58-.75C369.52,129.88,345.44,121.06,331.76,110.58Z"/></g><path class="cls-5" d="M447,138.59a190.24,190.24,0,0,1-32.53-1.41c-27.34-3.47-52.37-12.22-67-23.4a2.85,2.85,0,0,1,.57-4.87c13.46-6,31.29-8.75,50.2-7.74,29.8,1.59,55.67,12.43,64.36,27a5.64,5.64,0,0,1,.25,5.51c-1.17,2.34-3.85,3.94-7.18,4.3Q451.44,138.39,447,138.59Zm-91.81-26.38c14.2,9.17,36.13,16.28,60,19.31a176,176,0,0,0,39.92.75,3.65,3.65,0,0,0,2.67-1.15.09.09,0,0,0,0-.06c-7.64-12.77-32.21-22.72-59.76-24.2C382.36,106,367.09,108,355.16,112.21Z"/><path class="cls-11" d="M432.46,221.15c-8.61,9.35-14.8-2.33-14.8-2.33a126,126,0,0,0-2-20.85s-23.06-8.14-17.44-33.39h0c-24.49-1.69-24.82-26.86-24.82-26.86-30.77,4.67-33.16-16.37-33.16-16.37a43.24,43.24,0,0,1-20.54,7.4,27.85,27.85,0,0,1-22-7.09h0c-20.2,24-44.61,5.35-44.61,5.35,7.06,20.31-25.39,25.71-25.39,25.71,6.6,21.3-15.18,32.76-15.18,32.76,2,7.64-4.76,13-4.76,13a80.92,80.92,0,0,0-3.3,14.59,11.64,11.64,0,0,1-2.84.2c-6.81-.36-12-6.56-11.62-13.83A13.5,13.5,0,0,1,195.68,189,26.1,26.1,0,0,1,204,143.5a25.15,25.15,0,0,1,20.07-33s-2.24-14.37,7-23.94S250.24,78,250.24,78s4.44-16.34,17.47-20.22,23.93,3.41,23.93,3.41,12-9.73,26-8.49a39.88,39.88,0,0,1,23,10.6s33.78-8.57,41,21.94c0,0,30.17,4.25,22.52,33.14,0,0,30.9,4.32,19,36.14,0,0,23.87,17.86,5.89,42.12C429.09,196.65,439.43,213.59,432.46,221.15Z"/><g class="cls-9"><path class="cls-5" d="M433.85,188.22c-.16-.88-.34-1.76-.52-2.66,0,0-26.83-8.34-20.53-33.55h0c-28.42-1.9-29-27.09-29-27.09-35.66,4.41-35-14.23-35-14.23-5.31,3.21-17.74,5.66-28.42,6.57-11.41,1-25-3.59-30.72-8-23.24,23.79-45.48,3.9-45.48,3.9,8.36,20.39-29.24,25.51-29.24,25.51,7.84,21.37-17.33,32.65-17.33,32.65,2.43,7.65-5.41,12.93-5.41,12.93-.12.35-.22.68-.34,1a27.23,27.23,0,0,0,3.86,3.73,13.43,13.43,0,0,0-5.5,8.92,12.45,12.45,0,0,0,11.19,9.61,11.25,11.25,0,0,0,2.85-.21,80.1,80.1,0,0,1,3.29-14.58s6.8-5.34,4.76-13c0,0,15.3-8,16.37-23.19a28.19,28.19,0,0,0-.92-3.88s.74-.12,2-.4c-.43.1-.8.18-1.1.23a28.12,28.12,0,0,0-1.12-5.53s24-4,26.23-18a18.06,18.06,0,0,0-.58-2s.26.19.73.5a16.67,16.67,0,0,0-1-6.2s24.4,18.61,44.61-5.34v0a27.77,27.77,0,0,0,22,7.09,43,43,0,0,0,20.54-7.4s2.39,21,33.17,16.38c0,0,.32,25.17,24.81,26.86h0a36.88,36.88,0,0,0-.81,5.57c.36,0,.71.09,1.08.11h0a36.2,36.2,0,0,0-.84,6.14c2.39,16,18,21.56,18,21.56a129.25,129.25,0,0,1,1.95,19.13h0q.28,3.84.3,7.42s6.19,11.68,14.8,2.33c7-7.56-3.37-24.5-3.37-24.5A36.4,36.4,0,0,0,433.85,188.22Z"/></g><path class="cls-8" d="M381.93,85.29l-1.82,1c-11.37-18.44-37-11.94-37-11.94a39.93,39.93,0,0,0-23.05-10.6c-14-1.25-26,8.49-26,8.49s-10.9-7.3-23.93-3.42S252.7,89.05,252.7,89.05s-10-1-19.24,8.59a26.06,26.06,0,0,0-6.59,13.46l-2.83-.56s-2.24-14.37,7-23.94S250.24,78,250.24,78s4.44-16.34,17.47-20.22,23.93,3.41,23.93,3.41,12-9.73,26-8.49a39.88,39.88,0,0,1,23,10.6s33.78-8.57,41,21.94Z"/><path class="cls-5" d="M426.24,228.07a10.8,10.8,0,0,1-1.7-.07c-6-.78-9.42-6.93-9.79-7.63a3.41,3.41,0,0,1-.39-1.53,120.67,120.67,0,0,0-1.63-18.57c-5.5-2.63-21.13-12.05-18.35-32.84-16.53-2.83-22.64-16.51-24-26-10.42,1-18.75-.8-24.8-5.44a22.92,22.92,0,0,1-7.3-9.53A47.82,47.82,0,0,1,320.06,132a31,31,0,0,1-22-5.84c-15,15.61-31.81,11.23-40.69,7.08a16.58,16.58,0,0,1-2.36,7.88c-5.11,8.59-17.28,12.59-23.31,14.09,3,15.63-7.72,27-15.57,32,.56,6.58-3.66,11.37-5.52,13.13a76.73,76.73,0,0,0-2.9,13.13,3.27,3.27,0,0,1-2.63,2.83,14.51,14.51,0,0,1-3.66.26c-8.6-.46-15.21-8.22-14.73-17.3a17.15,17.15,0,0,1,4.05-10.18A29.38,29.38,0,0,1,200,141.47a28.46,28.46,0,0,1,20.53-33.56c-.18-5.19.53-15.72,8.11-23.59,7.32-7.62,15.19-9.27,19.22-9.57,1.89-5.08,7.37-16.68,18.92-20.12,11-3.29,20.6.55,24.65,2.65,4.12-2.82,14.55-8.92,26.5-7.85a43.18,43.18,0,0,1,23.74,10.31c4.79-.89,18.14-2.51,29.13,4.16,6.59,4,11.14,10.22,13.53,18.52,4.45,1,14.54,4.25,20.28,12.9,3.79,5.71,5,12.62,3.5,20.58,4.72,1.32,13.08,4.67,17.77,12.53,4,6.76,4.42,15.19,1.18,25.08,5.51,5.12,20.35,21.92,5.94,43.33,2.8,5.19,9,18.82,1.89,26.55C432.14,226.36,429.24,227.93,426.24,228.07ZM421,217.9c.83,1.25,2.57,3.33,4.45,3.56,1.36.17,2.92-.68,4.63-2.54h0c4.3-4.66-1.41-16.7-3.76-20.55a3.31,3.31,0,0,1,.17-3.68c15.77-21.28-4.36-36.88-5.22-37.53a3.29,3.29,0,0,1-1.11-3.78c3.3-8.85,3.34-16.1.12-21.54-5-8.42-16.41-10.17-16.53-10.18a3.31,3.31,0,0,1-2.72-4.11c2-7.46,1.35-13.7-1.85-18.55-5.69-8.62-17.82-10.47-17.95-10.49A3.32,3.32,0,0,1,378.44,86c-1.78-7.55-5.5-13.09-11.07-16.47-11-6.69-25.74-3.06-25.89-3a3.33,3.33,0,0,1-3.17-.9c-.08-.08-8.46-8.49-21-9.61s-23.51,7.68-23.62,7.77a3.3,3.3,0,0,1-3.9.17c-.09-.06-9.85-6.36-21.16-3-11.14,3.32-15.19,17.79-15.23,17.94a3.3,3.3,0,0,1-3.51,2.41c-.32,0-8.63-.62-16.53,7.6s-6.1,21-6.08,21.15a3.3,3.3,0,0,1-2.77,3.76A21.93,21.93,0,0,0,206,134.25a21.59,21.59,0,0,0,1.12,8.19,3.32,3.32,0,0,1-2.15,4.21,22.8,22.8,0,0,0-7.23,39.77,3.27,3.27,0,0,1,1.27,2.69,3.33,3.33,0,0,1-1.41,2.61,10.26,10.26,0,0,0-4.26,7.87c-.28,5.36,3.42,10,8.29,10.35a87,87,0,0,1,3-12.49,3.28,3.28,0,0,1,1.1-1.59c.19-.15,5-4.14,3.61-9.53a3.3,3.3,0,0,1,1.65-3.76c.79-.42,19.27-10.5,13.57-28.88a3.3,3.3,0,0,1,2.61-4.22c4.71-.79,17.9-4.44,22.2-11.71,1.69-2.85,1.89-6,.62-9.67a3.29,3.29,0,0,1,5.11-3.7c.89.67,22.15,16.31,40-4.77a3.32,3.32,0,0,1,4.78-.44,24.43,24.43,0,0,0,19.46,6.28,39.86,39.86,0,0,0,19-6.82,3.29,3.29,0,0,1,5.17,2.32,16,16,0,0,0,6.2,9.86c5.24,4,13,5.18,23.2,3.64a3.27,3.27,0,0,1,2.63.74,3.32,3.32,0,0,1,1.16,2.47c0,.9.65,22.16,21.75,23.61a3.3,3.3,0,0,1,3.06,3.51,4.18,4.18,0,0,1-.07.51c-4.94,22.14,14.49,29.27,15.32,29.57a3.27,3.27,0,0,1,2.15,2.54A131.46,131.46,0,0,1,421,217.9Z"/><path class="cls-8" d="M309.4,284.68c-54.77-2.92-111.17-21-104.92-71.64a80.92,80.92,0,0,1,3.3-14.59s6.79-5.33,4.76-13c0,0,21.78-11.46,15.18-32.76,0,0,32.45-5.4,25.39-25.71,0,0,24.41,18.6,44.61-5.35h0a27.85,27.85,0,0,0,22,7.09,43.24,43.24,0,0,0,20.54-7.4s2.39,21,33.16,16.37c0,0,.33,25.17,24.82,26.86h0C392.62,189.83,415.68,198,415.68,198a126,126,0,0,1,2,20.85C418,279.32,363.44,287.57,309.4,284.68Z"/><path class="cls-5" d="M338.49,285.39q-13.29.62-29.12-.24c-26.11-1.39-73.12-7.57-94.61-33.22-9-10.73-12.61-23.84-10.74-39a81.09,81.09,0,0,1,3.31-14.67l0-.14.12-.09c.06-.05,6.52-5.24,4.59-12.47l-.09-.37.33-.17c.21-.11,21.36-11.53,15-32.21l-.16-.52.53-.09c.19,0,18.29-3.14,24.17-13,2.11-3.56,2.4-7.61.86-12.05l-.51-1.47,1.24.94A38.59,38.59,0,0,0,268,132.86c11.21,2.14,21.07-1.69,29.3-11.38l0-.82.75.64a27.21,27.21,0,0,0,21.63,7A42.62,42.62,0,0,0,340,121l.64-.45.1.78A19,19,0,0,0,347.92,133c5.88,4.49,14.43,5.92,25.43,4.25l.54-.08v.54c0,1,.62,24.76,24.38,26.39l.47,0,0,.55c-5.47,24.53,16.22,32.51,17.14,32.84l.26.09,0,.27a127.1,127.1,0,0,1,2,20.93c.1,19.59-5.63,35-17,45.9C387.92,277.28,367.69,284,338.49,285.39Zm-29.07-1.18c45.13,2.42,74.05-4,91-20.17,11.22-10.69,16.85-25.9,16.75-45.21a126,126,0,0,0-1.92-20.51c-2.55-1-22.52-9.82-17.6-33.32-22.13-1.86-24.46-23.08-24.69-26.74-11,1.58-19.65.06-25.65-4.53a19.92,19.92,0,0,1-7.41-11.59,43.72,43.72,0,0,1-20.15,7.06,28,28,0,0,1-22-6.88c-7.41,8.62-15.41,11.62-22.57,12-9.95.47-18.3-4.22-21.24-6.11a14.36,14.36,0,0,1-1.35,11.53c-5.6,9.42-21.17,12.81-24.3,13.4,5.73,19.67-12.55,31.07-15.24,32.63,1.66,7.09-4,12.25-4.89,13A80.12,80.12,0,0,0,205,213.1c-1.83,14.84,1.71,27.7,10.53,38.23C236.74,276.71,283.46,282.83,309.42,284.21Z"/><g class="cls-9"><path class="cls-5" d="M309.13,279c53.11,2.84,106.69-5.09,108.23-62.77v-.09c-8.35,46.69-57.88,53.3-107,50.67-49.73-2.66-100.81-17.81-105.09-58.51-.31,1.61-.59,3.2-.78,4.75a64.39,64.39,0,0,0-.47,7.2C208.12,261.11,259.3,276.32,309.13,279Z"/></g><path class="cls-5" d="M338.57,288.21c-9,.42-18.71.33-29.35-.24-26.57-1.42-74.45-7.75-96.63-34.22-9.51-11.36-13.34-25.19-11.38-41.11a84.12,84.12,0,0,1,3.43-15.19,3.28,3.28,0,0,1,1.1-1.59c.19-.15,5-4.14,3.61-9.53a3.3,3.3,0,0,1,1.65-3.76c.79-.42,19.27-10.5,13.57-28.88a3.3,3.3,0,0,1,2.61-4.22c4.71-.79,17.9-4.44,22.2-11.71,1.69-2.85,1.89-6,.62-9.67a3.29,3.29,0,0,1,5.11-3.7c.89.67,22.14,16.31,40-4.77a3.32,3.32,0,0,1,4.78-.44,24.43,24.43,0,0,0,19.46,6.28,39.86,39.86,0,0,0,19-6.82,3.29,3.29,0,0,1,5.17,2.32,16,16,0,0,0,6.2,9.86c5.24,4,13,5.18,23.2,3.64a3.27,3.27,0,0,1,2.63.74,3.32,3.32,0,0,1,1.16,2.47c0,.9.65,22.16,21.75,23.61a3.3,3.3,0,0,1,3.06,3.51,4.18,4.18,0,0,1-.07.51c-4.91,22,14.5,29.27,15.33,29.57a3.29,3.29,0,0,1,2.14,2.54,128.44,128.44,0,0,1,2,21.4c.11,20.39-5.91,36.53-17.91,48C389.35,279.81,368.52,286.81,338.57,288.21Zm-29-6.82c44.3,2.37,72.55-3.79,88.92-19.39,10.78-10.27,16-24.39,15.87-43.16a120.67,120.67,0,0,0-1.63-18.57c-5.5-2.63-21.13-12.05-18.35-32.84-16.53-2.83-22.64-16.51-24-26-10.42,1-18.75-.8-24.8-5.44a22.92,22.92,0,0,1-7.3-9.53A47.82,47.82,0,0,1,320.06,132a31,31,0,0,1-22-5.84c-15,15.61-31.81,11.23-40.69,7.08a16.58,16.58,0,0,1-2.36,7.88c-5.11,8.59-17.28,12.59-23.31,14.09,3,15.63-7.72,27-15.57,32,.56,6.58-3.66,11.37-5.52,13.13a76.73,76.73,0,0,0-2.9,13.13c-1.73,14,1.6,26.17,9.9,36.07,20.57,24.56,66.42,30.52,91.92,31.88Z"/><path class="cls-5" d="M204.65,216.33h-.29a3.28,3.28,0,1,1,.29,0Z"/><path class="cls-5" d="M401.85,168h-.1c-1.34,0-2.6,0-3.76-.09a3.29,3.29,0,1,1,.5-6.57c.95.07,2,.09,3.14.07a3.3,3.3,0,0,1,.22,6.59Z"/><path class="cls-5" d="M338.61,119a8.79,8.79,0,0,1,2-1.88c.75-.53,1.57-1,2.4-1.46l2.53-1.46c.88-.49,1.77-1,2.72-1.53l0,0a.45.45,0,0,1,.66.43,11.51,11.51,0,0,1-.82,3.29,17.88,17.88,0,0,1-1.52,3,14.08,14.08,0,0,1-2,2.56,8,8,0,0,1-2.72,1.78,3,3,0,0,1-3.41-4.5Z"/><path class="cls-5" d="M295.84,123.79a9.32,9.32,0,0,1-2.78-2.36,15.53,15.53,0,0,1-2-3.09,20.71,20.71,0,0,1-1.34-3.4,14.38,14.38,0,0,1-.61-3.67.45.45,0,0,1,.44-.45.47.47,0,0,1,.28.09l0,0c1,.73,1.85,1.47,2.73,2.17l2.55,2.07c.83.68,1.66,1.32,2.41,2a11.91,11.91,0,0,1,2,2.32l.11.18a2.92,2.92,0,0,1-3.88,4.1Z"/><ellipse class="cls-41" cx="251.06" cy="226.79" rx="9.98" ry="15.16" transform="translate(11.18 465.38) rotate(-86.94)"/><ellipse class="cls-41" cx="374.64" cy="233.4" rx="9.98" ry="15.16" transform="translate(121.57 595.04) rotate(-86.94)"/><path class="cls-30" d="M344.36,731.2a5.85,5.85,0,1,1,8-1.94A5.73,5.73,0,0,1,344.36,731.2Zm5.15-8.38a4,4,0,1,0,1.49,5.6A4,4,0,0,0,349.51,722.82Z"/><path class="cls-30" d="M360.36,716l-1.11,1.8-3.35.21a5.59,5.59,0,0,1-.38.72l-.59.95,2.3,1.41-.93,1.52-9.65-5.92,1.52-2.47c1.63-2.66,4-3.22,6.21-1.85a3.91,3.91,0,0,1,2,3.91Zm-6.18,2c1.14-1.86.72-3.15-.75-4.06s-2.82-.67-3.95,1.17l-.55.9,4.7,2.88Z"/><path class="cls-30" d="M356.21,711.91a5.84,5.84,0,1,1,8-1.94A5.72,5.72,0,0,1,356.21,711.91Zm5.15-8.38a4,4,0,1,0,1.48,5.6A4,4,0,0,0,361.36,703.53Z"/><path class="cls-30" d="M358.34,697.63l2.09-3.42c1.19-1.93,2.83-2.15,4.21-1.31a2.32,2.32,0,0,1,1.11,2.29,2.84,2.84,0,0,1,3.58-.35c1.63,1,2.27,2.82.91,5L368,703.55Zm5.83-1c.65-1,.38-1.7-.41-2.19s-1.42-.4-2.07.67l-1.13,1.83,2.49,1.52Zm4.71,2.54c.82-1.33.43-2.2-.56-2.81s-2-.48-2.82.84l-1.23,2,3.33,2Z"/><path class="cls-30" d="M363.47,689.27l.93-1.52,9.65,5.92-.93,1.52Z"/><path class="cls-30" d="M365.46,686l1.05-1.72,4.24,0-1.87-3.8,1-1.61s2.64,5.37,2.64,5.39l7.4-.1-1,1.71-5.51.08,2.43,5-1,1.6-3.2-6.52S365.46,686,365.46,686Z"/><path class="cls-30" d="M351.19,704.09l-1.26,2.06a1.81,1.81,0,0,0,2.48-.6l1.26-2A1.81,1.81,0,0,0,351.19,704.09Z"/><path class="cls-30" d="M350.56,704.24l-1.26,2a1.81,1.81,0,0,0,2.49-.59l1.26-2.05A1.81,1.81,0,0,0,350.56,704.24Z"/><path class="cls-30" d="M349.94,704.39l-1.26,2.05a1.81,1.81,0,0,0,2.49-.59l1.26-2.05A1.81,1.81,0,0,0,349.94,704.39Z"/><path class="cls-42" d="M609.87,79.05h14.76v1.34H611.4V93.91h11.85v1.34H611.4V103h13.75v1.34H609.87Z"/><path class="cls-42" d="M635.33,91.68a12.6,12.6,0,0,1,12.94-12.93c4.42,0,7.92,1.71,10,4.79l-1.15.86a10.36,10.36,0,0,0-8.88-4.27,11.56,11.56,0,0,0,0,23.11,10.87,10.87,0,0,0,9.18-4.49l1.15.81a12.15,12.15,0,0,1-10.33,5.06A12.6,12.6,0,0,1,635.33,91.68Z"/><path class="cls-42" d="M670.09,79.05h1.52V103h12.15v1.34H670.09Z"/><path class="cls-42" d="M695,79.05h14.75v1.34H696.51V93.91h11.86v1.34H696.51V103h13.75v1.34H695Z"/><path class="cls-42" d="M720.45,91.68a12.6,12.6,0,0,1,12.93-12.93c4.43,0,7.92,1.71,10,4.79l-1.15.86a10.37,10.37,0,0,0-8.89-4.27,11.56,11.56,0,0,0,0,23.11,10.84,10.84,0,0,0,9.18-4.49l1.16.81a12.16,12.16,0,0,1-10.34,5.06A12.6,12.6,0,0,1,720.45,91.68Z"/><path class="cls-42" d="M760.25,80.39h-8V79.05h17.58v1.34h-8v23.93h-1.53Z"/><path class="cls-42" d="M780.88,79.05h1.53v25.27h-1.53Z"/><path class="cls-42" d="M794.37,91.68a12.6,12.6,0,0,1,12.94-12.93c4.42,0,7.92,1.71,10,4.79l-1.15.86a10.36,10.36,0,0,0-8.88-4.27,11.56,11.56,0,0,0,0,23.11,10.87,10.87,0,0,0,9.18-4.49l1.15.81a12.15,12.15,0,0,1-10.33,5.06A12.6,12.6,0,0,1,794.37,91.68Z"/><path class="cls-42" d="M841.61,99.56l1.3-.63a7.43,7.43,0,0,0,7.14,4.35c3.31,0,6-1.93,6-5.13,0-2.93-1.63-4.53-5.16-6.17l-2.35-1.08c-3.53-1.63-5.27-3.3-5.27-6.5,0-3.49,2.78-5.65,6.2-5.65A7.19,7.19,0,0,1,856,82.39l-1.19.78a5.76,5.76,0,0,0-5.28-3.08c-3,0-4.72,1.71-4.72,4.27s1.27,3.76,4.39,5.21l2.34,1.07c4.09,1.86,6.06,4,6.06,7.51,0,3.94-3.12,6.47-7.47,6.47C845.29,104.62,842.84,102.09,841.61,99.56Z"/><path class="cls-42" d="M869.53,79.05h1.52V93.91h14.72V79.05h1.52v25.27h-1.52v-9H871.05v9h-1.52Z"/><path class="cls-42" d="M900.82,79.05h14.76v1.34H902.35V93.91H914.2v1.34H902.35V103H916.1v1.34H900.82Z"/><path class="cls-42" d="M928,79.05h14.76v1.34H929.52V93.91h11.85v1.34H929.52V103h13.75v1.34H928Z"/><path class="cls-42" d="M955.16,79.05h5.17c6.84,0,10,3.9,10,9.4,0,5.32-3.16,9.37-10,9.37h-3.64v6.5h-1.53Zm5,17.43c6.35,0,8.58-3.57,8.58-8s-2.23-8.06-8.58-8.06h-3.49V96.48Z"/><text class="cls-43" transform="translate(768.66 578.54)">DI<tspan class="cls-44" x="33.62" y="0">S</tspan><tspan x="51.79" y="0">TRIBUTED</tspan><tspan x="-70.62" y="37.62">REINFORCEMENT</tspan><tspan x="41.69" y="75.23">LEARNING</tspan></text><path class="cls-17" d="M305.81,319.23c-83.87-4.45-112.32-30.75-111.2-51.92.51-9.62,6.74-12.51,8-13a3.41,3.41,0,0,1,3.2.4,9.09,9.09,0,0,1,.72.64c7.58,7.13,37.23,30.66,100.88,34S403,272.51,411.3,266.22c.43-.32.7-.5.8-.56a3.43,3.43,0,0,1,3.22-.07c1.18.62,7.06,4.15,6.55,13.77C420.75,300.53,389.68,323.67,305.81,319.23ZM203.53,260.68c-1.12,1.1-2.46,3.19-2.66,7-1.06,20,31.07,41.95,105.24,45.88S414.55,299,415.61,279c.2-3.77-.91-6-1.9-7.21-10.83,7.66-44.28,26.58-106.62,23.28S213.49,269.45,203.53,260.68Z"/><ellipse class="cls-5" cx="360.81" cy="187.3" rx="13.88" ry="12" transform="translate(172.72 547.7) rotate(-89.88)"/><ellipse class="cls-5" cx="265.83" cy="176.28" rx="13.88" ry="12" transform="translate(88.97 441.72) rotate(-89.88)"/><ellipse class="cls-8" cx="271.7" cy="175.17" rx="5.3" ry="3.45" transform="translate(27.73 387.27) rotate(-73.81)"/><g class="cls-45"><ellipse class="cls-8" cx="260.3" cy="181.63" rx="2.58" ry="4.47" transform="translate(-52.03 125.13) rotate(-24.65)"/></g><g class="cls-45"><path class="cls-8" d="M367.27,195.23c1.24-2.14,1.24-4.46,0-5.17s-3.24.45-4.47,2.59-1.24,4.45,0,5.16S366,197.37,367.27,195.23Z"/></g><ellipse class="cls-8" cx="355.63" cy="186.41" rx="3.71" ry="5.7" transform="matrix(0.99, -0.13, 0.13, 0.99, -21.88, 49.64)"/><path class="cls-5" d="M245.93,161.69c1.32-5.78,8.4-8,13.67-6.85a23.53,23.53,0,0,1,3.54,1l1.65.72a14.11,14.11,0,0,1,1.61.79c5.89,3.16,10.86,7.86,15.29,12.72,1.78,2,4.38.56,6-1a15.33,15.33,0,0,1,2.9-1.89,5.14,5.14,0,0,1-.9,3.69c-1.6,2.15-4.61,3.74-7.35,3.07a7,7,0,0,1-3.57-2.24,87.77,87.77,0,0,0-9.94-8.72,37.12,37.12,0,0,0-6.9-4.07A16.17,16.17,0,0,0,256,157.6l-1.48.09-1.44.33c-2.59.89-4.25,2.39-7.12,3.67Z"/><path class="cls-5" d="M265.65,192l-.7,0a13,13,0,0,1-9.62-5.26,17.32,17.32,0,0,1,1.23-22,12.76,12.76,0,0,1,19.77,1.11,17.34,17.34,0,0,1-1.24,22A13.07,13.07,0,0,1,265.65,192Zm.36-27.75a9.42,9.42,0,0,0-6.76,3,13.58,13.58,0,0,0-1,17.16,9,9,0,0,0,14.11.79,13.06,13.06,0,0,0,3.54-8.41h0a13.12,13.12,0,0,0-2.57-8.75,9.32,9.32,0,0,0-6.87-3.8Z"/><path class="cls-5" d="M381.52,173.9c-2.4-.65-3.5-1.85-5.33-3.08-.56-.25-1.09-.56-1.65-.78l-1.39-.41-1.44-.18a16.68,16.68,0,0,0-5.92.93c-6.93,2.61-12.67,7.36-18.25,12.2a6.2,6.2,0,0,1-7.32.61c-2.28-1.36-4.27-3.56-3.59-6.4,2.87,1.25,4,4.61,7.26,4.13a4.14,4.14,0,0,0,2-1.36,70.22,70.22,0,0,1,10.71-8.79c5.54-3.55,12.62-6.5,19.15-3.81a14.74,14.74,0,0,1,2.51,1.42c1.88,1.27,3.36,3.05,3.24,5.52Z"/><path class="cls-5" d="M360.8,203.05h0c-7.64,0-13.85-7.09-13.83-15.78s6.24-15.72,13.88-15.72h0c7.65,0,13.85,7.1,13.83,15.78a16.74,16.74,0,0,1-4,11A13,13,0,0,1,360.8,203.05Zm0-27.76c-5.57,0-10.12,5.38-10.13,12h0c0,6.62,4.52,12,10.1,12h0a9.35,9.35,0,0,0,7.06-3.4,13.11,13.11,0,0,0,3.08-8.59c0-6.62-4.52-12-10.11-12Z"/><path class="cls-5" d="M315.45,225.23l-.54,10.1v.17a3,3,0,0,1-1.91,2.65l-7.87,3.07a15.44,15.44,0,0,1-12.15-.6,15.79,15.79,0,0,1-2.06-1.23,24.25,24.25,0,0,1-3.51-2.9,17.5,17.5,0,0,1-4.62-7.87,1.45,1.45,0,0,1,2.75-.88v0a14.21,14.21,0,0,0,4.44,5.91,21.12,21.12,0,0,0,3.17,2.08,12,12,0,0,0,1.62.73,10.48,10.48,0,0,0,8.15-.48l7.33-3.85L308.32,235l.54-10.09a3.3,3.3,0,0,1,6.59.35Z"/><path class="cls-5" d="M315.45,225.23l-.54,10.1-1.61-3,6.87,4.6a10.24,10.24,0,0,0,6.36,1.61,10.79,10.79,0,0,0,1.69-.26,12.28,12.28,0,0,0,1.69-.55,20.74,20.74,0,0,0,3.38-1.74,14.06,14.06,0,0,0,5-5.4h0a1.45,1.45,0,0,1,2-.64,1.46,1.46,0,0,1,.7,1.8,17.39,17.39,0,0,1-5.45,7.33,24.46,24.46,0,0,1-3.79,2.52,16.88,16.88,0,0,1-2.18,1,14.83,14.83,0,0,1-2.37.65,15.5,15.5,0,0,1-9.77-1.35l-7.5-3.9a3,3,0,0,1-1.62-2.83V235l.54-10.09a3.3,3.3,0,0,1,6.59.35Z"/><path class="cls-5" d="M312.31,228.35a3.25,3.25,0,0,1-1.8-.44l-8.05-4.62c-12.69-.36-13.35-7.06-13.36-8.43a5.76,5.76,0,0,1,5.6-5.84c4.29,0,8.82,5.51,10.95,8.5l8.15,4.68a3.3,3.3,0,0,1-1.49,6.15Z"/><path class="cls-5" d="M312.31,228.35a3.3,3.3,0,0,1-1.48-6.31l8.6-3.79c2.44-2.74,7.53-7.76,11.79-7.27a5.74,5.74,0,0,1,4.94,6.4c-.15,1.36-1.53,8-14.18,7l-8.5,3.74A3.28,3.28,0,0,1,312.31,228.35Z"/><path class="cls-46" d="M824.64,695.92h-3.52v-1.66H825l1.51-6.06h-3.9v-1.66h4.3l1.41-5.62h1.76l-1.41,5.62h5.42l1.42-5.62h1.76l-1.42,5.62h3.57v1.66h-4L834,694.26h3.91v1.66h-4.35l-1.32,5.42h-1.8l1.36-5.42h-5.42L825,701.34h-1.76Zm7.57-1.66,1.52-6.06H828.3l-1.51,6.06Z"/><path class="cls-47" d="M846.71,697.31l1-.51a5.94,5.94,0,0,0,5.7,3.48c2.64,0,4.81-1.55,4.81-4.1,0-2.35-1.3-3.62-4.13-4.93l-1.87-.86c-2.82-1.31-4.21-2.65-4.21-5.2,0-2.79,2.22-4.51,5-4.51a5.72,5.72,0,0,1,5.16,2.91l-.95.62a4.59,4.59,0,0,0-4.21-2.46c-2.38,0-3.77,1.36-3.77,3.41s1,3,3.5,4.16l1.87.86c3.27,1.48,4.84,3.21,4.84,6,0,3.15-2.49,5.16-6,5.16A7,7,0,0,1,846.71,697.31Z"/><path class="cls-47" d="M866.73,679.67h1.15v11.91a4.92,4.92,0,0,1,4.61-2.86c2.7,0,4.51,1.82,4.51,4.82v7.57h-1.16v-7.37c0-2.49-1.16-4-3.5-4a4.24,4.24,0,0,0-4.46,4.55v6.77h-1.15Z"/><path class="cls-47" d="M890.19,700.31a5.16,5.16,0,0,0,4.24-1.91l.77.69a6.22,6.22,0,0,1-5,2.25,6.1,6.1,0,0,1-6.33-6.29,6.17,6.17,0,0,1,6.09-6.33c3.68,0,6,2.88,5.94,6.57H885.05A4.87,4.87,0,0,0,890.19,700.31Zm4.51-6c-.18-2.5-1.72-4.61-4.75-4.61a4.82,4.82,0,0,0-4.87,4.61Z"/><path class="cls-47" d="M908.18,700.31a5.17,5.17,0,0,0,4.25-1.91l.77.69a6.22,6.22,0,0,1-5,2.25,6.1,6.1,0,0,1-6.32-6.29,6.17,6.17,0,0,1,6.08-6.33c3.69,0,6,2.88,5.94,6.57H903A4.87,4.87,0,0,0,908.18,700.31Zm4.52-6c-.18-2.5-1.73-4.61-4.76-4.61a4.82,4.82,0,0,0-4.87,4.61Z"/><path class="cls-47" d="M920.83,689H922l-.06,3a5.61,5.61,0,0,1,5.2-3.24,6.32,6.32,0,0,1,0,12.62,5.71,5.71,0,0,1-5.14-3.17v9.23h-1.16Zm11.08,6c0-3-1.93-5.26-4.93-5.26a5.28,5.28,0,0,0,0,10.55C930,700.31,931.91,698,931.91,695Z"/><path class="cls-47" d="M953,701.11h-1.45l-4.22-5.76a11.41,11.41,0,0,1-2.52.26h-2.85v5.5H940.7V680.92h4.07c5.46,0,8,3.26,8,7.36a6.77,6.77,0,0,1-4.33,6.68Zm-8.31-6.57c5.11,0,6.92-2.94,6.92-6.26s-1.81-6.3-6.92-6.3h-2.73v12.56Z"/><path class="cls-47" d="M961.13,680.92h1.22V700h9.71v1.07H961.13Z"/></g></g></svg>