<svg xmlns="http://www.w3.org/2000/svg" xmlns:xlink="http://www.w3.org/1999/xlink" viewBox="0 0 937.38 746.66"><defs><style>.cls-1,.cls-2{fill:none;}.cls-2,.cls-23{stroke:#371a45;stroke-width:5.94px;}.cls-2,.cls-23,.cls-42,.cls-43{stroke-linecap:round;stroke-linejoin:round;}.cls-3,.cls-46{fill:#ffac48;}.cls-4{fill:#ffebf6;}.cls-5{fill:#000072;}.cls-6{fill:#50506d;}.cls-7{opacity:0.4;}.cls-8{fill:#fff;}.cls-9{opacity:0.3;}.cls-10{fill:#5e5753;}.cls-11{fill:#fff8c4;}.cls-12{opacity:0.45;}.cls-13{opacity:0.5;}.cls-14{fill:#55dfff;}.cls-15{fill:#00dbff;}.cls-16{fill:#512717;}.cls-17{fill:#371a45;}.cls-18{clip-path:url(#clip-path);}.cls-19{fill:url(#linear-gradient);}.cls-20{clip-path:url(#clip-path-2);}.cls-21{fill:url(#linear-gradient-2);}.cls-22{clip-path:url(#clip-path-3);}.cls-23{fill:url(#linear-gradient-3);}.cls-24{clip-path:url(#clip-path-4);}.cls-25{fill:url(#linear-gradient-4);}.cls-26{fill:#d8d8d8;}.cls-27{opacity:0.7;}.cls-28{fill:#b2b2b2;}.cls-29{fill:#f75252;}.cls-30{fill:#ff2929;}.cls-31{fill:#cc3232;}.cls-32{opacity:0.25;}.cls-33{opacity:0.2;}.cls-34{fill:#e5e5e5;}.cls-35,.cls-42,.cls-43{fill:#22a7f0;}.cls-36{opacity:0.3;}.cls-37{clip-path:url(#clip-path-5);}.cls-38{clip-path:url(#clip-path-6);}.cls-39{fill:#b5b5b5;}.cls-40{fill:#f883a0;}.cls-41{fill:#fdc1e5;}.cls-42,.cls-43{stroke:#22a7f0;}.cls-42{stroke-width:2.97px;}.cls-43{font-size:29.7px;stroke-width:2.83px;font-family:NeutraText-LightAlt, Neutra Text;font-weight:300;letter-spacing:0.1em;}.cls-44{letter-spacing:0.08em;}.cls-45{opacity:0.35;}.cls-46{stroke:#ffac48;stroke-miterlimit:10;}</style><clipPath id="clip-path"><path class="cls-1" d="M517.88,486.13c10.16,9.55,26.82,24.12,26.82,24.12-2.37,1.83-14.64,3.19-14.64,3.19,9.09,5.58,15.86,13.06,27.47,36.09s43.29,54.87,43.29,54.87c-11.68,1.39-29.26,11.67-50,23.09-29.49,16.23-65.42,34.76-100,33.33C386.54,658.16,360,611.68,360,611.68L401.91,465.5c2-.78,3.92-1.52,5.84-2.2,60.67-21.67,91.4,5.23,110.13,22.83"/></clipPath><linearGradient id="linear-gradient" x1="-3095.1" y1="-802.67" x2="-3094.03" y2="-802.67" gradientTransform="matrix(0, 195.46, -195.46, 0, -156429.33, 605483.49)" gradientUnits="userSpaceOnUse"><stop offset="0" stop-color="#ff4545"/><stop offset="1" stop-color="#f7931e"/></linearGradient><clipPath id="clip-path-2"><path class="cls-1" d="M596.68,566c4.7,7.1,13.55,9.27,13.55,9.27s-3,2.24-13.85-.13S580.37,564.58,578,559a35.41,35.41,0,0,0-5.82-9.31c12.59-1.19,19.81,9.2,24.5,16.29"/></clipPath><linearGradient id="linear-gradient-2" x1="-3171.44" y1="-664.02" x2="-3170.66" y2="-664.02" gradientTransform="translate(-27094.62 132781.54) rotate(90) scale(41.69)" xlink:href="#linear-gradient"/><clipPath id="clip-path-3"><path class="cls-2" d="M635.3,607.74c9.94,12.65,11.24,16.39,17.62,16.93,0,0-12.82,5-25.1.53s-22.67-11.05-33.17-7.92c0,0,12-7.82,23.21-7.75A59.81,59.81,0,0,0,603,591.17s22.34,3.92,32.28,16.57"/></clipPath><linearGradient id="linear-gradient-3" x1="-3316.33" y1="-587.16" x2="-3315.26" y2="-587.16" gradientTransform="translate(-13195.86 78635.43) rotate(90) scale(23.53)" xlink:href="#linear-gradient"/><clipPath id="clip-path-4"><path class="cls-1" d="M705.44,642.48s-9.24-5.08-17.46-6.91a26.67,26.67,0,0,1-16.36-10.63c.88-.4,1.73-.75,2.57-1.05,22.62-8.07,31.25,18.59,31.25,18.59"/></clipPath><linearGradient id="linear-gradient-4" x1="-3305.85" y1="-586.18" x2="-3304.77" y2="-586.18" gradientTransform="translate(-13376.62 79943.27) rotate(90) scale(24)" xlink:href="#linear-gradient"/><clipPath id="clip-path-5"><rect class="cls-1" x="274.35" y="460.34" width="27.51" height="89.34" transform="translate(-153.1 126.36) rotate(-19.66)"/></clipPath><clipPath id="clip-path-6"><rect class="cls-1" x="249.17" y="480.84" width="17.31" height="81.13" transform="translate(-160.38 117.13) rotate(-19.66)"/></clipPath></defs><g id="Layer_2" data-name="Layer 2"><g id="Layer_1-2" data-name="Layer 1"><path class="cls-3" d="M589.15,176.41V199.2H568.08V176.41Z"/><path class="cls-3" d="M655.15,136.83H630.42v-5q0-6.36-.72-8.05c-.49-1.13-1.7-1.69-3.63-1.69a4.13,4.13,0,0,0-3.52,1.55,7.64,7.64,0,0,0-1.18,4.66,23.7,23.7,0,0,0,.59,6.19c.39,1.31,1.57,2.75,3.52,4.31s6,3.85,12.06,6.84q12.15,5.94,16,11.19t3.8,15.27q0,11.19-2.9,16.88a19.29,19.29,0,0,1-9.7,8.78,39.86,39.86,0,0,1-16.41,3.07q-10.63,0-18.2-3.32t-10.39-9q-2.84-5.67-2.84-17.13V167h24.73v5.81q0,7.38.93,9.6a3.64,3.64,0,0,0,3.7,2.21c2,0,3.36-.5,4.14-1.49s1.18-3.07,1.18-6.25q0-6.55-1.52-8.22t-16.23-9.81q-12.3-6.9-15-12.53a30.64,30.64,0,0,1-2.7-13.37q0-11,2.91-16.19t9.84-8A42.43,42.43,0,0,1,625,105.89a45.82,45.82,0,0,1,15.5,2.31,23.82,23.82,0,0,1,9.81,6.11,16.38,16.38,0,0,1,4.14,7,50.51,50.51,0,0,1,.73,10.15Z"/><path class="cls-3" d="M689,87.38v25.15a25.07,25.07,0,0,1,7.77-5,23.92,23.92,0,0,1,8.94-1.66,20.66,20.66,0,0,1,12.47,3.73q5.15,3.72,6.29,8.6T725.59,136v63.2H697.68V134.69q0-8-.79-10.29a3.81,3.81,0,0,0-7,.07q-.9,2.34-.9,9.32V199.2H661.07V87.38Z"/><path class="cls-3" d="M794.71,155H758.59v19.82c0,4.14.29,6.82.89,8a3.49,3.49,0,0,0,3.46,1.8c2.11,0,3.53-.8,4.25-2.38s1.07-4.67,1.07-9.23V160.94h26.45v6.77a60.86,60.86,0,0,1-1.07,13,26.56,26.56,0,0,1-5,9.74,24.4,24.4,0,0,1-10,7.77q-6,2.59-15.16,2.59a43.86,43.86,0,0,1-15.61-2.56,24.9,24.9,0,0,1-10.53-7,25.41,25.41,0,0,1-5.22-9.8q-1.46-5.36-1.45-15.58V139.18q0-12,3.25-19a22.32,22.32,0,0,1,10.63-10.64,37.57,37.57,0,0,1,17-3.69q11.73,0,19.37,4.45a24.52,24.52,0,0,1,10.71,11.81q3.06,7.36,3.07,20.69Zm-28-14.92v-6.7c0-4.74-.26-7.81-.76-9.19a3,3,0,0,0-3.11-2.07c-1.94,0-3.13.59-3.59,1.76s-.69,4.34-.69,9.5v6.7Z"/><path class="cls-3" d="M863.35,155H827.23v19.82c0,4.14.29,6.82.89,8a3.49,3.49,0,0,0,3.46,1.8c2.11,0,3.53-.8,4.25-2.38s1.07-4.67,1.07-9.23V160.94h26.45v6.77a60.86,60.86,0,0,1-1.07,13,26.56,26.56,0,0,1-5,9.74,24.4,24.4,0,0,1-10,7.77q-6,2.59-15.16,2.59a43.86,43.86,0,0,1-15.61-2.56,25,25,0,0,1-10.53-7,25.41,25.41,0,0,1-5.22-9.8q-1.46-5.36-1.45-15.58V139.18q0-12,3.25-19a22.32,22.32,0,0,1,10.63-10.64,37.57,37.57,0,0,1,17-3.69q11.73,0,19.37,4.45a24.52,24.52,0,0,1,10.71,11.81q3.06,7.36,3.07,20.69Zm-28-14.92v-6.7c0-4.74-.26-7.81-.76-9.19a3,3,0,0,0-3.11-2.07c-1.94,0-3.13.59-3.59,1.76s-.69,4.34-.69,9.5v6.7Z"/><path class="cls-3" d="M897.18,107.54l-.49,8.1a26,26,0,0,1,8.22-7.33,20.31,20.31,0,0,1,9.81-2.42A18.45,18.45,0,0,1,926,109.37a14.63,14.63,0,0,1,5.9,8Q933,122,933,132.89V171.5q0,12.51-1.49,17.79a14.82,14.82,0,0,1-6.08,8.43,19.19,19.19,0,0,1-11.08,3.14,19.67,19.67,0,0,1-9.6-2.42,26.09,26.09,0,0,1-8.09-7.2v21h-27.9V107.54Zm7.94,26.67q0-8.51-.62-10.3c-.41-1.19-1.57-1.79-3.45-1.79s-3,.69-3.56,2.07-.8,4.72-.8,10v38q0,8.28.83,10.36c.56,1.38,1.75,2.07,3.6,2.07s2.91-.63,3.35-1.9.65-4.34.65-9.22Z"/><path class="cls-3" d="M636.67,227.43l-21.21,71.35v40.47H588.53V298.78l-20.45-71.35h26.71q6.27,32.73,7.07,44.06,2.42-17.9,8.1-44.06Z"/><path class="cls-3" d="M728.33,292.91q0,16.84-.79,23.86a26.75,26.75,0,0,1-16.27,21.72,41,41,0,0,1-16.58,3.11,42.3,42.3,0,0,1-16.13-2.93,26.89,26.89,0,0,1-16.68-21.59q-.82-6.9-.82-24.17V273.77q0-16.84.79-23.86a26.7,26.7,0,0,1,16.27-21.72,40.93,40.93,0,0,1,16.57-3.11A42.23,42.23,0,0,1,710.82,228,26.89,26.89,0,0,1,727.5,249.6q.82,6.9.83,24.17Zm-29.08-36.75q0-7.8-.86-10a3.45,3.45,0,0,0-3.56-2.18,4,4,0,0,0-3.49,1.76c-.8,1.18-1.21,4.64-1.21,10.4v52.22q0,9.74.8,12t3.69,2.28a3.58,3.58,0,0,0,3.8-2.63q.84-2.62.83-12.5Z"/><path class="cls-3" d="M823.67,227.43v74.73q0,12.72-.83,17.86a24.22,24.22,0,0,1-4.91,10.57,25.45,25.45,0,0,1-10.74,8.22,40.49,40.49,0,0,1-15.71,2.79,44.18,44.18,0,0,1-17.68-3.31q-7.66-3.32-11.47-8.64a23.89,23.89,0,0,1-4.49-11.22q-.69-5.91-.69-24.83V227.43h29.08v83.85q0,7.32.79,9.36a3.12,3.12,0,0,0,3.22,2,3.35,3.35,0,0,0,3.55-2.25c.53-1.49.8-5,.8-10.6v-82.4Z"/><path class="cls-3" d="M853.31,227.43H873.9q20.58,0,27.87,1.59a19.13,19.13,0,0,1,11.88,8.11q4.59,6.52,4.59,20.83,0,13.05-3.24,17.54t-12.78,5.39q8.63,2.14,11.6,5.73a17.23,17.23,0,0,1,3.7,6.6q.72,3,.72,16.54v29.49h-27V302.09q0-9-1.42-11.12c-1-1.42-3.42-2.14-7.43-2.14v50.42H853.31Zm29.08,19.13v24.87q4.9,0,6.88-1.35t2-8.74v-6.15c0-3.54-.64-5.87-1.9-7S885.75,246.56,882.39,246.56Z"/><path class="cls-3" d="M624.94,367.48l16.63,111.83H611.85l-1.56-20.11h-10.4l-1.75,20.11H568.08l14.83-111.83Zm-15.41,71.9q-2.21-19-4.43-47-4.44,32.13-5.58,47Z"/><path class="cls-3" d="M715.12,408.65H686V398.49q0-9.6-.83-12t-3.93-2.41a3.65,3.65,0,0,0-3.66,2.07c-.65,1.38-1,4.93-1,10.63v53.67q0,7.53,1,9.92a3.76,3.76,0,0,0,3.86,2.38,4.27,4.27,0,0,0,4.32-2.7q1.14-2.68,1.14-10.5V436.27h-5.87v-17h34v60H696.85l-2.69-8a20.21,20.21,0,0,1-7.5,7.77A21.12,21.12,0,0,1,676,481.65a27.76,27.76,0,0,1-13.72-3.55,26.17,26.17,0,0,1-9.71-8.81,27.72,27.72,0,0,1-4.15-11,132.67,132.67,0,0,1-.83-17.3V407.75q0-16,1.73-23.28t9.91-13.3q8.17-6,21.17-6,12.78,0,21.2,5.25t11,12.47q2.55,7.22,2.55,21Z"/><path class="cls-3" d="M726.38,367.48h48.49v22.38H755.46v21.2h18.16v21.28H755.46v24.59H776.8v22.38H726.38Z"/><path class="cls-3" d="M850.09,367.48V479.31H824.6l-15.13-50.84v50.84H785.16V367.48h24.31l16.3,50.35V367.48Z"/><path class="cls-3" d="M920.33,367.48v22.38H903.07v89.45H874V389.86h-17.2V367.48Z"/><path class="cls-3" d="M933,456.51v22.8H911.91v-22.8Z"/><path class="cls-4" d="M179.46,315.84c-1.48-9.25,5.89-18.33,5.89-18.33"/><path class="cls-5" d="M179,315.9c-1.5-9.32,5.68-18.28,6-18.66l.67.54c-.08.08-7.24,9.05-5.81,18Z"/><path class="cls-4" d="M210,347.89s4.56,14.9,18.36,1.52c0,0,8.42,14.21,18.5,1.1"/><path class="cls-5" d="M238,356.49h-.48c-4.82-.29-8.28-4.92-9.27-6.41-4.54,4.29-8.59,6-12.05,5.12-4.77-1.23-6.56-6.94-6.63-7.18l.81-.25c0,.06,1.73,5.5,6,6.6,3.25.83,7.16-.93,11.61-5.26l.39-.38.28.47c0,.06,3.69,6.13,8.88,6.44,3,.18,6-1.63,8.91-5.38l.68.52C244.25,354.57,241.16,356.49,238,356.49Z"/><path class="cls-4" d="M219.08,336.71s8.42,13.39,21.12,1.65"/><path class="cls-5" d="M229.91,343.61a10,10,0,0,1-1.44-.1c-6.05-.8-9.6-6.34-9.75-6.58l.72-.45s3.5,5.44,9.15,6.19c3.67.48,7.48-1.07,11.32-4.62l.58.63C236.94,342,233.39,343.61,229.91,343.61Z"/><path class="cls-4" d="M252.21,309.68s-13.3,8.26-19.42-12.26"/><path class="cls-5" d="M246.12,311.75a10.89,10.89,0,0,1-3.84-.69c-4.39-1.67-7.72-6.22-9.9-13.52l.82-.25c2.1,7,5.25,11.4,9.37,13,4.83,1.84,9.37-.91,9.42-.94l.44.72A12.81,12.81,0,0,1,246.12,311.75Z"/><path class="cls-4" d="M221.71,288.54s7.17,17.66,19.87,3.31"/><path class="cls-5" d="M232,297.9a7.37,7.37,0,0,1-1.32-.12c-6-1-9.24-8.76-9.37-9.08l.79-.33c0,.08,3.16,7.63,8.73,8.57,3.27.56,6.78-1.25,10.43-5.37l.64.56C238.51,296,235.19,297.9,232,297.9Z"/><line class="cls-4" x1="140.76" y1="376.18" x2="140.74" y2="376.17"/><polygon class="cls-5" points="140.45 376.48 140.44 376.47 141.05 375.87 140.45 376.48"/><path class="cls-4" d="M203.39,392.38s-1.1,17.21,17.86,17.21"/><path class="cls-5" d="M221.25,410c-6,0-10.69-1.71-13.86-5.09-4.84-5.16-4.44-12.26-4.42-12.56l.85.05c0,.07-.39,7,4.2,11.93,3,3.2,7.45,4.82,13.23,4.82Z"/><line class="cls-4" x1="144.98" y1="285.34" x2="144.98" y2="285.33"/><polygon class="cls-5" points="144.56 285.34 144.56 285.33 145.41 285.33 144.56 285.34"/><path class="cls-4" d="M172.29,301a35.87,35.87,0,0,1-8.07,1.82"/><path class="cls-5" d="M164.26,303.25l-.08-.84a36.11,36.11,0,0,0,8-1.8l.3.8A35.64,35.64,0,0,1,164.26,303.25Z"/><path class="cls-4" d="M140.27,201.27l0-.13"/><polygon class="cls-5" points="139.86 201.38 139.84 201.31 140.65 201.04 140.68 201.17 139.86 201.38"/><path class="cls-6" d="M141.74,212.12c0,18.87-12.74,34.21-28.66,34.77h0a167.34,167.34,0,0,1-9.69-14.79,40,40,0,0,1-5.47-24.89,24.58,24.58,0,0,1,3.07-9.72c6-9.85,15.74,0,15.74,0a24.24,24.24,0,0,1,6.57-6.25,10.22,10.22,0,0,1,14.89,4.93c.6,1.49,1.29,3.22,2.09,5.1A40.5,40.5,0,0,1,141.74,212.12Z"/><g class="cls-7"><path class="cls-8" d="M112.44,201.15A24.65,24.65,0,0,1,116.2,197c-2-1.82-9.84-7.85-15,.14C106.61,195.28,112.44,201.15,112.44,201.15Z"/><path class="cls-8" d="M140.27,201.27c-.8-1.88-1.49-3.61-2.09-5.1a10.22,10.22,0,0,0-14.89-4.93,22.81,22.81,0,0,0-4.67,3.92l.39-.26a10.24,10.24,0,0,1,14.9,4.94c.59,1.49,1.29,3.21,2.08,5.1a40.44,40.44,0,0,1,1.47,10.85A37.58,37.58,0,0,1,127.37,242c8.61-6.08,14.37-17.16,14.37-29.84A40.5,40.5,0,0,0,140.27,201.27Z"/></g><path class="cls-8" d="M152.93,226h0c-3.37,16.06-16.27,26.78-31.05,26.78a28.23,28.23,0,0,1-4.52-.37c-1.52-1.84-2.94-3.7-4.28-5.51,15.92-.56,28.66-15.9,28.66-34.77a40.5,40.5,0,0,0-1.47-10.85A163.77,163.77,0,0,0,152.93,226Z"/><path class="cls-8" d="M159.68,251.32s-13.61,3.4-11.55,16.65c0,0-12.32-7.66-17.26-1.58a107.24,107.24,0,0,1-13.51-14,28.23,28.23,0,0,0,4.52.37c14.78,0,27.68-10.72,31.05-26.78a72.36,72.36,0,0,0,7.38,9.69C158.75,239.25,158.43,244.56,159.68,251.32Z"/><g class="cls-9"><path class="cls-5" d="M128.07,189.73c-.31,0-.63.05-.94.1.33.29.52.48.52.48S127.79,190.09,128.07,189.73Z"/></g><g class="cls-9"><path class="cls-5" d="M150.58,257.26c-.54-.12-1.09-.22-1.63-.29a29.58,29.58,0,0,1-19.13-9.9c-.52-.61-1-1.23-1.53-1.85-1.52-1.84-2.94-3.7-4.28-5.51h0a167.36,167.36,0,0,1-9.69-14.78A40,40,0,0,1,108.84,200a28.61,28.61,0,0,1,1.52-6.5c-3-.95-6.61-.61-9.38,4a24.58,24.58,0,0,0-3.07,9.72,40,40,0,0,0,5.47,24.89,167.34,167.34,0,0,0,9.69,14.79h0c1.34,1.81,2.76,3.67,4.28,5.51a107.24,107.24,0,0,0,13.51,14c4.94-6.08,17.26,1.58,17.26,1.58A13.52,13.52,0,0,1,150.58,257.26Z"/></g><line class="cls-4" x1="130.88" y1="266.4" x2="130.87" y2="266.39"/><polygon class="cls-5" points="130.58 266.7 130.57 266.69 131.17 266.09 130.58 266.7"/><line class="cls-4" x1="196.3" y1="245.08" x2="196.3" y2="245.07"/><polygon class="cls-5" points="195.87 245.08 195.87 245.07 196.72 245.07 195.87 245.08"/><path class="cls-4" d="M145,285.34a32.44,32.44,0,0,0,8,0"/><path class="cls-5" d="M149,286a31.4,31.4,0,0,1-4-.26l.11-.84a32.68,32.68,0,0,0,7.85,0l.09.84A34.09,34.09,0,0,1,149,286Z"/><path class="cls-4" d="M200.64,252.05a20.11,20.11,0,0,0-4.34-7h0"/><path class="cls-5" d="M200.23,252.18a19.81,19.81,0,0,0-4.24-6.81l-.12-.12v-.17h.43l.31-.29a20.48,20.48,0,0,1,4.43,7.14Z"/><polyline class="cls-4" points="304.74 421.37 304.74 421.37 309.4 402.96"/><rect class="cls-5" x="297.58" y="411.74" width="18.99" height="0.85" transform="translate(-167.73 608.97) rotate(-75.83)"/><path class="cls-4" d="M352.53,364.26s-3.82,21.42-9.65,37.36c-18.64-19.68-48.14-9.34-48.14-9.34,2.73-8.95,5.69-19.37,8.13-29.56h0a15.55,15.55,0,0,0,13.4,7,16.38,16.38,0,0,0,10.87-4,13.34,13.34,0,0,0,11.33,5.74c5.56,0,10.3-3,12.1-7.22.25,0,.52,0,.78,0A11.21,11.21,0,0,0,352.53,364.26Z"/><path class="cls-5" d="M343.05,402.42l-.48-.5c-18.23-19.26-47.4-9.34-47.69-9.24l-.79.28.24-.8c3.25-10.68,6-20.62,8.12-29.54l.08-.32h.58l.13.2c2.56,4.19,7.55,6.79,13,6.79a15.93,15.93,0,0,0,10.59-3.86l.37-.33.27.42a12.91,12.91,0,0,0,11,5.54c5.22,0,9.93-2.79,11.71-7l.12-.28.31,0c.24,0,.49.05.74.05a9,9,0,0,0,1.13-.06l.56-.06-.1.56c0,.22-3.89,21.64-9.67,37.44Zm-30.54-13.23c9.53,0,21.12,2.38,30.21,11.65,5.11-14.25,8.67-32.73,9.3-36.11a11.55,11.55,0,0,1-1.17,0c-2,4.32-6.93,7.2-12.37,7.2a13.87,13.87,0,0,1-11.42-5.54,16.79,16.79,0,0,1-10.78,3.76,16.21,16.21,0,0,1-13.23-6.38c-2.05,8.48-4.63,17.84-7.67,27.87A62.6,62.6,0,0,1,312.51,389.19Z"/><path class="cls-10" d="M342.88,401.62c-2.59,7.12-5.58,13.14-8.82,15.7a13.27,13.27,0,0,1-1.66,1.1h0c-6.38,3.62-17.74,3.93-27.65,2.95a84.08,84.08,0,0,1-14-2.45,4.22,4.22,0,0,1-3.05-4.55,4.11,4.11,0,0,1,.2-.84c1.47-4.33,4-12,6.85-21.25C294.74,392.28,324.24,381.94,342.88,401.62Z"/><path class="cls-5" d="M314,422.26c-3.79,0-7.16-.25-9.34-.47a83.67,83.67,0,0,1-14.07-2.46,4.66,4.66,0,0,1-3.36-5,4.34,4.34,0,0,1,.22-.93c2.4-7.06,4.7-14.21,6.84-21.22l.06-.21.21-.07c.3-.1,30-10.21,48.59,9.45l.18.19-.09.25c-3,8.21-6,13.56-9,15.88a12.11,12.11,0,0,1-1.71,1.14l-.1.06C327.63,421.57,320.28,422.26,314,422.26Zm-19-29.64c-2.12,6.95-4.4,14-6.78,21a3.49,3.49,0,0,0-.18.76,3.81,3.81,0,0,0,2.74,4.09,84.33,84.33,0,0,0,13.92,2.43c12.07,1.2,22.05.14,27.4-2.89l.11-.06a12.82,12.82,0,0,0,1.51-1c2.79-2.2,5.68-7.33,8.59-15.25C325,383.56,297.71,391.77,295.08,392.62Z"/><path class="cls-4" d="M305,268.7c2.14,4.88-.32,10.68-5.48,12.94s-11.1.13-13.23-4.75"/><path class="cls-5" d="M295.2,283a10.1,10.1,0,0,1-9.36-5.91l.79-.35c2,4.67,7.72,6.7,12.67,4.54a9.53,9.53,0,0,0,5.26-12.38l.78-.35a10.39,10.39,0,0,1-5.7,13.51A11,11,0,0,1,295.2,283Z"/><path class="cls-4" d="M344.51,304.84c0,5.33-3.86,9.67-8.65,9.69s-8.69-4.3-8.71-9.64"/><path class="cls-5" d="M335.84,315c-5,0-9.1-4.5-9.11-10.06h.85c0,5.08,3.72,9.21,8.26,9.21h0a7.79,7.79,0,0,0,5.81-2.71,9.75,9.75,0,0,0,2.41-6.55h.85a10.61,10.61,0,0,1-2.62,7.12,8.62,8.62,0,0,1-6.45,3Z"/><path class="cls-11" d="M376.39,349.22s1.37-12.33-11.47-15.73a17.47,17.47,0,0,0,3-9.76,17.19,17.19,0,0,0-1.31-6.51A21.15,21.15,0,0,0,370,305.7c0-8.54-4.78-15.77-11.35-18.19a17.62,17.62,0,0,0-10.11-24.36,23.72,23.72,0,0,0,.57-5.16,24,24,0,0,0-14.82-22.16c-17.79,8.7-41.55,11.07-65.33,11.07-22.36,0-45.16-2.76-63.18-10-9,1.6-9.42,7.85-9.43,8.16-3.27-3.4-8.68-6.4-17.11-4.43,0,0,.64-7.64-8.37-9.85-4.93-1.2-8.62.58-10.51,4.89-1.56,3.57-1.88,8.88-.63,15.64,0,0-13.61,3.4-11.55,16.65,0,0-12.32-7.66-17.26-1.58a7.29,7.29,0,0,0-1,1.58c-3.31,7.33,3.19,15.8,15.07,17.37.2,16.52,11.26,18.34,19.24,17.49,0,0,1.31,15.33,15.23,13h0a14.65,14.65,0,0,0,3.51,7.43s-17.3,1.65-13.8,18c0,0-12.49-7.76-14.51,9,0,0-18.07-1.44-14.2,23.6l.32.81a16.26,16.26,0,0,1,4.33-10.56c5.58-5.86,14.87-6.11,21.13-1a41.54,41.54,0,0,1,15.08,26.93,31.18,31.18,0,0,1-7.82,25.85c14.56,1.65,20.14-5.78,20.14-5.78s14.9,10.85,27.6-.55c0,0,11.6,13.8,28.71,2.58,0,0,16.18,17.62,37,2.68a54.43,54.43,0,0,0,25.13,6c8.62,0,20.89-2.79,20.29-2.46,7.45,6.06,18,0,18,0,15.18,13,28.79,4,28.79,4a31.64,31.64,0,0,1-4.63-21.77,41.58,41.58,0,0,1,15.08-26.93,16,16,0,0,1,3.61-2.23S396.09,351.8,376.39,349.22Z"/><path class="cls-5" d="M367.71,425.83c-5,0-11.07-1.56-17.42-6.9-1.7.89-11.14,5.41-18.05-.1l-1.86.32c-3.89.7-12,2.15-18.27,2.15a55.15,55.15,0,0,1-25.1-5.95c-19.4,13.71-35-.5-37.12-2.63A24.26,24.26,0,0,1,236.71,417c-8.49,0-14.17-5.39-15.5-6.78-11.68,10.13-25.22,2-27.49.53-1.27,1.44-7.18,7.12-20.27,5.64l-.84-.1.57-.62a30.81,30.81,0,0,0,7.72-25.5A41.23,41.23,0,0,0,166,363.47a15.24,15.24,0,0,0-20.56,1,15.74,15.74,0,0,0-4.21,10.3l-.1,1.95-.72-1.82-.32-.82,0-.09c-1.39-9-.15-15.62,3.68-19.75a14.34,14.34,0,0,1,10.56-4.35c.71-5.27,2.54-8.64,5.46-10.05,3.38-1.62,7.19-.11,8.84.7-.78-4.46-.07-8.22,2.12-11.2,3.4-4.65,9.33-6,11.45-6.35a15,15,0,0,1-3-6.63,12.26,12.26,0,0,1-9.66-2.17c-4.33-3.36-5.39-9.21-5.61-10.85-5.92.55-10.77-.69-14-3.58s-5.11-7.68-5.25-14c-6.63-1-12.05-4.18-14.54-8.66a10.1,10.1,0,0,1-.5-9.26,7.89,7.89,0,0,1,1-1.67c4.45-5.48,14.23-.56,17.05,1-1.25-11.53,9.42-15.46,11.6-16.14-1.14-6.44-.89-11.8.73-15.51,2-4.55,5.91-6.38,11-5.13,7.81,1.91,8.64,7.86,8.7,9.73,8-1.7,13.26,1.11,16.38,4.06.41-1.92,2.17-6.35,9.65-7.68l.12,0,.12,0c16.24,6.52,38,10,63,10,28.66,0,50-3.6,65.14-11l.17-.08.18.07A24.45,24.45,0,0,1,349,262.88a18,18,0,0,1,10.19,24.4c6.71,2.71,11.19,10,11.19,18.42a21.53,21.53,0,0,1-3.27,11.56,17.63,17.63,0,0,1,1.25,6.47,18,18,0,0,1-2.75,9.51c11.13,3.28,11.33,13.43,11.24,15.61,5.72.83,10.1,3.19,13,7,5.05,6.67,3.85,15.32,3.8,15.68l0,.23-.21.1a15.71,15.71,0,0,0-3.52,2.17,41.23,41.23,0,0,0-14.93,26.66,31.45,31.45,0,0,0,4.56,21.47l.23.36-.35.23A23,23,0,0,1,367.71,425.83ZM350.4,417.9l.23.19c13.39,11.45,25.67,5.45,27.91,4.19a32.31,32.31,0,0,1-4.45-21.69,42,42,0,0,1,15.23-27.2,16.59,16.59,0,0,1,3.49-2.19c.15-1.4.73-9-3.66-14.82-2.82-3.73-7.14-6-12.82-6.74l-.41-.05,0-.42a14.22,14.22,0,0,0-11.15-15.26l-.57-.16.33-.49a17.11,17.11,0,0,0,2.93-9.53,16.85,16.85,0,0,0-1.27-6.35l-.08-.21.12-.18a20.68,20.68,0,0,0,3.25-11.29c0-8.2-4.45-15.35-11.07-17.79l-.44-.16.2-.42a17.17,17.17,0,0,0-9.86-23.77l-.35-.13.08-.37a24.22,24.22,0,0,0,.55-5.07,23.48,23.48,0,0,0-14.38-21.7c-15.28,7.43-36.66,11-65.34,11-25,0-46.9-3.45-63.23-10-8.64,1.59-9,7.67-9,7.73l0,1-.7-.73c-2.94-3.05-8.22-6.28-16.7-4.31l-.57.14.05-.59c0-.29.49-7.3-8.05-9.4-4.71-1.15-8.18.46-10,4.65-1.58,3.63-1.79,9-.6,15.39l.07.39-.38.1c-.55.14-13.22,3.47-11.24,16.17l.15.92-.79-.49c-.12-.07-12.06-7.39-16.71-1.67a6.85,6.85,0,0,0-.9,1.49,9.26,9.26,0,0,0,.46,8.49c2.41,4.32,7.74,7.41,14.28,8.28l.37,0v.37c.08,6.26,1.75,10.89,5,13.75,4,3.54,9.7,3.76,13.79,3.33l.44-.05,0,.43c0,.07.67,7.07,5.34,10.69,2.46,1.91,5.62,2.56,9.4,1.94h.44l.06.36a14.28,14.28,0,0,0,3.41,7.22l.54.62-.82.08c-.08,0-7.74.81-11.63,6.11-2.17,3-2.78,6.82-1.8,11.42l.21,1-.85-.53c-.05,0-4.9-3-8.83-1.1-2.71,1.31-4.4,4.59-5,9.77l-.05.41-.41,0c-.06,0-6.12-.42-10.28,4.08-3.4,3.67-4.64,9.5-3.69,17.35a15.92,15.92,0,0,1,4.15-8.3,16.08,16.08,0,0,1,21.71-1A42.06,42.06,0,0,1,181.75,390a31.79,31.79,0,0,1-7.37,25.57c13.51,1.22,18.86-5.64,18.92-5.71l.25-.33.34.24c.14.11,14.78,10.52,27.07-.52l.32-.3.29.34c.46.55,11.56,13.38,28.15,2.5l.3-.2.25.27c.16.17,16.17,17.17,36.46,2.62l.21-.15.24.12a54.13,54.13,0,0,0,24.93,6c6.21,0,14.26-1.44,18.12-2.14,2.32-.41,2.45-.44,2.57-.12,7.13,5.64,17.23-.08,17.33-.14Z"/><g class="cls-9"><path class="cls-5" d="M181.59,323.49c-3.74.75-13.69,3.8-12.84,15a12.86,12.86,0,0,1,1.84-.05c1.54-12.75,9.15-11.28,12.69-9.86A39.29,39.29,0,0,1,181.59,323.49Z"/><path class="cls-5" d="M179.45,315.84h0a14.29,14.29,0,0,0,1.41,4.32c-.16-.87-.29-1.74-.39-2.63A32.73,32.73,0,0,1,183.67,300a19,19,0,0,1-3.52-9c-8,.85-19-1-19.23-17.49-5.69-.75-10.13-3.09-12.86-6.12,0,.2,0,.4.07.61,0,0-12.32-7.66-17.26-1.58a7.29,7.29,0,0,0-1,1.58c-3.31,7.33,3.19,15.8,15.07,17.37.2,16.52,11.26,18.34,19.24,17.49C164.22,302.83,165.53,318.16,179.45,315.84Z"/><path class="cls-5" d="M158.12,345.24a12.64,12.64,0,0,1,6.18-5.64c-2.92-.39-6.43.42-8.4,5.43Q157,345.11,158.12,345.24Z"/></g><g class="cls-9"><path class="cls-5" d="M333.08,236.73a23.72,23.72,0,0,1-.57,5.16,17.6,17.6,0,0,1,10.11,24.36c6.57,2.42,11.35,9.65,11.35,18.19A21.25,21.25,0,0,1,350.65,296a17.21,17.21,0,0,1-1.7,16.27c12.83,3.4,11.46,15.73,11.46,15.73a23.29,23.29,0,0,1,6.44,1.73,17,17,0,0,0,1.08-6,17.19,17.19,0,0,0-1.31-6.51A21.15,21.15,0,0,0,370,305.7c0-8.54-4.78-15.77-11.35-18.19a17.62,17.62,0,0,0-10.11-24.36,23.72,23.72,0,0,0,.57-5.16,24,24,0,0,0-14.82-22.16l-1.18.53C333.07,236.48,333.08,236.6,333.08,236.73Z"/></g><g class="cls-9"><path class="cls-5" d="M377.31,349.37c0,.55-.09.86-.09.86a16,16,0,0,0-3.61,2.23,41.62,41.62,0,0,0-15.08,26.93,34.23,34.23,0,0,0-.3,6.19c.56,12.51-13.76,19.95-23.41,12l-.45-.38s-10.5,6.06-17.94,0c.59-.33-11.68,2.46-20.29,2.46a54.45,54.45,0,0,1-25.14-6c-20.85,14.94-37-2.68-37-2.68-17.11,11.22-28.71-2.58-28.71-2.58-8.77,7.88-18.59,5.13-23.83,2.68a31.11,31.11,0,0,1-7.93,24.91c14.56,1.65,20.14-5.78,20.14-5.78s14.9,10.85,27.6-.55c0,0,11.6,13.8,28.71,2.58,0,0,16.18,17.62,37,2.68a54.43,54.43,0,0,0,25.13,6c8.62,0,20.89-2.79,20.29-2.46,7.45,6.06,18,0,18,0,15.18,13,28.79,4,28.79,4a31.64,31.64,0,0,1-4.63-21.77,41.58,41.58,0,0,1,15.08-26.93,16,16,0,0,1,3.61-2.23S396,352.45,377.31,349.37Z"/></g><g class="cls-9"><path class="cls-5" d="M155.33,346.77a24.82,24.82,0,0,0-.67,3.52s-18.07-1.44-14.2,23.6l.32.81a16.26,16.26,0,0,1,4.33-10.56,15.49,15.49,0,0,1,18.55-2.71A40.94,40.94,0,0,0,155.33,346.77Z"/></g><path class="cls-4" d="M334.24,235.82a23.82,23.82,0,0,0-9.15-1.81"/><path class="cls-5" d="M334.07,236.22a23.24,23.24,0,0,0-9-1.78v-.85a24.16,24.16,0,0,1,9.31,1.84Z"/><path class="cls-4" d="M142.11,384a25.16,25.16,0,0,1-1.37-7.83"/><path class="cls-5" d="M141.72,384.15a24.77,24.77,0,0,1-1.4-8h.85a24.89,24.89,0,0,0,1.34,7.68Z"/><path class="cls-5" d="M367.65,428.38c-5.12,0-11.29-1.5-17.7-6.44-3.8,1.67-12.51,4.45-19.44-1.21a3,3,0,1,1,3.77-4.62c5.73,4.67,14.49-.23,14.58-.28a3,3,0,0,1,3.43.32c13.2,11.28,24.73,4.08,25.22,3.77a3,3,0,0,1,3.27,5A26.09,26.09,0,0,1,367.65,428.38Z"/><path class="cls-5" d="M393.21,374.47a3.25,3.25,0,0,1-.44,0,3,3,0,0,1-2.52-3.37h0c0-.08,1-7.69-3.17-13.18-2.39-3.14-6.12-5.06-11.08-5.71a3,3,0,0,1-2.58-3.29c.1-1,.68-9.88-9.26-12.52a3,3,0,0,1,1.53-5.77c10.18,2.71,13.3,10.61,13.7,16.12a20.6,20.6,0,0,1,12.48,7.61c5.68,7.51,4.35,17.18,4.29,17.59A3,3,0,0,1,393.21,374.47Z"/><path class="cls-5" d="M270,423.85c-9.74,0-17.17-5.19-20.44-8-12.54,7.09-23.14,2.48-28.57-2.29-9.75,7-20.81,3.89-27,.34-3.2,2.63-10.39,6.7-22.94,4.68-17.21-2.77-31.8-39.48-33.41-43.66a3.05,3.05,0,0,1-.17-.61c-1.51-9.79-.05-17.15,4.35-21.88a16.61,16.61,0,0,1,10.25-5c1-5,3.23-8.34,6.54-9.93a11,11,0,0,1,7.07-.69,15.37,15.37,0,0,1,2.92-9,18.93,18.93,0,0,1,9.48-6.46c-4.7-9.55.82-20.65,4.93-25.71a3,3,0,0,1,4.64,3.77c-.43.52-10.25,12.93-2.46,21.93a3,3,0,0,1-2,4.92c-.06,0-6.64.73-9.82,5.1-1.72,2.36-2.17,5.5-1.35,9.34a3,3,0,0,1-4.49,3.16c-1-.62-4.19-2-6.39-1s-3.23,4.85-3.58,7.77a3,3,0,0,1-3.2,2.62,11.28,11.28,0,0,0-8.25,3.3c-3,3.24-3.94,9-2.81,16.54,4.16,10.68,17,37.73,28.67,39.6,13.81,2.22,19-4.12,19.25-4.39a3,3,0,0,1,4.12-.6c.52.38,13.14,9.27,23.85-.35a2.94,2.94,0,0,1,2.21-.76,3,3,0,0,1,2.07,1.06c.4.46,10.18,11.58,24.79,2a3,3,0,0,1,3.84.48c.59.64,15,15.8,33.72,1.83a3,3,0,0,1,3.57,4.78C282.41,422,275.81,423.85,270,423.85Z"/><path class="cls-5" d="M140.75,379.16a3,3,0,0,1-2.1-.87h0a3,3,0,1,1,2.12.88Z"/><path class="cls-5" d="M176.67,319.06a13.93,13.93,0,0,1-8.79-2.89c-5.83-4.53-6.6-12.74-6.63-13.09a3,3,0,0,1,5.94-.52c0,.08.61,6,4.38,8.92,1.9,1.46,4.32,1.93,7.39,1.41a3,3,0,0,1,1,5.89A19.7,19.7,0,0,1,176.67,319.06Z"/><path class="cls-5" d="M205.23,389.61a31.63,31.63,0,0,0,1.72,7,16.31,16.31,0,0,0,3.33,5.58,11.58,11.58,0,0,0,2.27,1.85,15.5,15.5,0,0,0,2.6,1.24,31.69,31.69,0,0,0,6.1,1.3h.08a3,3,0,0,1-.08,6,17.37,17.37,0,0,1-8.53-1.26,14.57,14.57,0,0,1-6.78-5.91,17.74,17.74,0,0,1-2.47-8,21.23,21.23,0,0,1,.91-7.84.44.44,0,0,1,.55-.28.42.42,0,0,1,.29.35Z"/><path class="cls-5" d="M161.14,306a20.17,20.17,0,0,1-11.47-3.13c-5-3.41-7.58-9.29-7.67-17.49a3,3,0,0,1,2.95-3h0a3,3,0,0,1,3,3c.07,6.13,1.77,10.37,5.05,12.62,6.67,4.56,18.1.34,18.22.3a3,3,0,0,1,2.11,5.58A37.87,37.87,0,0,1,161.14,306Z"/><path class="cls-5" d="M113.07,249.87a3,3,0,0,1-.1-6c14.46-.5,25.78-14.47,25.78-31.79A37.15,37.15,0,0,0,137.36,202a3,3,0,0,1,5.75-1.62,43.45,43.45,0,0,1,1.61,11.79c0,20.55-13.85,37.14-31.54,37.75Z"/><path class="cls-5" d="M119.24,198.83c-.49.69-2.24,2.87-2.63,3.65a17,17,0,0,0-1,2.44,16.73,16.73,0,0,0-.62,2.67v0a.7.7,0,0,1-1.33.16,18.57,18.57,0,0,1-1-2.92,20,20,0,0,1-.51-3.13,22,22,0,0,1-.07-3.25c0-.55.08-1.11.15-1.67,0-.28.07-.56.13-.85a6.44,6.44,0,0,1,.22-1S119.49,198.49,119.24,198.83Z"/><path class="cls-5" d="M130.88,269.39a3,3,0,0,1-1.93-.71c-12.55-10.66-22.24-25-28.15-35.07A43.31,43.31,0,0,1,95,206.86a27.29,27.29,0,0,1,3.48-10.93c2.58-4.26,5.83-5.47,8.1-5.74,3.88-.46,7.48,1.44,9.77,3.08a26.39,26.39,0,0,1,5.41-4.57A13.22,13.22,0,0,1,141,195.07c7.08,17.75,14.33,30.74,21.56,38.59a3,3,0,0,1-4.39,4.05c-7.73-8.4-15.37-22-22.71-40.43a7.28,7.28,0,0,0-4.5-4.23,7.14,7.14,0,0,0-6,.72,21.44,21.44,0,0,0-5.69,5.4,3,3,0,0,1-4.59.41c-1.08-1.07-4.52-3.81-7.37-3.46-.52.06-2.08.25-3.69,2.91a21.23,21.23,0,0,0-2.65,8.54,37.23,37.23,0,0,0,5.07,23c4.65,8,14.33,22.89,26.87,33.54a3,3,0,0,1-1.94,5.26Z"/><path class="cls-5" d="M199.28,245.24l-3-.16-3-.1c0-.36.42-9,11.88-11a3,3,0,1,1,1.05,5.87C199.8,241,199.32,244.81,199.28,245.24Z"/><path class="cls-5" d="M149,288.57c-8.67,0-16.19-3.16-20.22-8.69a12.83,12.83,0,0,1-1.6-13.14,9.22,9.22,0,0,1,5.82-5.21c4-1.2,8.65.12,12.06,1.55.95-7.49,6.63-11.84,11.26-13.78-1.17-8.66.25-15.34,4.09-19,2-1.87,5.51-3.81,11.1-2.44,6.5,1.6,9.29,5.75,10.25,9.28,13.08-1.42,19.87,8.24,21.7,14a3,3,0,0,1-5.69,1.83c-.42-1.29-4.55-12.54-17.92-9.42a3,3,0,0,1-3.65-3.16c.05-.83,0-5.21-6.11-6.7-2.39-.59-4.27-.26-5.58,1-2.61,2.46-3.32,8.48-1.91,16.1a3,3,0,0,1-2.21,3.44c-1.11.29-10.91,3.13-9.32,13.3a3,3,0,0,1-4.53,3c-2.87-1.77-8.62-4.23-11.81-3.25a3.21,3.21,0,0,0-2.11,1.95,6.93,6.93,0,0,0,1,7.16c2.55,3.5,9,7.18,19,6a3,3,0,1,1,.68,5.92A36.25,36.25,0,0,1,149,288.57Z"/><g class="cls-12"><path class="cls-5" d="M210.93,347.6a14.85,14.85,0,0,0,3.51,3.77,5.07,5.07,0,0,0,3.76.94,7.29,7.29,0,0,0,2-.6c.34-.12.68-.35,1-.51s.69-.4,1-.64a32.6,32.6,0,0,0,4.06-3.28,3,3,0,0,1,4.24.13,3.55,3.55,0,0,1,.35.44l0,0,.28.44.34.5c.23.33.48.66.74,1a15.91,15.91,0,0,0,1.64,1.73,8.14,8.14,0,0,0,3.64,2.05,6.47,6.47,0,0,0,4.16-.65,20,20,0,0,0,4.36-3h0a1,1,0,0,1,1.43.11,1,1,0,0,1,.14,1.12,15.46,15.46,0,0,1-3.86,5,9.91,9.91,0,0,1-6.7,2.4,10.62,10.62,0,0,1-3.65-.82,14.14,14.14,0,0,1-3.06-1.77,18,18,0,0,1-2.49-2.27c-.37-.41-.72-.83-1.07-1.27l-.5-.66c-.17-.25-.3-.44-.51-.77l4.62.61a27.35,27.35,0,0,1-5.09,4c-.48.29-1,.54-1.51.81a15.21,15.21,0,0,1-1.67.65,10.93,10.93,0,0,1-3.75.6,8.83,8.83,0,0,1-3.87-.94,9.09,9.09,0,0,1-2.94-2.36,11.37,11.37,0,0,1-1.74-3,12,12,0,0,1-.81-3.19,1,1,0,0,1,.9-1.11,1,1,0,0,1,.94.43Z"/><path class="cls-5" d="M219.93,336.18c1.79,1,3.43,2,5,2.69a14.5,14.5,0,0,0,4.47,1.32,12.36,12.36,0,0,0,4.71-.52,51.05,51.05,0,0,0,5.44-2h0a1,1,0,0,1,1.37.58,1.06,1.06,0,0,1,0,.89,13.49,13.49,0,0,1-4.66,5,12.08,12.08,0,0,1-7.26,2,11.6,11.6,0,0,1-7-2.84,12.11,12.11,0,0,1-2.34-2.73,9.89,9.89,0,0,1-1.35-3.29,1.06,1.06,0,0,1,.83-1.25,1,1,0,0,1,.72.11Z"/><path class="cls-5" d="M252.73,310.53a9.25,9.25,0,0,1-3.15,2.39,10.85,10.85,0,0,1-4,1.05,10.72,10.72,0,0,1-4.26-.57,11.61,11.61,0,0,1-3.72-2.13,14.57,14.57,0,0,1-2.73-3c-.39-.54-.67-1.11-1-1.67s-.56-1.14-.78-1.73a18.74,18.74,0,0,1-1.3-7.16,1,1,0,0,1,1.89-.59v0c1.36,1.9,2.51,3.74,3.74,5.39a20.55,20.55,0,0,0,3.87,4.12,10.65,10.65,0,0,0,4.46,2,15.72,15.72,0,0,0,2.76.28c1,0,2.06-.05,3.12-.1h.2a1,1,0,0,1,.84,1.7Z"/><path class="cls-5" d="M222.63,288.16c1.64,1.43,3.07,2.89,4.5,4a10.6,10.6,0,0,0,4,2.23,7.23,7.23,0,0,0,4.34-.5,43.92,43.92,0,0,0,5.38-2.72l0,0a1.05,1.05,0,0,1,1.42.42,1.1,1.1,0,0,1,0,.92,14,14,0,0,1-4.37,5.66,10.92,10.92,0,0,1-3.6,1.83,9.48,9.48,0,0,1-4.41.23,10.25,10.25,0,0,1-4-1.7,11.68,11.68,0,0,1-2.78-2.79,13.4,13.4,0,0,1-1.71-3.26,11.44,11.44,0,0,1-.7-3.57,1.07,1.07,0,0,1,1.76-.83Z"/><path class="cls-5" d="M305.86,268.3a8.11,8.11,0,0,1,1.91,4.22,10.21,10.21,0,0,1-.45,4.83,11.87,11.87,0,0,1-6.66,7,12.14,12.14,0,0,1-9.62,0,10.55,10.55,0,0,1-3.81-2.88,8.84,8.84,0,0,1-1.91-4.16,1,1,0,0,1,.87-1.17,1.06,1.06,0,0,1,.92.33l0,.05a9.54,9.54,0,0,0,5.5,3.16,9.4,9.4,0,0,0,5.63-.73,10,10,0,0,0,4.18-3.71,10.52,10.52,0,0,0,1.58-6.12V269a1,1,0,0,1,1.82-.73Z"/><path class="cls-5" d="M345.5,304.83a9.4,9.4,0,0,1-1.33,8.37,10.15,10.15,0,0,1-3.54,3.14,9.91,9.91,0,0,1-4.76,1.15,10.07,10.07,0,0,1-4.71-1.23,10.28,10.28,0,0,1-3.47-3.13,9.88,9.88,0,0,1-1.53-8.23,1,1,0,0,1,2-.07l0,.06a11.32,11.32,0,0,0,3.28,5,6.59,6.59,0,0,0,4.42,1.64,7,7,0,0,0,4.27-1.79,13,13,0,0,0,3.39-4.93l0-.07a1.05,1.05,0,0,1,2,.06Z"/></g><g class="cls-9"><path class="cls-5" d="M268.53,269.79c28.07,0,56.09-6,66.45-33.63-.25-.11-.49-.23-.74-.33-17.79,8.7-41.55,11.07-65.33,11.07-22.36,0-45.16-2.76-63.18-10a14.71,14.71,0,0,0-5.22,1.87C212.08,262.11,240.77,269.79,268.53,269.79Z"/></g><path class="cls-6" d="M152.28,425.25c-17.9.17-33.91-15.31-35.76-34.58-.11-1.06-.16-2.11-.18-3.15-.15-11,11.09-18.6,20.88-13.69a18.37,18.37,0,0,1,3.52,2.34,16.72,16.72,0,0,1,4.37-12,15.63,15.63,0,0,1,21.14-1,41.55,41.55,0,0,1,15.07,26.93C184,409.24,170.17,425.09,152.28,425.25Z"/><g class="cls-7"><path class="cls-8" d="M118,394c-.15-11,11.08-18.59,20.87-13.68a17.26,17.26,0,0,1,3.53,2.34,16.73,16.73,0,0,1,4.37-12c5.58-5.86,14.87-6.11,21.13-1a41.54,41.54,0,0,1,13.68,20.49c-.06-.72-.12-1.43-.23-2.15A41.58,41.58,0,0,0,166.25,361c-6.27-5.11-15.56-4.86-21.14,1a16.72,16.72,0,0,0-4.37,12,18.37,18.37,0,0,0-3.52-2.34c-9.79-4.9-21,2.74-20.88,13.69,0,1,.07,2.09.18,3.15a38.3,38.3,0,0,0,1.56,7.75C118,395.51,118,394.74,118,394Z"/></g><g class="cls-9"><path class="cls-5" d="M181.32,390.07c-.11-.8-.24-1.59-.39-2.36a29.56,29.56,0,0,1-28.65,23.64c-16.29.15-31-12.68-34.93-29.52a15.38,15.38,0,0,0-1,5.69c0,1,.07,2.09.18,3.15,1.85,19.27,17.86,34.75,35.76,34.58S184,409.24,181.32,390.07Z"/></g><path class="cls-5" d="M152,428.24c-19.25,0-36.47-16.66-38.45-37.28-.11-1.13-.18-2.28-.19-3.4A17.91,17.91,0,0,1,121.8,372a17,17,0,0,1,16.47-1,18.44,18.44,0,0,1,4.68-8.94,18.63,18.63,0,0,1,25.18-1.25,44.56,44.56,0,0,1,16.15,28.83A34.53,34.53,0,0,1,176.53,417a32.38,32.38,0,0,1-24.22,11.21H152ZM130.89,375.3A11.1,11.1,0,0,0,125,377a12,12,0,0,0-5.64,10.44c0,1,.06,1.93.16,2.9,1.7,17.64,16.25,31.89,32.51,31.89h.26A26.4,26.4,0,0,0,172,413.13a28.18,28.18,0,0,0,6.36-22.64,38.68,38.68,0,0,0-14-25,12.66,12.66,0,0,0-17.09.74,13.62,13.62,0,0,0-3.54,9.95,3,3,0,0,1-4.9,2.32,15.74,15.74,0,0,0-3-2A11.17,11.17,0,0,0,130.89,375.3Z"/><path class="cls-5" d="M142.83,385.1a9.6,9.6,0,0,1-2-1.72,13.06,13.06,0,0,1-1.52-2.08,9,9,0,0,1-1-2.41,5.43,5.43,0,0,1,0-2.69,2.57,2.57,0,0,1,4.81-.45l.18.39a5.2,5.2,0,0,1,.39,1.86c.06.64,0,1.34,0,2.05l0,2.25c0,.78-.05,1.59-.13,2.46v0a.41.41,0,0,1-.44.37A.48.48,0,0,1,142.83,385.1Z"/><path class="cls-6" d="M393.57,427.28c17.9.16,33.91-15.32,35.77-34.59.1-1.06.16-2.11.17-3.15.15-11-11.08-18.59-20.87-13.68a17.82,17.82,0,0,0-3.53,2.34,16.73,16.73,0,0,0-4.37-12c-5.58-5.86-14.87-6.11-21.13-1a41.58,41.58,0,0,0-15.08,26.94C361.85,411.26,375.68,427.11,393.57,427.28Z"/><g class="cls-7"><path class="cls-8" d="M424.7,404.91a39.37,39.37,0,0,0,4.64-15.07c.05-.56.09-1.13.12-1.69-.77-10.19-11.45-17-20.82-12.29a17.82,17.82,0,0,0-3.53,2.34,16.73,16.73,0,0,0-4.37-12c-5.58-5.86-14.87-6.11-21.13-1a42.07,42.07,0,0,0-10.95,13.56,42.42,42.42,0,0,1,7.56-8,15.63,15.63,0,0,1,21.13,1,16.76,16.76,0,0,1,4.37,12,18.37,18.37,0,0,1,3.52-2.34c9.8-4.91,21,2.73,20.88,13.69,0,1-.07,2.09-.18,3.15A38.8,38.8,0,0,1,424.7,404.91Z"/></g><g class="cls-9"><path class="cls-5" d="M405.17,412.32c-17.89-.16-31.72-16-29.05-35.18a43.11,43.11,0,0,1,3.46-11.95,41.56,41.56,0,0,0-15.05,26.91c-2.68,19.16,11.15,35,29,35.18,13.91.13,26.68-9.2,32.55-22.4A33.47,33.47,0,0,1,405.17,412.32Z"/></g><path class="cls-5" d="M393.85,430.26h-.31a32.35,32.35,0,0,1-24.22-11.21,34.54,34.54,0,0,1-7.75-27.36,44.59,44.59,0,0,1,16.15-28.84,18.3,18.3,0,0,1,29.86,10.2,17,17,0,0,1,16.48,1,18,18,0,0,1,8.44,15.57c0,1.13-.08,2.27-.19,3.4C430.32,413.61,413.1,430.26,393.85,430.26Zm-4.09-65.74a13,13,0,0,0-8.26,3,38.63,38.63,0,0,0-14,25,28.11,28.11,0,0,0,6.36,22.64,26.37,26.37,0,0,0,19.75,9.14h.26c16.25,0,30.81-14.24,32.51-31.88.09-1,.14-2,.16-2.91a12,12,0,0,0-5.64-10.43,10.94,10.94,0,0,0-10.92-.55,16,16,0,0,0-2.94,2,3,3,0,0,1-4.9-2.32,13.64,13.64,0,0,0-3.55-9.94A12.09,12.09,0,0,0,389.76,364.52Z"/><path class="cls-5" d="M406.54,377.47a7.23,7.23,0,0,1-.06,2.86,13,13,0,0,1-.89,2.61,21.55,21.55,0,0,1-1.31,2.41,14.15,14.15,0,0,1-1.73,2.18.34.34,0,0,1-.48,0,.29.29,0,0,1-.09-.21h0c-.17-1.85-.15-3.58-.15-5.24,0-.83,0-1.64.06-2.42a9.21,9.21,0,0,1,.38-2.24l.06-.19a2.19,2.19,0,0,1,4.22.24Z"/><g class="cls-13"><path class="cls-14" d="M378.94,239.65c-1.05,19.78-31.95,41.46-112.78,37.18s-109.27-29.12-108.22-48.9c.39-7.34,4.63-10,6.11-10.53,1,.76,29.49,31.38,103.39,35.3S372.87,229.17,374,228.53C375.4,229.25,379.33,232.31,378.94,239.65Z"/></g><g class="cls-13"><path class="cls-15" d="M374,228.52h0c-1.23.72-32.77,28.08-106.55,24.16S165.09,218.15,164,217.39c0,0-21.25-23.84-28-62.43a135.83,135.83,0,0,1-.89-40.68C145.3,35.49,206.16-.8,280.67,3.15c38.81,2.05,72.79,14.58,96.67,37.33,22,20.93,35.43,50.52,36.25,88.56C415,191.39,374,228.52,374,228.52Z"/></g><g class="cls-13"><path class="cls-8" d="M141.43,161.86a135.18,135.18,0,0,1-.89-40.68C150.65,42.39,211.52,6.1,286,10.05c38.81,2.06,72.78,14.58,96.67,37.34a109.74,109.74,0,0,1,8.48,9,111.47,111.47,0,0,0-13.84-15.94C353.46,17.73,319.48,5.2,280.68,3.15,206.16-.8,145.3,35.49,135.18,114.28a135.83,135.83,0,0,0,.89,40.68c6.72,38.59,28,62.43,28,62.43a1.24,1.24,0,0,1,.22.19A141.17,141.17,0,0,1,141.43,161.86Z"/></g><polygon class="cls-16" points="273.59 204.26 273.28 204.29 273.29 204.2 273.59 204.26"/><polygon class="cls-16" points="273.89 204.24 273.88 204.32 273.59 204.26 273.89 204.24"/><path class="cls-17" d="M267.29,255.54c-65.94-3.49-97.09-28.27-105.06-35.79l-.26-.24a3.61,3.61,0,0,1-.35-.33c-1.54-1.72-37.55-42.92-29.55-105.26,4.9-38.13,22.1-68.73,49.76-88.49C207.73,6.93,242-1.76,280.82.3s72,14.32,95.78,35.46C402,58.33,415.89,90.58,416.72,129c1.34,61.7-37.36,98.64-40.38,101.43a3,3,0,0,1-.51.41l-.29.23C366.8,237.7,333.18,259,267.29,255.54Zm-100.91-40,.33.31c7.58,7.14,37.23,30.67,100.88,34S363.21,233,371.5,226.67l.34-.25c2-1.9,39.9-38.34,38.62-97.35C408.87,56.24,360.3,10.23,280.52,6S147.57,42.38,138.3,114.64C130.82,172.93,164.3,213.08,166.38,215.49Zm207.61,13h0Z"/><g class="cls-13"><path class="cls-8" d="M164,131.59C150.5,130.22,150.75,116,151.92,103c2.9-32.21,32.67-77.71,78-78.74,39.31-.9,26.16,26.7,15.68,36.31C225.27,79.12,186.67,133.88,164,131.59Z"/></g><g class="cls-18"><rect class="cls-19" x="308.92" y="401.96" width="306.66" height="310.41" transform="translate(-198.9 852.12) rotate(-74.36)"/></g><path class="cls-17" d="M499.64,655.37c-16,5.72-32.57,9.35-49,8.67-65.31-2.7-92.33-48.8-93.44-50.76a3.23,3.23,0,0,1-.3-2.49l41.87-146.18a3.24,3.24,0,0,1,1.91-2.11c68-26.93,101.43,4.43,119.37,21.28,10,9.4,26.57,23.9,26.73,24a3.23,3.23,0,0,1-.15,5c-1.48,1.14-4.79,2-8.28,2.69,6.55,5.64,12.81,14.33,22,32.59,11.26,22.3,42.38,53.73,42.7,54a3.24,3.24,0,0,1-1.91,5.48c-9.89,1.18-25.1,9.59-42.72,19.34S520.67,647.85,499.64,655.37ZM363.53,611.19c4.51,6.94,31.28,44.09,87.42,46.41,36.1,1.49,74-19.47,104.41-36.3,15.15-8.39,28.59-15.82,39.1-18.84-9-9.49-30.48-33-39.8-51.48-11.53-22.86-17.9-29.65-26.29-34.79a3.22,3.22,0,0,1,1.33-6c2.85-.32,6.06-.81,8.61-1.32-5.65-5-15.7-13.92-22.63-20.44-16.77-15.75-47.88-44.93-111.11-20.56Z"/><path class="cls-3" d="M413.92,488.29s20.54-9.1,43-4.31c19.18,4.09,27.67,13.34,32.42,22.55s9.12,20.72,19.9,24.21c0,0-6.05,4.2-11.21,3.62,0,0,21.76,16.91,22.46,45.64a112.12,112.12,0,0,0-15.13,8.14c-6.62,4.44-30.1,14.54-36.54,17,0,0,11.08,3.7,12.52,6.49,0,0-11,2.73-18.78,8.21s-51.36,21.72-73.12-16.39,24.48-115.15,24.48-115.15"/><g class="cls-20"><rect class="cls-21" x="569.12" y="539.61" width="44.53" height="46.71" transform="translate(-204.79 743.99) rotate(-56.4)"/></g><path class="cls-17" d="M610.28,577.79c-2,.7-6.22,1.4-14.4-.39-11.51-2.53-17.26-10.91-20-17.5a33.41,33.41,0,0,0-5.38-8.63,2.35,2.35,0,0,1,1.51-3.94c14.33-1.36,22.37,10.8,26.69,17.34,4.13,6.25,12.06,8.25,12.14,8.27a2.35,2.35,0,0,1,.84,4.18A5.46,5.46,0,0,1,610.28,577.79ZM577,552.18a39.49,39.49,0,0,1,3.15,5.88c2.36,5.57,7.17,12.64,16.72,14.74,1.57.34,3,.58,4.17.74a23,23,0,0,1-6.34-6.28C590.3,560.57,585,553.57,577,552.18Z"/><g class="cls-22"><rect class="cls-23" x="584.64" y="575.17" width="71.11" height="71.51" transform="translate(-171.66 972.64) rotate(-69.12)"/></g><path class="cls-2" d="M635.3,607.74c9.94,12.65,11.24,16.39,17.62,16.93,0,0-12.82,5-25.1.53s-22.67-11.05-33.17-7.92c0,0,12-7.82,23.21-7.75A59.81,59.81,0,0,0,603,591.17s22.34,3.92,32.28,16.57"/><g class="cls-24"><rect class="cls-25" x="669.54" y="614.19" width="38.74" height="38.64" transform="translate(-157.67 1032.55) rotate(-67.84)"/></g><path class="cls-17" d="M706.52,645.52a3.26,3.26,0,0,1-2.64-.21c-.08,0-8.94-4.89-16.6-6.6a29.78,29.78,0,0,1-18.41-12.09,3.24,3.24,0,0,1-.33-2.63,3.2,3.2,0,0,1,1.75-2c7.64-3.47,14.77-3.78,21.18-1,12,5.31,16.83,19.82,17,20.44a3.22,3.22,0,0,1-1,3.48A3.33,3.33,0,0,1,706.52,645.52Zm-29.46-19.15a24.64,24.64,0,0,0,11.62,6,61.44,61.44,0,0,1,9.72,3.18c-2.2-3.31-5.35-6.81-9.56-8.66A17.22,17.22,0,0,0,677.06,626.37Zm-5.44-1.43h0Z"/><path class="cls-17" d="M429.45,500.76a16.85,16.85,0,0,1-2.56.7,9.77,9.77,0,0,1-7.8-1.58c-4.12-3-4.9-8.68-5-9.31,0-.1,0-.19,0-.28l-.38-12.48a3.22,3.22,0,0,1,1.72-2.95l7.19-3.77a3.21,3.21,0,0,1,3.85.66l14.07,15a3.21,3.21,0,0,1,.5,3.69C440.88,490.81,437,498.06,429.45,500.76Zm-8.91-10.84c.15,1,.85,3.66,2.38,4.77a3.27,3.27,0,0,0,2.76.44c4-.77,6.91-3.79,8.43-5.8l-10.66-11.39-3.23,1.69Z"/><path class="cls-26" d="M399.14,468.3s9.75-7.79,13.75-6.84c6.64,1.57,22.4,18.81,22.4,18.81s3,8.21,2.9,8.71c0,0-15.27-7-15.64-6.64,2,3.31,6,15.75,6.53,17.26,0,0,10.68,6.36,11.66,7.72s6.13,17.5-2.51,47.67l-49.7-14.23Z"/><g class="cls-27"><path class="cls-8" d="M388.53,540.75l1.41.41,9.74-66.47s9.74-7.79,13.74-6.85c6.65,1.58,22.41,18.82,22.41,18.82s.23.6.55,1.49l1.81.83c.14-.5-2.89-8.7-2.89-8.7S419.53,463,412.89,461.46c-4-.94-13.75,6.84-13.75,6.84Z"/></g><path class="cls-28" d="M359.17,607.84s4.15,11.77,8,13.08c6.46,2.19,29-4.09,29-4.09s6.93-5.35,7.07-5.85c0,0-16.69-2.12-16.79-2.65,3.45-1.75,13.39-10.21,14.68-11.19,0,0,12.43.26,14-.38s14.47-11.6,23.11-41.77l-49.7-14.23Z"/><path class="cls-17" d="M439.32,558a3.26,3.26,0,0,1-2,.06l-49.7-14.24a3.21,3.21,0,0,1-2.3-3.56L396,467.83a3.22,3.22,0,0,1,1.18-2.05c3.3-2.63,11.51-8.64,16.5-7.46,7.24,1.72,21.3,16.78,24,19.78a3.25,3.25,0,0,1,.65,1c3.41,9.2,3.29,9.62,3,10.72a3.22,3.22,0,0,1-4.44,2c-2.79-1.29-5.77-2.63-8.33-3.76.94,2.57,1.92,5.42,2.83,8.15l.39,1.13c10.31,6.19,11.25,7.51,11.62,8,1.46,2,7,19-2,50.44a3.23,3.23,0,0,1-1.54,1.93A2.86,2.86,0,0,1,439.32,558Zm-47.19-19.6L436,551c6.34-24.14,3.42-38.74,2.12-41.76-1.29-1.08-6.39-4.32-10.68-6.88a3.2,3.2,0,0,1-1.37-1.62c-.12-.34-.42-1.2-.82-2.38-1.21-3.61-4.06-12.06-5.44-14.35a3.21,3.21,0,0,1,.37-3.84c1.79-2,2.91-1.47,11.64,2.39l1.06.47c-.12-.35-.25-.7-.38-1-6.31-6.84-16.52-16.49-20.35-17.39-1.34-.14-5.94,2.37-10,5.45Z"/><path class="cls-17" d="M421.94,476.46c-.5-1.57-1-3.08-1.59-4.61s-1.17-3-1.85-4.55a36.43,36.43,0,0,0-2.41-4.55,14,14,0,0,0-1.84-2.32,7.73,7.73,0,0,0-.66-.6,8.8,8.8,0,0,0-.87-.6,5.35,5.35,0,0,0-2.86-.71,3.23,3.23,0,0,0,.57,6.43c-.43,0-.61-.15-.57-.17l.14,0c.08.06.16.08.26.15a8.11,8.11,0,0,1,1.33,1.2,29.8,29.8,0,0,1,2.68,3.48,81.31,81.31,0,0,1,4.67,8l0,0a1.6,1.6,0,0,0,2.17.7,1.62,1.62,0,0,0,.81-1.92"/><path class="cls-17" d="M428,508.22c.16,1.62.24,3.33.28,5s0,3.34-.08,5a32.35,32.35,0,0,1-1.68,9.27,3.23,3.23,0,1,0,6.05,2.28,4.28,4.28,0,0,0,.15-.51,38,38,0,0,0,.32-11.16c-.18-1.78-.44-3.54-.75-5.28s-.67-3.44-1.12-5.19a1.61,1.61,0,0,0-3.17.55Z"/><path class="cls-17" d="M421.58,498.69l-11.15,2.9a3.25,3.25,0,1,0,1.64,6.3,3,3,0,0,0,.84-.35l9.91-5.88a1.62,1.62,0,0,0-1.24-3"/><path class="cls-17" d="M397.26,619.86l-.21.07c-3.92,1.1-23.82,6.43-30.87,4.05-4.86-1.64-8.65-11.08-10.05-15.06a3.23,3.23,0,0,1,.09-2.37l29.35-67.09a3.21,3.21,0,0,1,3.84-1.8l49.71,14.24a3.22,3.22,0,0,1,2.21,4c-9,31.46-22.67,42.91-25,43.86-.59.25-2.09.85-14.11.65l-.9.74c-2.23,1.84-4.57,3.75-6.73,5.43,2.76.4,6,.83,9,1.22a3.23,3.23,0,0,1,2.7,4.09c-.32,1.1-.44,1.51-8.2,7.51A3.07,3.07,0,0,1,397.26,619.86ZM362.64,608c1.82,4.76,4.39,9.33,5.64,9.94,3.69,1.24,17.45-1.54,26.43-4l.87-.68-1.14-.17c-9.45-1.34-10.66-1.52-11.15-4.12a3.23,3.23,0,0,1,1.72-3.47c2.4-1.21,9.29-6.88,12.23-9.3,1-.78,1.66-1.35,1.95-1.57a3.15,3.15,0,0,1,2-.66c5,.1,11,.06,12.7-.18,2.7-1.87,12.91-12.72,20.31-36.54l-43.86-12.57Z"/><path class="cls-17" d="M380.92,610.39a83.74,83.74,0,0,1-8.21,4.33,30.57,30.57,0,0,1-4.11,1.53,7.77,7.77,0,0,1-1.77.31,2.81,2.81,0,0,1-.3,0l-.13,0s.21-.08.57.17a3.22,3.22,0,0,0-3.88,5.14,5.31,5.31,0,0,0,2.8.92c.38,0,.72,0,1.05-.05s.62-.09.88-.16a14.35,14.35,0,0,0,2.79-1,36.55,36.55,0,0,0,4.45-2.58c1.38-.92,2.7-1.88,4-2.88s2.54-2,3.79-3.07a1.62,1.62,0,0,0-1.88-2.62Z"/><path class="cls-17" d="M407.15,591.44c1.31-1.25,2.5-2.5,3.7-3.81s2.33-2.67,3.43-4.09a37.85,37.85,0,0,0,5.64-9.63,3.23,3.23,0,0,0-6.05-2.29,2.46,2.46,0,0,0-.15.51,32.14,32.14,0,0,1-3.48,8.75c-.79,1.45-1.66,2.87-2.58,4.28s-1.89,2.8-2.88,4.1l0,0a1.62,1.62,0,0,0,2.4,2.15"/><path class="cls-29" d="M220.17,616.2l5,80s5.55,24.56,21.76,26.63,87.88-3.67,87.88-3.67-38.89-14-57.75-33.64-13-68.43-13-68.43"/><path class="cls-30" d="M246.92,722.86c16.21,2.07,87.88-3.67,87.88-3.67s-38.89-14-57.75-33.63c-7.49-7.82-11.08-20.24-12.69-32.37a163.57,163.57,0,0,1-.29-36.07l-43.9-.93,2.06,33,2.92,47s5.56,24.56,21.77,26.63"/><path class="cls-31" d="M253.3,723.26c23.42.58,81.49-4.07,81.49-4.07s-38.88-14-57.74-33.63a33.32,33.32,0,0,1-4.11-5.32Z"/><g class="cls-32"><path class="cls-17" d="M222.23,649.21l15.21,10.58s13.79-3.31,26.92-6.6a163.54,163.54,0,0,1-.29-36.07l-43.9-.93Z"/></g><path class="cls-17" d="M396.93,592.08l-5.3-10.24a3.25,3.25,0,0,0-5.78,3,3.38,3.38,0,0,0,.53.75l7.92,8.36a1.62,1.62,0,0,0,2.3.07,1.64,1.64,0,0,0,.33-1.93"/><path class="cls-17" d="M335.88,722.22a2.79,2.79,0,0,1-.82.18c-2.94.24-72.19,5.74-88.55,3.66-18.24-2.33-24.25-28-24.5-29.12a3,3,0,0,1-.07-.51l-5-80a3.22,3.22,0,1,1,6.43-.4l5,79.74c.59,2.37,6,22.27,19,23.92,11.42,1.46,52-1.12,73.54-2.66-13.27-5.86-33.72-16.26-46.14-29.21-19.69-20.52-14.11-69-13.87-71.06a3.23,3.23,0,0,1,6.41.77c-.06.48-5.47,47.5,12.11,65.82,18.12,18.89,56.13,32.7,56.51,32.84a3.22,3.22,0,0,1,0,6.06Z"/><path class="cls-29" d="M238.49,620.19,236,713.41s4,8.36,15.88,11.07c12.65,2.89,54.13,6.4,69.12,2,4.13-1.21,13.77-7.27,13.77-7.27s-22.88-4.44-36.66-8.19-19.7-6.12-17.2-11.36c2.63-5.49,47.16-81.23,53.78-86.86s-96.23,7.41-96.23,7.41"/><path class="cls-30" d="M236,713.41s4,8.36,15.87,11.07c12.66,2.89,54.14,6.4,69.13,2,4.13-1.22,13.77-7.28,13.77-7.28s-22.88-4.44-36.66-8.19-19.71-6.12-17.2-11.36c1.28-2.66,12.4-21.85,24.28-41.54,12.62-20.93,26.09-42.42,29.51-45.32,6.62-5.63-96.24,7.41-96.24,7.41l-1.05,39.6Z"/><g class="cls-32"><path class="cls-17" d="M237.44,659.79a519.31,519.31,0,0,0,67.78-1.69c12.62-20.93,26.09-42.42,29.51-45.32,6.62-5.63-96.24,7.41-96.24,7.41Z"/></g><path class="cls-17" d="M322.7,729.31l-.76.25c-15.7,4.62-57.75,1-70.75-1.93-13.26-3-17.88-12.43-18.07-12.83a3.24,3.24,0,0,1-.31-1.47l2.46-93.22a3.23,3.23,0,0,1,2.82-3.12c.23,0,24-3,47.66-5.51,50.15-5.24,51-3.39,52.21-.59a3.72,3.72,0,0,1-1.15,4.35c-5.72,4.85-49.38,78.3-53,85.79a1.53,1.53,0,0,0-.23.85c.95,2.09,11.05,4.83,15.37,6,13.5,3.67,36.2,8.09,36.42,8.14a3.22,3.22,0,0,1,1.11,5.89C335.54,722.53,327.33,727.66,322.7,729.31Zm-83.42-16.7c1.08,1.74,4.88,6.8,13.35,8.73,12.16,2.77,53,6.31,67.49,2a35.68,35.68,0,0,0,5.76-2.69c-8-1.65-20.06-4.25-28.58-6.57-12-3.26-17.65-5.41-19.54-9.55a7.19,7.19,0,0,1,.27-6.31c1.92-4,38.18-66.1,51.08-83.7-13.21,0-51.88,4-87.47,8.49Z"/><path class="cls-8" d="M343.62,621.34c54.4-26.78,61-76,61-76s20.47-45.22-11.49-96.75S251.52,347.08,151.44,350.88a193.45,193.45,0,0,0-32.37,3.93,185.08,185.08,0,0,0-44.54,15.4A193,193,0,0,0,8.76,423.75,21.41,21.41,0,0,0,4.4,439a192.86,192.86,0,0,0,27.45,80.23A185.91,185.91,0,0,0,61.5,555.84,193.51,193.51,0,0,0,86.87,576.3c82.89,56.23,202.36,71.83,256.75,45"/><path class="cls-17" d="M335.16,629.55c-27.58,9.85-66.8,11.6-109.91,4.65-51.33-8.28-101.34-27.58-140.8-54.34a199.84,199.84,0,0,1-25.92-20.92,190.38,190.38,0,0,1-30.34-37.51,196.27,196.27,0,0,1-28.06-82,25.66,25.66,0,0,1,5.23-18.26,196.29,196.29,0,0,1,67.26-54.76,190.47,190.47,0,0,1,45.57-15.76,200,200,0,0,1,33.08-4c47.65-1.8,100.28,8.3,148.21,28.46,45.6,19.18,81.06,45.17,97.27,71.31,31.22,50.33,14.44,94.42,12,100.2-1,6.2-10.11,52.49-63.23,78.65h0A100.06,100.06,0,0,1,335.16,629.55ZM96,365.76a179.57,179.57,0,0,0-19.56,8.31,187.61,187.61,0,0,0-64.28,52.3,17.09,17.09,0,0,0-3.48,12.16,187.51,187.51,0,0,0,26.83,78.39,181.74,181.74,0,0,0,29,35.82,190.15,190.15,0,0,0,24.81,20c38.44,26.08,87.22,44.89,137.33,53,47.13,7.6,89.08,4.6,115.11-8.23h0c51.55-25.37,58.54-72.23,58.61-72.7a4.22,4.22,0,0,1,.34-1.2c.19-.42,19.07-43.87-11.22-92.7-15.3-24.66-49.3-49.41-93.3-67.92-46.8-19.68-98.13-29.55-144.55-27.79A190.64,190.64,0,0,0,119.94,359,181.05,181.05,0,0,0,96,365.76Z"/><path class="cls-8" d="M343.62,621.34c54.4-26.78,61-76,61-76s20.47-45.22-11.49-96.75S251.52,347.08,151.44,350.88a193.45,193.45,0,0,0-32.37,3.93,185.08,185.08,0,0,0-44.54,15.4A193,193,0,0,0,8.76,423.75,21.41,21.41,0,0,0,4.4,439a192.86,192.86,0,0,0,27.45,80.23A185.91,185.91,0,0,0,61.5,555.84,193.51,193.51,0,0,0,86.87,576.3c82.89,56.23,202.36,71.83,256.75,45"/><path class="cls-8" d="M31.85,519.18a185.27,185.27,0,0,0,29.66,36.66A194.09,194.09,0,0,0,86.86,576.3c82.9,56.23,202.37,71.83,256.76,45.05,28.46-14,43.83-34.16,52-50.2,7.47-14.6,9-25.79,9-25.79s20.48-45.22-11.49-96.75S251.53,347.08,151.44,350.88a195.56,195.56,0,0,0-32.37,3.93,184.65,184.65,0,0,0-44.54,15.41A192.9,192.9,0,0,0,8.76,423.75a21.55,21.55,0,0,0-4.34,15.33,182,182,0,0,0,5.65,29.82,193.73,193.73,0,0,0,21.78,50.28"/><path class="cls-8" d="M31.85,519.18a185.27,185.27,0,0,0,29.66,36.66A194.09,194.09,0,0,0,86.86,576.3c82.9,56.23,202.37,71.83,256.76,45.05,28.46-14,43.83-34.16,52-50.2,7.47-14.6,9-25.79,9-25.79s20.48-45.22-11.49-96.75c-9.8-15.78-26.88-31.43-48.74-45.43-26.36-16.87-59.67-31.35-95.53-40.8-31.48-8.3-64.94-12.73-97.39-11.5a195.56,195.56,0,0,0-32.37,3.93,184.65,184.65,0,0,0-44.54,15.41A192.9,192.9,0,0,0,8.76,423.75a21.55,21.55,0,0,0-4.34,15.33,182,182,0,0,0,5.65,29.82,193.73,193.73,0,0,0,21.78,50.28"/><g class="cls-33"><path class="cls-17" d="M31.85,519.18a185.27,185.27,0,0,0,29.66,36.66A194.09,194.09,0,0,0,86.86,576.3c82.9,56.23,202.37,71.83,256.76,45.05,28.46-14,43.83-34.16,52-50.2-31.34-5.73-66.87-20.51-71.4-59.73C323.82,508,224.16,478,224.16,478s-27,40.63-73.29,28.61C94.76,492-3.21,407.18,10.07,468.9a193.73,193.73,0,0,0,21.78,50.28"/></g><path class="cls-31" d="M238.76,631.76c.92.13,1.84.24,2.75.33,1.37.16,2.74.32,4.1.46l3.28.31h.16l3.17.27c.11,0,.23,0,.34,0,1.05.09,2.09.16,3.14.23,2.53.18,5.06.32,7.55.43l3.21.12c1,0,2,.07,3,.08l1.95,0q6.81.09,13.36-.15l2.24-.1c.93,0,1.85-.09,2.77-.15.69,0,1.39-.09,2.07-.14.91,0,1.8-.12,2.69-.19l2.26-.2c1.56-.14,3.1-.3,4.61-.49s2.81-.33,4.18-.52l2.65-.39c.93-.14,1.85-.3,2.76-.45s1.62-.28,2.43-.43c.33-.05.66-.13,1-.19,1.55-.29,3.08-.61,4.58-.95,1.73-.39,3.43-.8,5.1-1.25l2.47-.68c.82-.23,1.63-.48,2.42-.71a100.51,100.51,0,0,0,14.64-5.73c3.32-1.63,6.44-3.36,9.41-5.14l.33-.19c1.47-.88,2.88-1.78,4.25-2.7l.13-.07,2.06-1.41c.69-.48,1.38-1,2.05-1.46s1.34-1,2-1.47,1.29-1,1.93-1.5,1.25-1,1.86-1.51,1.22-1,1.81-1.53,1.18-1,1.75-1.53c1.15-1,2.25-2.06,3.33-3.11l1.57-1.56c.51-.5,1-1,1.48-1.52a1.37,1.37,0,0,1,.16-.18c.45-.49.91-1,1.35-1.46.91-1,1.78-2,2.62-3l.15-.19c.46-.53.89-1.06,1.32-1.59,1.3-1.57,2.5-3.15,3.64-4.73l1.12-1.56c.36-.54.72-1.05,1.07-1.56.53-.8,1-1.57,1.53-2.34.24-.37.47-.74.69-1.12.68-1.07,1.31-2.14,1.91-3.19.3-.52.6-1,.88-1.55s.55-1,.82-1.53.54-1,.79-1.53c-14.08-2.57-29-7-41.58-14.6-34.12,69.85-112.75,75.07-115.28,75.21"/><path class="cls-34" d="M13.77,480.84a192.29,192.29,0,0,0,18.08,38.34c.95,1.54,1.94,3.09,3,4.63.48.74,1,1.49,1.5,2.24,1,1.49,2,3,3.11,4.44.32.46.65.9,1,1.35l.2.27a.25.25,0,0,0,.08.1,59.39,59.39,0,0,0,59.56,23.16c25.43-5.26,46.75-20.87,61.13-46.87a69.48,69.48,0,0,1-10.51-1.9C94.79,492-3.15,407.24,10.06,468.83c.06.28.14.55.22.82.24.84.49,1.7.73,2.57.13.44.26.87.4,1.31s.25.88.4,1.32.19.62.29.94c.18.58.37,1.15.55,1.73s.4,1.23.62,1.85.32,1,.5,1.47"/><path class="cls-17" d="M335.16,629.55c-27.58,9.85-66.8,11.6-109.91,4.65-51.33-8.28-101.34-27.58-140.8-54.34a199.84,199.84,0,0,1-25.92-20.92,190.38,190.38,0,0,1-30.34-37.51,196.27,196.27,0,0,1-28.06-82,25.66,25.66,0,0,1,5.23-18.26,196.29,196.29,0,0,1,67.26-54.76,190.47,190.47,0,0,1,45.57-15.76,200,200,0,0,1,33.08-4c47.65-1.8,100.28,8.3,148.21,28.46,45.6,19.18,81.06,45.17,97.27,71.31,31.22,50.33,14.44,94.42,12,100.2-1,6.2-10.11,52.49-63.23,78.65h0A100.06,100.06,0,0,1,335.16,629.55ZM96,365.76a179.57,179.57,0,0,0-19.56,8.31,187.61,187.61,0,0,0-64.28,52.3,17.09,17.09,0,0,0-3.48,12.16,187.51,187.51,0,0,0,26.83,78.39,181.74,181.74,0,0,0,29,35.82,190.15,190.15,0,0,0,24.81,20c38.44,26.08,87.22,44.89,137.33,53,47.13,7.6,89.08,4.6,115.11-8.23h0c51.55-25.37,58.54-72.23,58.61-72.7a4.22,4.22,0,0,1,.34-1.2c.19-.42,19.07-43.87-11.22-92.7-15.3-24.66-49.3-49.41-93.3-67.92-46.8-19.68-98.13-29.55-144.55-27.79A190.64,190.64,0,0,0,119.94,359,181.05,181.05,0,0,0,96,365.76Z"/><path class="cls-30" d="M238.72,631.77c42,5.17,80.19,1.74,104.9-10.43,54.4-26.79,61-76,61-76s20.49-45.21-11.48-96.74c-14.52-23.42-45.07-46.5-83.47-64.38,1.41,1,79.72,56.74,53.24,149.17s-122.56,98.26-124.15,98.36"/><g class="cls-27"><path class="cls-8" d="M393.17,461.22c12.15,19.59,16.73,38.26,17.72,53.89.93-17.63-2.17-41.3-17.79-66.49-14.52-23.41-45.07-46.5-83.47-64.37.58.39,13.84,9.84,27.61,27.11,25.32,15.08,45.1,32.38,55.93,49.86"/></g><g class="cls-32"><path class="cls-17" d="M238.74,631.77c.93.12,1.85.23,2.77.32,1.37.16,2.74.32,4.1.46l3.28.31h.16l3.17.27c.11,0,.23,0,.34,0,1.05.09,2.09.16,3.14.23,2.53.18,5.06.32,7.55.43l3.21.12c1,0,2,.07,3,.08l1.95,0c4.54.06,9,0,13.35-.15l2.25-.1c.93,0,1.85-.09,2.77-.15.69,0,1.39-.09,2.07-.14.91,0,1.8-.12,2.69-.19l2.25-.2c1.57-.14,3.11-.3,4.62-.49s2.81-.33,4.18-.52l2.65-.39c.93-.14,1.85-.3,2.76-.45s1.62-.28,2.43-.43c.33-.05.66-.13,1-.19,1.55-.3,3.08-.62,4.58-.95,1.73-.39,3.43-.8,5.1-1.25l2.47-.68c.82-.23,1.63-.48,2.42-.71a101.08,101.08,0,0,0,14.63-5.74c3.31-1.63,6.45-3.35,9.42-5.13l.33-.19c1.45-.89,2.88-1.78,4.25-2.7l.13-.07c.69-.47,1.38-.94,2.06-1.42s1.38-1,2.05-1.45,1.33-1,2-1.47,1.29-1,1.93-1.5,1.25-1,1.86-1.51,1.22-1,1.81-1.53,1.18-1,1.75-1.53c1.15-1,2.25-2.06,3.33-3.11l1.57-1.56c.5-.51,1-1,1.48-1.52a1.37,1.37,0,0,1,.16-.18c.45-.49.91-1,1.35-1.46.9-1,1.77-2,2.62-3l.15-.19c.46-.53.89-1.06,1.32-1.59,1.3-1.58,2.5-3.16,3.64-4.73l1.12-1.56,1.07-1.56c.53-.8,1-1.57,1.53-2.34.24-.37.47-.74.69-1.12.68-1.07,1.31-2.14,1.91-3.19.31-.52.6-1,.88-1.55s.56-1,.82-1.53.54-1,.79-1.53c-14.08-2.57-29-7-41.58-14.6-34.12,69.85-112.76,75.07-115.28,75.21Z"/></g><path class="cls-17" d="M335,629.62c-24.73,8.83-58.53,11.12-96.82,6.41a4.29,4.29,0,0,1,.28-8.55c3.86-.23,94.85-6.5,120.27-95.26,10.64-37.16,5.38-72.61-15.65-105.36C327.14,402,308,388.33,307.15,387.76a4.3,4.3,0,0,1,4.29-7.41c40.24,18.73,70.53,42.17,85.31,66,31.22,50.33,14.44,94.41,12,100.2-1,6.21-10.1,52.48-63.23,78.64A100.8,100.8,0,0,1,335,629.62Zm-63.95.13c28.6.43,53.43-3.78,70.66-12.27,51.55-25.38,58.54-72.23,58.6-72.7a4.41,4.41,0,0,1,.35-1.19c.19-.43,19.07-43.88-11.23-92.71-10.12-16.33-29-33.08-53.57-47.88a166.37,166.37,0,0,1,14.46,19.22c22.1,34.43,27.87,73.29,16.67,112.37C349.52,595.62,303,620,271.06,629.75Z"/><path class="cls-35" d="M247.49,570.84l10.36,3,.46-1.58c23-.44,46.26-21.91,55.15-53s.55-61.59-18.74-74.15l.45-1.58-10.36-3c-26.14-7.49-55.69,15.61-66,51.59s2.54,71.2,28.68,78.69"/><path class="cls-17" d="M272.7,572.77a45.64,45.64,0,0,1-12,2.58,3.23,3.23,0,0,1-3.72,1.56l-10.37-3h0c-27.81-8-41.66-45.06-30.89-82.68,5.17-18.05,15.18-33.59,28.18-43.75,13.29-10.39,28.14-14,41.8-10.05l10.37,3a3.23,3.23,0,0,1,2.33,3.29c19.6,14.35,27.08,45.33,18.17,76.43C309.15,546,292.15,565.82,272.7,572.77Zm-15.48-3.57a3.18,3.18,0,0,1,1-.19c21.92-.42,43.84-21.72,52.13-50.64s1-58.6-17.41-70.56a3.2,3.2,0,0,1-1.37-2l-7.67-2.19c-11.63-3.33-24.43-.16-36.06,8.93-11.94,9.33-21.15,23.69-26,40.44-9.8,34.21,2.07,67.72,26.46,74.71l7.67,2.2A3.32,3.32,0,0,1,257.22,569.2Z"/><path class="cls-26" d="M260.78,572.3c26.14,7.49,55.68-15.61,66-51.58s-2.53-71.21-28.67-78.7-55.69,15.61-66,51.58,2.53,71.21,28.67,78.7"/><path class="cls-35" d="M258,573.29c26.14,7.49,55.68-15.6,66-51.58A86,86,0,0,0,326.16,482c-3.19-16.54-11.75-30-24.25-36.4a35.61,35.61,0,0,0-6.59-2.61c-26.15-7.49-55.68,15.6-66,51.58s2.53,71.21,28.67,78.69"/><g class="cls-33"><path class="cls-17" d="M314.83,480.88c5,4.56,10.05,3.14,14.11.15-3.19-16.53-11.75-30-24.25-36.39-.09,11.66,1.45,28.3,10.14,36.24"/></g><path class="cls-17" d="M282.76,575.75a41.78,41.78,0,0,1-25.8,1.16h0c-27.8-8-41.66-45.06-30.88-82.69s42.17-61.75,70-53.79c13.66,3.91,24.36,14.8,30.14,30.66,5.64,15.5,5.91,34,.74,52C319.45,549.25,302,568.87,282.76,575.75Zm-24-5c24.39,7,52.2-15.16,62-49.37,4.8-16.75,4.58-33.81-.6-48-5.05-13.87-14.24-23.34-25.86-26.67-24.39-7-52.2,15.16-62,49.37s2.07,67.72,26.46,74.71Z"/><path class="cls-17" d="M260.85,555.59a26.74,26.74,0,0,0,3.42,1.23,27.63,27.63,0,0,0,15.35-.12,36.48,36.48,0,0,0,10.56-5c8.25-5.56,15.44-14.62,20-25.9a69,69,0,0,0,2.26-6.59c7.51-26.24-1.85-51.93-20.91-57.4a26.13,26.13,0,0,0-4.52-.87c-8.89-.94-18.05,2.62-25.85,9.43a53.66,53.66,0,0,0-8.79,9.93,64.88,64.88,0,0,0-9,19.13c-.41,1.41-.76,2.83-1.07,4.23-5.06,23.1,2.78,44.95,18.55,51.93"/><g class="cls-36"><g class="cls-37"><path class="cls-8" d="M261.12,470.37l29.06,81.33c8.25-5.56,15.44-14.62,20-25.9L287,460.94c-8.89-.94-18.05,2.62-25.85,9.43"/></g></g><g class="cls-36"><g class="cls-38"><path class="cls-8" d="M242.3,503.66l18.55,51.93a26.74,26.74,0,0,0,3.42,1.23,27.76,27.76,0,0,0,15.36-.12l-27.3-76.4a64.88,64.88,0,0,0-9,19.13c-.41,1.41-.76,2.83-1.07,4.23"/></g></g><path class="cls-17" d="M282.72,559.06a31.37,31.37,0,0,1-19.33.86c-20.74-5.94-31.11-33.47-23.12-61.38s31.37-45.76,52.11-39.82,31.11,33.47,23.11,61.37C310,539.43,297,553.94,282.72,559.06Zm-7.65-93.43c-12.33,4.41-23.65,17.4-28.61,34.69-7,24.48,1.38,48.44,18.7,53.4s37.12-10.92,44.14-35.4-1.38-48.44-18.7-53.4A25.14,25.14,0,0,0,275.07,465.63Z"/><path class="cls-39" d="M264.28,556.82c19.06,5.46,40.6-11.38,48.11-37.61s-1.84-51.93-20.9-57.39a25,25,0,0,0-4.06-.82c16.41,7.63,24,31.55,17,55.93s-26.08,40.64-44.05,38.43a25.26,25.26,0,0,0,3.89,1.46"/><path class="cls-17" d="M282.79,559.1a31.43,31.43,0,0,1-19.4.82h0a29,29,0,0,1-4.37-1.64,3.23,3.23,0,0,1,1.77-6.12c16.63,2.05,34.06-13.48,40.55-36.12s-.08-45-15.27-52.12a3.22,3.22,0,0,1,1.74-6.12,28.91,28.91,0,0,1,4.57.92c10.24,2.93,18.25,11.06,22.56,22.9,4.17,11.47,4.37,25.14.55,38.48s-11.22,24.82-20.84,32.34A42.86,42.86,0,0,1,282.79,559.1ZM307,479.51c4,11.05,4.42,24.68.52,38.31S296,542.77,286.82,550a42.53,42.53,0,0,0,3.86-2.68c8.56-6.69,15.17-17,18.61-29s3.3-24.29-.41-34.49A38.46,38.46,0,0,0,307,479.51Z"/><path class="cls-30" d="M40.6,532.12c13.78,18.62,37,27.93,59.65,23.25,33.89-7,60.49-32.39,73.06-76.26,10.77-37.61,3.16-72.47-14.56-96.1-16.11-21.47-44.62-29.09-69.6-19.28q-7.66,3-14.62,6.48A193,193,0,0,0,8.76,423.75,21.46,21.46,0,0,0,4.4,439a192.86,192.86,0,0,0,27.45,80.23c2.66,4.3,5.57,8.63,8.75,12.94"/><g class="cls-13"><path class="cls-8" d="M128.12,380.91c-3.63-7.16-16.79-9.9-33.85-5-22,6.39-61.6,37.12-56.11,43.08,8.58,9.33,93.59-31,90-38.13"/></g><g class="cls-32"><path class="cls-17" d="M13.77,480.84a192.29,192.29,0,0,0,18.08,38.34c.95,1.54,1.94,3.09,3,4.63.48.74,1,1.49,1.5,2.24,1,1.49,2,3,3.11,4.44.32.46.65.9,1,1.35l.2.27a.25.25,0,0,0,.08.1,59.39,59.39,0,0,0,59.56,23.16c25.43-5.26,46.75-20.87,61.13-46.87a69.48,69.48,0,0,1-10.51-1.9C94.79,492-3.15,407.24,10.06,468.83c.06.28.14.55.22.82.24.85.47,1.71.73,2.57.13.44.26.87.4,1.31s.25.88.4,1.32.19.62.29.94c.18.58.37,1.15.55,1.73s.4,1.23.62,1.85.32,1,.5,1.47"/></g><path class="cls-17" d="M113.53,556.1a93.51,93.51,0,0,1-12.41,3.48c-24,5-49.11-4.82-64-24.91h0c-3.15-4.25-6.16-8.7-9-13.24a196.27,196.27,0,0,1-28.06-82,25.66,25.66,0,0,1,5.23-18.26,196.29,196.29,0,0,1,67.26-54.76c4.89-2.42,9.92-4.65,15-6.63,26.91-10.55,57.55-2,74.6,20.7,19.88,26.49,25.58,63.83,15.26,99.86C166.42,518.77,144,545.23,113.53,556.1Zm-21.15-189-1.66.62c-4.81,1.89-9.62,4-14.28,6.34a187.61,187.61,0,0,0-64.28,52.3,17.14,17.14,0,0,0-3.48,12.16,187.51,187.51,0,0,0,26.83,78.39c2.67,4.33,5.55,8.58,8.55,12.64h0c12.87,17.41,34.59,25.88,55.32,21.6,33.94-7,58.08-32.34,69.8-73.23,9.58-33.47,4.4-68-13.87-92.34C140.91,366.39,115.25,358.94,92.38,367.11Z"/><path class="cls-17" d="M239.8,634.8a3,3,0,0,1-1.09.19,3.22,3.22,0,0,1-1.73-6,3.28,3.28,0,0,1,3-.26,3.22,3.22,0,0,1-.13,6Z"/><path class="cls-30" d="M409.47,575.12c5.65,1,120.45,15.84,123.57,7,2-9.13-103.24-57.3-108.55-59.47s-56.61-16.21-56.61-16.21h0a144.44,144.44,0,0,1-15,52.41h0s50.94,15.24,56.61,16.21"/><g class="cls-27"><path class="cls-8" d="M367.17,513c10.86,3,49.18,13.56,53.75,15.42S512.39,567.68,532.29,583a1.73,1.73,0,0,0,.75-.84c2-9.13-103.24-57.29-108.56-59.47s-56.59-16.22-56.59-16.22h0c-.18,2.15-.42,4.3-.71,6.49"/></g><g class="cls-32"><path class="cls-17" d="M352.86,558.91s50.94,15.24,56.61,16.21S529.92,591,533,582.16a1.57,1.57,0,0,0-.09-.89c-24.31,1.3-114.52-17.47-119.48-18.33-5.12-.88-47.24-13.41-55.27-15.81-1.64,4.13-3.42,8-5.33,11.77Z"/></g><path class="cls-17" d="M532.25,586.58c-3.19,1.15-8.87,1.71-19.09,1.55s-24-1-41.25-2.62c-29.91-2.74-60-6.69-63-7.21h0c-5.79-1-54.89-15.68-57-16.3a3.23,3.23,0,0,1-2-4.47,141.21,141.21,0,0,0,14.72-51.31,3.35,3.35,0,0,1,.13-.69,3.23,3.23,0,0,1,3.93-2.16c2.11.57,51.53,14.11,57,16.34,2.84,1.16,30.42,13.72,57.25,27.23,15.45,7.77,27.69,14.38,36.38,19.62,15.09,9.11,17.6,12.87,16.85,16.3,0,.12-.07.25-.11.37C535.59,584.62,534.57,585.76,532.25,586.58ZM410,572c2.74.47,30.7,4.14,59.38,6.85,41.8,4,55.12,3,59.33,2.12-3.1-3-13.89-10.85-51.45-29.62-25.78-12.9-51.44-24.58-54-25.63-3.9-1.59-36.4-10.63-52.56-15.08a148.4,148.4,0,0,1-13.26,46.32c16.06,4.79,48.42,14.33,52.56,15Z"/><path class="cls-17" d="M424.39,534a33.13,33.13,0,0,0-4.72,6.63,53.39,53.39,0,0,0-5.51,14.73,32,32,0,0,0-.77,8.1,32.91,32.91,0,0,0,4.73-6.63,51.91,51.91,0,0,0,3.28-7.16,53,53,0,0,0,2.21-7.57,32.58,32.58,0,0,0,.78-8.1"/><path class="cls-8" d="M346,372.69a41.81,41.81,0,0,1-19.34-4.52,27.43,27.43,0,0,1-5.87.65,42.19,42.19,0,0,1-18.41-4.05c-4.92,20.05-11.67,40.51-14.48,48.76a4.19,4.19,0,0,0,2.85,5.39c10.4,2.93,34.45,5.4,43.32-1.6,7.7-6.08,14.05-31.83,16.88-45.09A27.21,27.21,0,0,1,346,372.69Z"/><path class="cls-5" d="M314.08,422.29a95.35,95.35,0,0,1-23.45-3,4.65,4.65,0,0,1-2.87-2.31,4.59,4.59,0,0,1-.28-3.63c2.71-7.94,9.54-28.59,14.47-48.72l.13-.52.47.23a41.42,41.42,0,0,0,18.23,4,27.88,27.88,0,0,0,5.78-.64l.15,0,.14.07A41.09,41.09,0,0,0,346,372.26a27.52,27.52,0,0,0,4.88-.45l.62-.11-.13.62c-3.06,14.32-9.34,39.25-17,45.33C330,421.09,322.17,422.29,314.08,422.29Zm-11.42-56.91c-4.93,20-11.68,40.4-14.37,48.29a3.75,3.75,0,0,0,.23,2.95,3.79,3.79,0,0,0,2.34,1.89c10.84,3.05,34.47,5.16,42.94-1.53,7.63-6,14.05-32.45,16.59-44.22a29,29,0,0,1-4.4.36,42.08,42.08,0,0,1-19.4-4.5,28.05,28.05,0,0,1-5.81.63A42.44,42.44,0,0,1,302.66,365.38Z"/><path class="cls-6" d="M342.88,401.62c-2.59,7.12-5.58,13.14-8.82,15.7-8.87,7-32.92,4.53-43.32,1.6a4.2,4.2,0,0,1-2.85-5.39c1.47-4.33,4-12,6.85-21.25C294.74,392.28,324.24,381.94,342.88,401.62Z"/><g class="cls-7"><path class="cls-8" d="M292.17,416.38c1.47-4.33,4-12,6.85-21.25,0,0,19.69-6.9,37.07,1.31C317.75,384,294,392.28,294,392.28c-2.82,9.23-5.38,16.92-6.85,21.25a4.2,4.2,0,0,0,2.85,5.39c.71.2,1.49.39,2.32.59A4.12,4.12,0,0,1,292.17,416.38Z"/></g><path class="cls-5" d="M303.08,419.21A24.39,24.39,0,0,1,304,415c.39-1.39.92-2.74,1.44-4.1s1.09-2.69,1.69-4,1.26-2.66,2-3.95a.32.32,0,0,1,.44-.12.34.34,0,0,1,.16.27c0,1.49,0,3-.13,4.43s-.24,2.91-.42,4.35-.37,2.88-.68,4.29a23.53,23.53,0,0,1-1.24,4.15,2.17,2.17,0,0,1-4.15-1.05Z"/><path class="cls-5" d="M342.89,403.77a2.18,2.18,0,0,1-1.56-.67c-17.48-18.47-45.61-8.9-45.89-8.8a2.14,2.14,0,0,1-1.41-4c1.26-.44,31-10.56,50.41,9.9a2.14,2.14,0,0,1-1.55,3.61Z"/><path class="cls-5" d="M314.26,424.83a101.32,101.32,0,0,1-24.33-3,7.24,7.24,0,0,1-4.43-3.58,7.11,7.11,0,0,1-.44-5.64c2.84-8.33,10-29.94,14.9-50.55a3,3,0,0,1,5.81,1.39c-5,20.86-12.19,42.67-15.06,51.08a1.24,1.24,0,0,0,.07.94,1.26,1.26,0,0,0,.77.61c10.11,2.85,33,5,40.66-1.07,7.87-6.21,15.22-39.09,17.38-51.23a3,3,0,1,1,5.88,1.05c-.84,4.69-8.5,46.14-19.56,54.87C331,423.56,322.63,424.83,314.26,424.83Z"/><path class="cls-5" d="M291.54,307.29a17.41,17.41,0,0,0-3.22,5.91,12.7,12.7,0,0,0-.32,6,11.25,11.25,0,0,0,2.48,5.22,13.17,13.17,0,0,0,4.74,3.52l.07,0a3.18,3.18,0,0,1,.41,5.62,12.63,12.63,0,0,0-2.7,2.23,10.61,10.61,0,0,0-1.87,2.89,9.81,9.81,0,0,0-.4,6.71,11,11,0,0,0,4,5.63,12.26,12.26,0,0,0,3.13,1.73,14.25,14.25,0,0,0,3.53.81,3,3,0,0,1,2.73,3v0a9.11,9.11,0,0,0,.57,3.07,9.28,9.28,0,0,0,1.66,2.77,13.12,13.12,0,0,0,1.17,1.19,13.42,13.42,0,0,0,1.37,1,12.13,12.13,0,0,0,3.14,1.45,16.26,16.26,0,0,0,1.7.43,17,17,0,0,0,1.75.19,13.92,13.92,0,0,0,3.53-.22,12.9,12.9,0,0,0,6.16-3,3,3,0,0,1,4.22.26,2.11,2.11,0,0,1,.26.35l0,0a9.33,9.33,0,0,0,4,3.36,11.77,11.77,0,0,0,5.46,1,11.28,11.28,0,0,0,5.27-1.59,8.41,8.41,0,0,0,3.42-3.79l.06-.13a2.78,2.78,0,0,1,2.84-1.68,12.67,12.67,0,0,0,1.85,0,13.75,13.75,0,0,0,1.81-.34,11.5,11.5,0,0,0,3.36-1.49,12.53,12.53,0,0,0,2.73-2.46,12.07,12.07,0,0,0,1.83-3.19,10.76,10.76,0,0,0,.75-3.59,11,11,0,0,0-.37-3.66,11.79,11.79,0,0,0-4-6.08,3,3,0,0,1-.45-4.19,2.8,2.8,0,0,1,.45-.46l0,0a17.1,17.1,0,0,0,3.43-3.58,14.87,14.87,0,0,0,2.14-4.36,13.69,13.69,0,0,0,.5-2.37,16.19,16.19,0,0,0,.09-2.41,14.37,14.37,0,0,0-1.06-4.71,3,3,0,0,1,.26-2.74,17.66,17.66,0,0,0,2.61-7,17,17,0,0,0,.2-3.77c0-.64-.1-1.26-.15-1.89s-.19-1.24-.37-1.85a17,17,0,0,0-1.25-3.51,15.63,15.63,0,0,0-2-3.12,13.19,13.19,0,0,0-5.64-4.19l0,0a3,3,0,0,1-1.71-3.86,2.29,2.29,0,0,1,.1-.23,14.76,14.76,0,0,0,1.48-6,15,15,0,0,0-1.11-6,14.91,14.91,0,0,0-8.76-8.24h0a3,3,0,0,1-1.89-3.45,21,21,0,0,0-.07-9.3,19.46,19.46,0,0,0-4.17-8.28c-.5-.59-1.07-1.12-1.6-1.69l-.87-.76a10.8,10.8,0,0,0-.89-.76c-.63-.44-1.19-1-1.87-1.37l-1-.66c-.32-.22-.67-.39-1-.59s-.67-.41-1-.58l-1.06-.53c-.7-.42-1.45-.66-2.19-1a11.37,11.37,0,0,0-1.14-.47l-1.17-.5c-.79-.32-1.62-.56-2.47-1L325,235a1,1,0,0,1-.49-1.39,1,1,0,0,1,.62-.54,17.33,17.33,0,0,1,2.87-.66c.49,0,1-.07,1.48-.09a9.27,9.27,0,0,1,1.49,0,16.44,16.44,0,0,1,2.95.45c.49.13,1,.24,1.46.39a14,14,0,0,1,1.4.54,22.38,22.38,0,0,1,9.45,7.35,29.49,29.49,0,0,1,5.13,10.82,26.89,26.89,0,0,1,.09,11.94l-1.94-3.46a20.59,20.59,0,0,1,11.81,28.49l-1.66-4.11a19.25,19.25,0,0,1,8.24,6.07,20.72,20.72,0,0,1,2.67,4.26,22.43,22.43,0,0,1,1.68,4.69c.22.8.33,1.62.48,2.43s.2,1.64.21,2.47a24,24,0,0,1-.27,4.93,23.63,23.63,0,0,1-3.5,9.28l.26-2.74a20.36,20.36,0,0,1,1.49,6.66,21.82,21.82,0,0,1-.12,3.43,21.23,21.23,0,0,1-.71,3.35,20.74,20.74,0,0,1-3,6.1,23.38,23.38,0,0,1-4.63,4.84l0-4.67a17.75,17.75,0,0,1,6,9.17,17.85,17.85,0,0,1-.56,10.94,17.88,17.88,0,0,1-2.77,4.81,18.61,18.61,0,0,1-4.12,3.7,17.09,17.09,0,0,1-5.07,2.25,18.14,18.14,0,0,1-2.74.52,19.71,19.71,0,0,1-2.77.05l2.9-1.8a14.46,14.46,0,0,1-5.8,6.54,17.27,17.27,0,0,1-8,2.45,17.73,17.73,0,0,1-8.25-1.5,15.25,15.25,0,0,1-6.59-5.59l4.49.63a18.85,18.85,0,0,1-9,4.36,19.69,19.69,0,0,1-5,.31,22.93,22.93,0,0,1-2.48-.27,22.14,22.14,0,0,1-2.43-.61,18.31,18.31,0,0,1-4.58-2.12,20.12,20.12,0,0,1-2.05-1.52,18.71,18.71,0,0,1-1.82-1.85,14.86,14.86,0,0,1-3.65-9.77l2.72,3a20.15,20.15,0,0,1-5.12-1.18,18.09,18.09,0,0,1-4.63-2.56,17,17,0,0,1-6.1-8.67,16.42,16.42,0,0,1,.47-10.74,17.39,17.39,0,0,1,2.78-4.65,18.38,18.38,0,0,1,4-3.55l.48,5.65a17.89,17.89,0,0,1-7.26-5.4,16.19,16.19,0,0,1-3.42-8.47,14.5,14.5,0,0,1,1.92-8.74,13.2,13.2,0,0,1,6.38-5.54,1,1,0,0,1,1.33.58,1.07,1.07,0,0,1-.15,1Z"/><g class="cls-9"><path class="cls-5" d="M346,372.69a46.16,46.16,0,0,1-7.52-.62c-3.25,13.85-8.86,33.48-15.45,38.69-7,5.53-23.51,5.15-35.25,3.29a4.19,4.19,0,0,0,3,4.87c10.4,2.93,34.45,5.4,43.32-1.6,7.7-6.08,14.05-31.83,16.88-45.09A27.21,27.21,0,0,1,346,372.69Z"/></g><g class="cls-13"><path class="cls-15" d="M378.94,239.65c-1.05,19.78-31.95,41.46-112.78,37.18s-109.27-29.12-108.22-48.9c.39-7.34,4.63-10,6.11-10.53,1,.76,29.49,31.38,103.39,35.3S372.87,229.17,374,228.53C375.4,229.25,379.33,232.31,378.94,239.65Z"/></g><path class="cls-8" d="M282.12,56.2c-17.62-15.51-43.19-26-72.1-27.53-44.83-2.39-84,17.37-98.74,46.82a9.88,9.88,0,0,0,6.07,13.81c17.85,5.44,38.78,7.93,61.28,6.6C221.27,93.39,259.37,77.79,282.12,56.2Z"/><path class="cls-5" d="M176.21,96.5c-20.92,1-41.26-1.34-59-6.75a10.44,10.44,0,0,1-6.59-5.9,10.17,10.17,0,0,1,.24-8.58C126.16,44.76,166,25.85,210,28.2c28.14,1.51,53.85,11.33,72.4,27.65l.38.34-.37.35c-23.73,22.51-62.53,37.4-103.79,39.83C177.85,96.42,177,96.47,176.21,96.5Zm20.17-67.41c-38.09,1.78-71.14,19.6-84.68,46.61a9.2,9.2,0,0,0-.22,7.78,9.52,9.52,0,0,0,6,5.37c18.32,5.58,39.44,7.86,61.12,6.58,40.83-2.4,79.21-17.06,102.81-39.22-18.35-16-43.7-25.58-71.43-27.07C205.4,28.9,200.85,28.88,196.38,29.09Z"/><path class="cls-5" d="M176.35,99.32c-21.24,1-41.92-1.37-60-6.86A13.3,13.3,0,0,1,108,85,13,13,0,0,1,108.33,74c15.8-31.5,56.74-51,101.86-48.63C239,26.92,265.28,37,284.3,53.73a3.28,3.28,0,0,1,.09,4.86c-24.19,23-63.65,38.13-105.56,40.6C178,99.24,177.17,99.29,176.35,99.32Zm20.13-67.4c-37.07,1.73-69.17,18.94-82.26,45a6.34,6.34,0,0,0-.14,5.4,6.7,6.7,0,0,0,4.23,3.79c18,5.49,38.8,7.72,60.13,6.46,38.85-2.29,75.41-15.79,98.69-36.31C259.47,42,235.73,33.35,209.84,32A132.4,132.4,0,0,0,196.48,31.92Z"/><path class="cls-40" d="M243.29,68.43c-11.79-6.85-28.76-11.65-47.81-12.67-29.54-1.58-55.07,6.39-64.43,18.81-1.73,2.3.3,5.16,4.17,6a177.75,177.75,0,0,0,40.43,3.58C203.69,83.59,228.58,77.39,243.29,68.43Z"/><path class="cls-5" d="M181.18,84.43q-2.75.13-5.52.18A179.2,179.2,0,0,1,135.12,81c-2.44-.52-4.34-1.88-5-3.54a3.25,3.25,0,0,1,.5-3.19c9.74-12.92,35.79-20.55,64.83-19,18.55,1,35.61,5.52,48,12.73l.68.4-.67.41C229.22,77.55,206.21,83.26,181.18,84.43Zm.62-28.25c-23,1.07-42.37,8.05-50.37,18.68a2.32,2.32,0,0,0-.38,2.29c.51,1.36,2.14,2.49,4.27,2.95a177.89,177.89,0,0,0,40.32,3.57c26.58-.52,51.43-6.2,66.72-15.23-12.23-6.91-28.85-11.24-46.91-12.21A135.3,135.3,0,0,0,181.8,56.18Z"/><g class="cls-33"><path class="cls-5" d="M260.34,69.34c-11.8-6.85-28.76-11.65-47.81-12.67-29.55-1.58-55.08,6.4-64.43,18.81-1.74,2.3.3,5.16,4.16,6a177.75,177.75,0,0,0,40.43,3.58C220.73,84.51,245.62,78.3,260.34,69.34Z"/></g><path class="cls-5" d="M181.27,86.81c-1.85.09-3.7.15-5.57.18a181.14,181.14,0,0,1-41.08-3.64c-3.28-.71-5.77-2.59-6.68-5a5.62,5.62,0,0,1,.83-5.45c10.19-13.52,37.06-21.54,66.86-20,18.92,1,36.35,5.65,49.09,13.06a2.85,2.85,0,0,1,.05,4.9C230.14,79.78,206.7,85.62,181.27,86.81Zm-48-10.46a3.65,3.65,0,0,0,2.53,1.42,175.39,175.39,0,0,0,39.77,3.52c24.06-.47,46.61-5.2,61.71-12.8-11.41-5.49-26.38-9-42-9.88-27.55-1.47-53.05,5.8-62,17.68Z"/><path class="cls-8" d="M272.1,55.66C291.28,42.12,317.82,34.44,346.73,36c44.83,2.4,81.65,26.23,93.19,57.08a9.89,9.89,0,0,1-7.51,13.09c-18.33,3.51-39.4,3.75-61.64,0C328.64,99.13,292.43,79.56,272.1,55.66Z"/><path class="cls-5" d="M410.66,109.15a190,190,0,0,1-40-2.51C329.92,99.82,292.93,80.88,271.75,56l-.34-.39.42-.3C292,41,318.63,34,346.76,35.51c44,2.36,81.64,25.42,93.6,57.39a10.15,10.15,0,0,1-.68,8.55,10.44,10.44,0,0,1-7.18,5.16A155.73,155.73,0,0,1,410.66,109.15ZM272.8,55.75c21.1,24.55,57.71,43.22,98.05,50,21.41,3.58,42.66,3.57,61.47,0a9.53,9.53,0,0,0,6.54-4.71,9.17,9.17,0,0,0,.62-7.75c-11.83-31.63-49.11-54.44-92.77-56.78C319,35,292.76,41.82,272.8,55.75Z"/><path class="cls-5" d="M410.79,112a192.9,192.9,0,0,1-40.56-2.54c-41.41-6.93-79-26.23-100.64-51.63A3.3,3.3,0,0,1,270.2,53c20.7-14.61,47.94-21.81,76.71-20.28C392,35.11,430.66,58.9,443,91.91a13,13,0,0,1-.86,10.92,13.31,13.31,0,0,1-9.12,6.56A158.29,158.29,0,0,1,410.79,112ZM277.05,56.29c21,22.89,55.88,40.22,94.26,46.64,21.08,3.52,42,3.52,60.48,0a6.74,6.74,0,0,0,4.61-3.32,6.29,6.29,0,0,0,.43-5.38c-11.44-30.59-47.72-52.67-90.27-54.94C320.67,37.89,296.15,43.92,277.05,56.29Z"/><path class="cls-40" d="M309.41,72c12.46-5.56,29.84-8.52,48.89-7.5C387.84,66.05,412.38,76.7,420.36,90c1.48,2.48-.85,5.1-4.79,5.51A177.26,177.26,0,0,1,375,94.8C347.17,91.27,323.09,82.44,309.41,72Z"/><path class="cls-5" d="M407.06,96.67a188.54,188.54,0,0,1-32.12-1.4c-26.94-3.42-51.54-12-65.82-22.93l-.62-.48.72-.32C322.34,65.68,339.78,63,358.33,64c29,1.55,54.13,11.92,62.43,25.8a3.25,3.25,0,0,1,.16,3.23c-.78,1.58-2.82,2.73-5.3,3C412.85,96.32,410,96.53,407.06,96.67ZM310.33,72.08c14.24,10.6,38.35,18.9,64.72,22.26a179.08,179.08,0,0,0,40.47.75c2.17-.23,3.91-1.18,4.56-2.48a2.3,2.3,0,0,0-.13-2.32C411.81,76.66,387,66.48,358.28,64.94,340.22,64,323.24,66.51,310.33,72.08Z"/><g class="cls-33"><path class="cls-5" d="M292,71c12.46-5.55,29.84-8.51,48.89-7.49,29.54,1.58,54.07,12.23,62.06,25.57,1.48,2.47-.85,5.09-4.79,5.51a177.83,177.83,0,0,1-40.58-.75C329.72,90.33,305.64,81.51,292,71Z"/></g><path class="cls-5" d="M407.17,99.05a190.24,190.24,0,0,1-32.53-1.42c-27.34-3.47-52.37-12.22-67-23.4a2.85,2.85,0,0,1,.57-4.87c13.46-6,31.29-8.75,50.2-7.74,29.8,1.6,55.66,12.43,64.35,27a5.61,5.61,0,0,1,.25,5.52c-1.16,2.33-3.85,3.94-7.18,4.29C413.05,98.69,410.14,98.91,407.17,99.05ZM315.36,72.66c14.2,9.18,36.13,16.28,60,19.32a176,176,0,0,0,39.92.74,3.65,3.65,0,0,0,2.67-1.15.09.09,0,0,0,0-.06c-7.64-12.77-32.21-22.72-59.76-24.19C342.56,66.48,327.29,68.42,315.36,72.66Z"/><path class="cls-11" d="M392.65,181.61c-8.6,9.34-14.79-2.33-14.79-2.33a125.9,125.9,0,0,0-2-20.85s-23.07-8.15-17.44-33.39v0c-24.49-1.68-24.82-26.85-24.82-26.85-30.77,4.66-33.16-16.38-33.16-16.38a43.24,43.24,0,0,1-20.55,7.4,27.82,27.82,0,0,1-22-7.09v0c-20.2,23.95-44.61,5.34-44.61,5.34,7.06,20.32-25.39,25.71-25.39,25.71,6.6,21.31-15.18,32.77-15.18,32.77,2,7.63-4.76,13-4.76,13a80.83,80.83,0,0,0-3.3,14.58,11.17,11.17,0,0,1-2.84.2c-6.81-.36-12-6.56-11.62-13.83a13.5,13.5,0,0,1,5.66-10.39A26.1,26.1,0,0,1,164.16,104,25.17,25.17,0,0,1,184.24,71s-2.24-14.37,7-23.94,19.24-8.6,19.24-8.6,4.44-16.34,17.47-20.22,23.93,3.41,23.93,3.41,12-9.73,26-8.48a39.91,39.91,0,0,1,23,10.59s33.78-8.57,41,21.94c0,0,30.16,4.25,22.51,33.15,0,0,30.91,4.31,19,36.13,0,0,23.87,17.86,5.89,42.12C389.29,157.1,399.63,174,392.65,181.61Z"/><g class="cls-9"><path class="cls-5" d="M394.05,148.67c-.16-.88-.34-1.76-.53-2.66,0,0-26.82-8.34-20.52-33.55h0c-28.42-1.9-29-27.08-29-27.08-35.66,4.4-35-14.24-35-14.24-5.31,3.21-17.74,5.66-28.43,6.57-11.4,1-25-3.59-30.71-8-23.24,23.79-45.48,3.9-45.48,3.9C212.7,94,175.1,99.13,175.1,99.13c7.84,21.37-17.33,32.65-17.33,32.65,2.43,7.65-5.41,12.94-5.41,12.94-.13.34-.22.68-.34,1a26.69,26.69,0,0,0,3.86,3.73,13.43,13.43,0,0,0-5.5,8.92A12.45,12.45,0,0,0,161.57,168a11.72,11.72,0,0,0,2.85-.2,80,80,0,0,1,3.29-14.59s6.8-5.34,4.76-13c0,0,15.3-8.05,16.37-23.19a28.19,28.19,0,0,0-.92-3.88s.74-.12,2-.4l-1.1.24a28.07,28.07,0,0,0-1.12-5.54s24-4,26.23-18a17.58,17.58,0,0,0-.58-2L214,88a16.69,16.69,0,0,0-1-6.21s24.4,18.61,44.61-5.34h0a27.81,27.81,0,0,0,22,7.08,43,43,0,0,0,20.54-7.4s2.39,21,33.17,16.38c0,0,.32,25.17,24.81,26.86h0a36.82,36.82,0,0,0-.81,5.58c.36,0,.71.08,1.08.1v0a36.22,36.22,0,0,0-.84,6.13c2.38,16,18,21.56,18,21.56a127.83,127.83,0,0,1,1.94,19.13h0c.19,2.56.29,5,.3,7.43,0,0,6.19,11.67,14.79,2.33,7-7.57-3.36-24.51-3.36-24.51A36.77,36.77,0,0,0,394.05,148.67Z"/></g><path class="cls-8" d="M342.13,45.74l-1.82,1c-11.38-18.44-37-11.94-37-11.94a39.93,39.93,0,0,0-23-10.6c-14-1.25-26,8.49-26,8.49s-10.9-7.3-23.93-3.42S212.9,49.5,212.9,49.5s-10-1-19.24,8.59a26.1,26.1,0,0,0-6.59,13.46L184.24,71s-2.24-14.37,7-23.94,19.24-8.6,19.24-8.6,4.44-16.34,17.47-20.22,23.93,3.41,23.93,3.41,12-9.73,26-8.48a39.91,39.91,0,0,1,23,10.59s33.78-8.57,41,21.94Z"/><path class="cls-5" d="M386.44,188.52a10.75,10.75,0,0,1-1.7-.07c-6-.78-9.42-6.93-9.79-7.63a3.28,3.28,0,0,1-.39-1.53,120.44,120.44,0,0,0-1.63-18.56c-5.5-2.64-21.13-12.06-18.35-32.85-16.53-2.83-22.65-16.51-24-26-10.42,1-18.75-.8-24.81-5.43a23,23,0,0,1-7.29-9.54,47.83,47.83,0,0,1-18.26,5.58,31,31,0,0,1-22-5.85c-15,15.62-31.81,11.23-40.69,7.08a16.58,16.58,0,0,1-2.36,7.88c-5.11,8.6-17.28,12.59-23.31,14.09,3,15.63-7.72,27-15.57,32,.56,6.59-3.66,11.37-5.52,13.13a76.94,76.94,0,0,0-2.9,13.13,3.29,3.29,0,0,1-2.63,2.84,15.49,15.49,0,0,1-3.66.26c-8.6-.47-15.21-8.23-14.73-17.3a17.16,17.16,0,0,1,4-10.19,29.38,29.38,0,0,1,9.21-47.58,28.46,28.46,0,0,1,20.53-33.56c-.18-5.19.53-15.71,8.11-23.59,7.32-7.62,15.19-9.27,19.22-9.57,1.89-5.08,7.37-16.68,18.92-20.12,11-3.29,20.6.55,24.65,2.65,4.12-2.82,14.55-8.92,26.5-7.85a43.25,43.25,0,0,1,23.74,10.31c4.79-.89,18.14-2.51,29.13,4.16,6.59,4,11.14,10.22,13.53,18.52,4.45,1,14.54,4.26,20.28,12.9,3.79,5.71,5,12.62,3.5,20.58C373,77.67,381.38,81,386.07,88.88c4,6.76,4.42,15.19,1.18,25.08,5.51,5.12,20.35,21.92,5.94,43.33,2.8,5.19,9,18.82,1.89,26.55C392.34,186.81,389.44,188.38,386.44,188.52Zm-5.29-10.17c.83,1.25,2.57,3.33,4.45,3.56,1.36.17,2.92-.68,4.63-2.54h0c4.3-4.66-1.41-16.7-3.76-20.55a3.31,3.31,0,0,1,.17-3.68c15.77-21.28-4.36-36.87-5.22-37.53a3.28,3.28,0,0,1-1.11-3.78c3.3-8.85,3.34-16.09.12-21.53-5-8.43-16.41-10.18-16.53-10.19A3.31,3.31,0,0,1,361.18,78c2-7.46,1.35-13.7-1.85-18.55C353.64,50.83,341.51,49,341.38,49a3.3,3.3,0,0,1-2.74-2.5c-1.78-7.56-5.5-13.1-11.07-16.47-11-6.69-25.74-3.07-25.89-3a3.28,3.28,0,0,1-3.17-.9,36.94,36.94,0,0,0-21-9.61c-12.42-1.11-23.51,7.68-23.62,7.77a3.3,3.3,0,0,1-3.9.17c-.09-.06-9.85-6.36-21.16-3-11.14,3.32-15.19,17.78-15.23,17.93a3.3,3.3,0,0,1-3.51,2.41c-.32,0-8.63-.62-16.53,7.6s-6.1,21-6.08,21.15a3.3,3.3,0,0,1-2.77,3.76,22,22,0,0,0-18.57,20.46,21.57,21.57,0,0,0,1.13,8.18,3.3,3.3,0,0,1-2.15,4.21,22.8,22.8,0,0,0-7.23,39.77,3.29,3.29,0,0,1,1.27,2.69,3.33,3.33,0,0,1-1.41,2.61,10.26,10.26,0,0,0-4.26,7.87c-.28,5.37,3.42,10,8.29,10.35a87.35,87.35,0,0,1,3-12.49,3.33,3.33,0,0,1,1.1-1.59c.19-.15,5.05-4.14,3.61-9.52A3.31,3.31,0,0,1,171.2,143c.79-.42,19.27-10.49,13.57-28.87a3.31,3.31,0,0,1,2.61-4.23c4.71-.79,17.9-4.44,22.2-11.71,1.69-2.85,1.89-6,.62-9.67a3.29,3.29,0,0,1,5.11-3.7c.89.67,22.14,16.31,40-4.77a3.37,3.37,0,0,1,1.3-1,3.28,3.28,0,0,1,3.47.55,24.46,24.46,0,0,0,19.46,6.28,39.86,39.86,0,0,0,19-6.82,3.34,3.34,0,0,1,3.25-.31,3.3,3.3,0,0,1,1.92,2.64,16,16,0,0,0,6.2,9.85c5.24,4,13,5.18,23.2,3.64a3.28,3.28,0,0,1,3.79,3.21c0,.9.65,22.16,21.75,23.62a3.29,3.29,0,0,1,3.06,3.51,4.29,4.29,0,0,1-.07.5C356.72,147.89,376.15,155,377,155.32a3.27,3.27,0,0,1,2.15,2.54A131.46,131.46,0,0,1,381.15,178.35Z"/><path class="cls-8" d="M269.6,245.14c-54.77-2.93-111.17-21-104.92-71.65a80.83,80.83,0,0,1,3.3-14.58s6.79-5.34,4.76-13c0,0,21.78-11.46,15.18-32.77,0,0,32.45-5.39,25.39-25.71,0,0,24.41,18.61,44.61-5.34v0a27.82,27.82,0,0,0,22,7.09,43.24,43.24,0,0,0,20.55-7.4s2.39,21,33.16,16.38c0,0,.33,25.17,24.82,26.85v0c-5.63,25.24,17.44,33.39,17.44,33.39a125.9,125.9,0,0,1,2,20.85C378.18,239.77,323.64,248,269.6,245.14Z"/><path class="cls-5" d="M298.69,245.84q-13.29.61-29.12-.23c-26.11-1.4-73.12-7.57-94.61-33.22-9-10.74-12.61-23.84-10.74-39a80.25,80.25,0,0,1,3.31-14.67l0-.13.12-.09c.06-.06,6.52-5.25,4.59-12.48l-.09-.36.33-.18c.21-.11,21.36-11.53,14.95-32.21l-.16-.52.53-.08c.19,0,18.29-3.15,24.17-13,2.11-3.56,2.4-7.61.86-12l-.51-1.47,1.24.94a38.59,38.59,0,0,0,14.56,6.23c11.21,2.14,21.07-1.68,29.3-11.38l0-.82.75.64a27.2,27.2,0,0,0,21.62,7,42.62,42.62,0,0,0,20.33-7.32l.64-.45.1.79a19,19,0,0,0,7.19,11.71c5.88,4.49,14.43,5.92,25.43,4.25l.54-.08v.54c0,1,.62,24.76,24.38,26.39l.47,0,0,.55C353.43,149.67,375.12,157.65,376,158l.26.09.05.27a127.2,127.2,0,0,1,2,20.93c.1,19.59-5.63,35-17,45.9C348.12,237.73,327.89,244.48,298.69,245.84Zm-29.07-1.17c45.13,2.41,74.05-4,91-20.18,11.22-10.68,16.85-25.89,16.75-45.21a127.16,127.16,0,0,0-1.92-20.51c-2.55-1-22.52-9.82-17.6-33.32-22.13-1.86-24.46-23.08-24.69-26.74-11,1.58-19.66.06-25.65-4.53a19.88,19.88,0,0,1-7.41-11.58A43.83,43.83,0,0,1,280,89.66a28,28,0,0,1-22-6.88c-7.41,8.61-15.41,11.61-22.57,11.94-9.95.47-18.3-4.21-21.25-6.11a14.32,14.32,0,0,1-1.34,11.53c-5.6,9.43-21.17,12.81-24.3,13.4,5.73,19.67-12.55,31.08-15.24,32.63,1.66,7.09-4,12.25-4.89,13a80.12,80.12,0,0,0-3.24,14.37c-1.83,14.84,1.71,27.7,10.53,38.23C196.94,237.16,243.66,243.28,269.62,244.67Z"/><g class="cls-9"><path class="cls-5" d="M269.33,239.44c53.11,2.84,106.69-5.09,108.23-62.77v-.08c-8.35,46.69-57.88,53.29-107,50.66-49.73-2.66-100.81-17.81-105.09-58.51-.31,1.61-.59,3.2-.78,4.75a64.54,64.54,0,0,0-.47,7.2C168.32,221.57,219.5,236.77,269.33,239.44Z"/></g><path class="cls-5" d="M298.77,248.66c-9,.42-18.71.34-29.35-.23C242.85,247,195,240.67,172.79,214.2c-9.51-11.36-13.34-25.19-11.38-41.11a83.28,83.28,0,0,1,3.43-15.19,3.33,3.33,0,0,1,1.1-1.59c.19-.15,5.05-4.14,3.61-9.52A3.31,3.31,0,0,1,171.2,143c.79-.42,19.27-10.49,13.57-28.87a3.31,3.31,0,0,1,2.61-4.23c4.71-.79,17.9-4.44,22.2-11.71,1.69-2.85,1.89-6,.62-9.67a3.29,3.29,0,0,1,5.11-3.7c.89.67,22.14,16.32,40-4.77a3.37,3.37,0,0,1,1.3-1,3.28,3.28,0,0,1,3.47.55,24.46,24.46,0,0,0,19.46,6.28,39.86,39.86,0,0,0,19-6.82,3.29,3.29,0,0,1,5.17,2.33,16,16,0,0,0,6.2,9.85c5.24,4,13,5.18,23.2,3.64a3.28,3.28,0,0,1,3.79,3.21c0,.9.65,22.16,21.75,23.62a3.29,3.29,0,0,1,3.06,3.51,4.29,4.29,0,0,1-.07.5c-4.91,22,14.5,29.27,15.33,29.57a3.31,3.31,0,0,1,2.14,2.54,128.54,128.54,0,0,1,2,21.4c.11,20.39-5.92,36.53-17.91,48C349.55,240.26,328.72,247.26,298.77,248.66Zm-29-6.81c44.3,2.36,72.55-3.8,88.92-19.4,10.78-10.27,16-24.39,15.87-43.16a120.44,120.44,0,0,0-1.63-18.56c-5.5-2.64-21.13-12.06-18.35-32.85-16.53-2.83-22.65-16.51-24-26-10.42,1-18.75-.8-24.81-5.43a23,23,0,0,1-7.29-9.54,47.83,47.83,0,0,1-18.26,5.58,31,31,0,0,1-22-5.85c-15,15.62-31.81,11.23-40.69,7.08a16.58,16.58,0,0,1-2.36,7.88c-5.11,8.6-17.28,12.59-23.31,14.09,3,15.63-7.72,27-15.57,32,.56,6.59-3.66,11.37-5.52,13.13a76.94,76.94,0,0,0-2.9,13.13c-1.73,14,1.6,26.17,9.9,36.08,20.57,24.56,66.42,30.51,91.92,31.88Z"/><path class="cls-5" d="M164.85,176.79h-.3a3.28,3.28,0,1,1,.3,0Z"/><path class="cls-5" d="M362.05,128.4H362c-1.34,0-2.6,0-3.76-.1a3.29,3.29,0,1,1,.5-6.57c.95.07,2,.1,3.14.08a3.29,3.29,0,0,1,.22,6.58Z"/><path class="cls-5" d="M298.81,79.46a8.79,8.79,0,0,1,2-1.88c.75-.52,1.56-1,2.39-1.46l2.54-1.46c.88-.49,1.77-1,2.72-1.53l.05,0a.45.45,0,0,1,.61.18.56.56,0,0,1,.05.25,11.58,11.58,0,0,1-.82,3.3,17.39,17.39,0,0,1-1.52,2.94,13.4,13.4,0,0,1-2.05,2.56,7.89,7.89,0,0,1-2.71,1.78,3,3,0,0,1-3.41-4.5Z"/><path class="cls-5" d="M256,84.25a9.35,9.35,0,0,1-2.78-2.37,15.09,15.09,0,0,1-2-3.09,20.36,20.36,0,0,1-1.34-3.4,14.31,14.31,0,0,1-.61-3.67.45.45,0,0,1,.44-.45.48.48,0,0,1,.27.09l0,0c1,.73,1.85,1.47,2.73,2.17l2.55,2.08c.83.67,1.65,1.32,2.41,2a12.25,12.25,0,0,1,2,2.32l.1.18A2.92,2.92,0,0,1,256,84.25Z"/><ellipse class="cls-41" cx="211.26" cy="187.24" rx="9.98" ry="15.16" transform="translate(13 388.2) rotate(-86.94)"/><ellipse class="cls-41" cx="334.84" cy="193.85" rx="9.98" ry="15.16" transform="translate(123.38 517.86) rotate(-86.94)"/><path class="cls-30" d="M304.56,691.65a5.85,5.85,0,1,1,8-1.93A5.73,5.73,0,0,1,304.56,691.65Zm5.15-8.38a4,4,0,1,0,1.49,5.6A4,4,0,0,0,309.71,683.27Z"/><path class="cls-30" d="M320.56,676.42l-1.11,1.8-3.35.21a5.59,5.59,0,0,1-.38.72l-.59,1,2.3,1.42L316.5,683l-9.65-5.92,1.52-2.47c1.63-2.65,4-3.22,6.21-1.85a3.91,3.91,0,0,1,2,3.91Zm-6.18,2c1.14-1.86.72-3.15-.76-4.06s-2.81-.67-3.94,1.17l-.55.9,4.7,2.88Z"/><path class="cls-30" d="M316.41,672.37a5.84,5.84,0,1,1,8-1.94A5.72,5.72,0,0,1,316.41,672.37Zm5.15-8.39a4,4,0,1,0,1.48,5.6A4,4,0,0,0,321.56,664Z"/><path class="cls-30" d="M318.53,658.08l2.1-3.42c1.19-1.93,2.83-2.15,4.21-1.31a2.32,2.32,0,0,1,1.11,2.29,2.85,2.85,0,0,1,3.58-.35c1.63,1,2.27,2.83.91,5L328.18,664Zm5.84-1c.65-1.05.38-1.7-.41-2.19s-1.42-.4-2.07.67l-1.13,1.83,2.49,1.52Zm4.71,2.54c.82-1.33.43-2.19-.56-2.8s-2-.49-2.82.83l-1.23,2,3.33,2.05Z"/><path class="cls-30" d="M323.67,649.72l.93-1.52,9.65,5.93-.93,1.51Z"/><path class="cls-30" d="M325.65,646.48l1.06-1.71,4.23-.06-1.86-3.8,1-1.61s2.64,5.38,2.64,5.39l7.4-.1-1.05,1.72-5.52.07,2.44,5-1,1.6-3.2-6.52S325.65,646.48,325.65,646.48Z"/><path class="cls-30" d="M311.38,664.55l-1.26,2.05a1.82,1.82,0,0,0,2.49-.6l1.26-2A1.82,1.82,0,0,0,311.38,664.55Z"/><path class="cls-30" d="M310.76,664.69l-1.26,2.06a1.82,1.82,0,0,0,2.49-.6l1.26-2A1.82,1.82,0,0,0,310.76,664.69Z"/><path class="cls-30" d="M310.14,664.84l-1.26,2.06a1.82,1.82,0,0,0,2.49-.6l1.26-2A1.82,1.82,0,0,0,310.14,664.84Z"/><path class="cls-42" d="M570.07,39.5h14.76v1.34H571.6V54.37h11.85V55.7H571.6v7.74h13.75v1.33H570.07Z"/><path class="cls-42" d="M595.53,52.14A12.6,12.6,0,0,1,608.47,39.2c4.42,0,7.91,1.71,10,4.8l-1.15.85a10.36,10.36,0,0,0-8.88-4.27,11.19,11.19,0,0,0-11.38,11.56A11.19,11.19,0,0,0,608.47,63.7a10.88,10.88,0,0,0,9.18-4.5l1.15.82a12.17,12.17,0,0,1-10.33,5A12.6,12.6,0,0,1,595.53,52.14Z"/><path class="cls-42" d="M630.29,39.5h1.52V63.44H644v1.33H630.29Z"/><path class="cls-42" d="M655.19,39.5h14.75v1.34H656.71V54.37h11.86V55.7H656.71v7.74h13.75v1.33H655.19Z"/><path class="cls-42" d="M680.65,52.14A12.6,12.6,0,0,1,693.58,39.2c4.42,0,7.92,1.71,10,4.8l-1.16.85a10.34,10.34,0,0,0-8.88-4.27,11.19,11.19,0,0,0-11.37,11.56A11.19,11.19,0,0,0,693.58,63.7a10.86,10.86,0,0,0,9.18-4.5l1.15.82a12.16,12.16,0,0,1-10.33,5A12.6,12.6,0,0,1,680.65,52.14Z"/><path class="cls-42" d="M720.45,40.84h-8V39.5H730v1.34h-8V64.77h-1.53Z"/><path class="cls-42" d="M741.08,39.5h1.53V64.77h-1.53Z"/><path class="cls-42" d="M754.57,52.14A12.6,12.6,0,0,1,767.51,39.2c4.42,0,7.91,1.71,10,4.8l-1.15.85a10.36,10.36,0,0,0-8.88-4.27,11.19,11.19,0,0,0-11.38,11.56A11.19,11.19,0,0,0,767.51,63.7a10.88,10.88,0,0,0,9.18-4.5l1.15.82a12.17,12.17,0,0,1-10.33,5A12.6,12.6,0,0,1,754.57,52.14Z"/><path class="cls-42" d="M801.81,60l1.3-.64a7.43,7.43,0,0,0,7.14,4.35c3.31,0,6-1.93,6-5.13,0-2.93-1.63-4.53-5.16-6.17l-2.35-1.07c-3.53-1.64-5.27-3.31-5.27-6.51,0-3.49,2.78-5.65,6.2-5.65a7.19,7.19,0,0,1,6.47,3.64l-1.19.79a5.75,5.75,0,0,0-5.28-3.09c-3,0-4.72,1.71-4.72,4.27s1.27,3.76,4.39,5.21l2.34,1.08c4.09,1.85,6.06,4,6.06,7.5,0,3.94-3.12,6.47-7.47,6.47C805.49,65.07,803,62.54,801.81,60Z"/><path class="cls-42" d="M829.73,39.5h1.52V54.37H846V39.5h1.52V64.77H846v-9H831.25v9h-1.52Z"/><path class="cls-42" d="M861,39.5h14.76v1.34H862.55V54.37H874.4V55.7H862.55v7.74H876.3v1.33H861Z"/><path class="cls-42" d="M888.19,39.5H903v1.34H889.71V54.37h11.86V55.7H889.71v7.74h13.76v1.33H888.19Z"/><path class="cls-42" d="M915.36,39.5h5.17c6.84,0,10,3.9,10,9.4,0,5.32-3.16,9.37-10,9.37h-3.65v6.5h-1.52Zm5,17.43c6.35,0,8.58-3.57,8.58-8s-2.23-8.06-8.58-8.06h-3.5V56.93Z"/><text class="cls-43" transform="translate(728.86 538.99)">DI<tspan class="cls-44" x="33.62" y="0">S</tspan><tspan x="51.79" y="0">TRIBUTED</tspan><tspan x="-70.62" y="37.62">REINFORCEMENT</tspan><tspan x="41.69" y="75.23">LEARNING</tspan></text><path class="cls-17" d="M266,279.68c-83.87-4.45-112.32-30.75-111.2-51.92.51-9.61,6.74-12.51,8-13a3.41,3.41,0,0,1,3.2.4c.09.07.34.28.72.64,7.58,7.13,37.23,30.66,100.88,34S363.21,233,371.5,226.67a9.71,9.71,0,0,1,.8-.56,3.4,3.4,0,0,1,3.22-.06c1.18.61,7.06,4.14,6.55,13.76C381,261,349.88,284.13,266,279.68ZM163.73,221.13c-1.12,1.1-2.46,3.19-2.66,7C160,248.1,192.14,270,266.31,274s108.44-14.49,109.5-34.5c.2-3.77-.91-6-1.9-7.21-10.83,7.66-44.28,26.58-106.62,23.28S173.69,229.9,163.73,221.13Z"/><ellipse class="cls-5" cx="321.01" cy="147.76" rx="13.88" ry="12" transform="translate(172.55 468.44) rotate(-89.88)"/><ellipse class="cls-5" cx="226.03" cy="136.73" rx="13.88" ry="12" transform="translate(88.81 362.45) rotate(-89.88)"/><ellipse class="cls-8" cx="231.9" cy="135.62" rx="5.3" ry="3.45" transform="translate(37 320.52) rotate(-73.81)"/><g class="cls-45"><ellipse class="cls-8" cx="220.5" cy="142.08" rx="2.58" ry="4.47" transform="translate(-39.16 104.92) rotate(-24.65)"/></g><g class="cls-45"><path class="cls-8" d="M327.47,155.68c1.24-2.14,1.24-4.45,0-5.17s-3.24.45-4.47,2.59-1.24,4.45,0,5.16S326.24,157.82,327.47,155.68Z"/></g><ellipse class="cls-8" cx="315.83" cy="146.86" rx="3.71" ry="5.7" transform="matrix(0.99, -0.13, 0.13, 0.99, -16.91, 43.91)"/><path class="cls-5" d="M206.13,122.15c1.32-5.79,8.4-8,13.67-6.85a22.36,22.36,0,0,1,3.54,1L225,117a16,16,0,0,1,1.61.79c5.89,3.16,10.86,7.87,15.29,12.72,1.78,2,4.38.56,6-1a15.84,15.84,0,0,1,2.9-1.89,5.14,5.14,0,0,1-.9,3.69c-1.6,2.15-4.61,3.74-7.35,3.07a7,7,0,0,1-3.57-2.23,86.88,86.88,0,0,0-9.94-8.73,38,38,0,0,0-6.91-4.07,16.28,16.28,0,0,0-5.93-1.32l-1.48.09-1.44.34c-2.59.88-4.25,2.39-7.12,3.67Z"/><path class="cls-5" d="M225.85,152.47l-.71,0a13,13,0,0,1-9.61-5.26,17.32,17.32,0,0,1,1.23-22,12.76,12.76,0,0,1,19.77,1.11,17.34,17.34,0,0,1-1.24,22A13.07,13.07,0,0,1,225.85,152.47Zm.36-27.75a9.42,9.42,0,0,0-6.76,3,13.58,13.58,0,0,0-1,17.16,9,9,0,0,0,14.11.79,13.06,13.06,0,0,0,3.54-8.41h0a13.07,13.07,0,0,0-2.57-8.74,9.33,9.33,0,0,0-6.87-3.81Z"/><path class="cls-5" d="M341.72,134.36c-2.4-.66-3.5-1.86-5.33-3.09-.56-.25-1.09-.56-1.65-.78l-1.39-.41-1.44-.18a16.68,16.68,0,0,0-5.92.93c-6.94,2.61-12.67,7.36-18.25,12.2a6.2,6.2,0,0,1-7.32.61c-2.28-1.35-4.27-3.56-3.59-6.4,2.87,1.25,4,4.62,7.26,4.14a4.23,4.23,0,0,0,2-1.37,70.22,70.22,0,0,1,10.71-8.79c5.54-3.55,12.62-6.5,19.15-3.81a14.74,14.74,0,0,1,2.51,1.42c1.88,1.27,3.36,3,3.24,5.53Z"/><path class="cls-5" d="M321,163.5h0c-7.64,0-13.85-7.09-13.83-15.78S313.38,132,321,132h0c7.65,0,13.85,7.09,13.83,15.78a16.73,16.73,0,0,1-4,11A13,13,0,0,1,321,163.5Zm0-27.75c-5.57,0-10.12,5.37-10.13,12h0c0,6.62,4.52,12,10.1,12h0a9.31,9.31,0,0,0,7.06-3.4,13.07,13.07,0,0,0,3.07-8.58c0-6.62-4.51-12-10.1-12Z"/><path class="cls-5" d="M275.65,185.68l-.54,10.1V196a3,3,0,0,1-1.92,2.64l-7.87,3.07a15.43,15.43,0,0,1-12.14-.6,17.91,17.91,0,0,1-2.07-1.22,25.49,25.49,0,0,1-3.5-2.91,17.45,17.45,0,0,1-4.62-7.87,1.45,1.45,0,0,1,2.75-.88v0a14.07,14.07,0,0,0,4.44,5.91,20.38,20.38,0,0,0,3.17,2.08,12.08,12.08,0,0,0,1.62.74,11.8,11.8,0,0,0,1.65.44,10.33,10.33,0,0,0,6.5-.93l7.32-3.84-1.92,2.82.54-10.1a3.3,3.3,0,0,1,6.59.35Z"/><path class="cls-5" d="M275.65,185.68l-.54,10.1-1.61-3,6.87,4.6a10.25,10.25,0,0,0,6.36,1.62,12.11,12.11,0,0,0,1.69-.26,12.84,12.84,0,0,0,1.69-.56,21.51,21.51,0,0,0,3.38-1.73,14.08,14.08,0,0,0,5-5.41h0a1.45,1.45,0,0,1,2.65,1.16,17.48,17.48,0,0,1-5.45,7.34A24.4,24.4,0,0,1,292,202a15.64,15.64,0,0,1-2.18,1,14.83,14.83,0,0,1-2.37.65,15.5,15.5,0,0,1-9.77-1.35l-7.5-3.89a3,3,0,0,1-1.62-2.83v-.18l.54-10.1a3.3,3.3,0,0,1,6.59.35Z"/><path class="cls-5" d="M272.51,188.8a3.25,3.25,0,0,1-1.8-.44l-8-4.62c-12.69-.36-13.35-7.06-13.36-8.42a5.75,5.75,0,0,1,5.6-5.84c4.29,0,8.82,5.5,11,8.49l8.15,4.68a3.3,3.3,0,0,1-1.49,6.15Z"/><path class="cls-5" d="M272.51,188.8a3.3,3.3,0,0,1-1.48-6.31l8.6-3.79c2.43-2.74,7.53-7.76,11.79-7.27a5.75,5.75,0,0,1,4.94,6.4c-.15,1.36-1.53,7.95-14.18,6.95l-8.5,3.74A3.28,3.28,0,0,1,272.51,188.8Z"/><path class="cls-46" d="M784.35,651.57h-3.52v-1.66h3.91l1.52-6.06h-3.91v-1.66h4.3l1.42-5.62h1.76l-1.42,5.62h5.42l1.42-5.62H797l-1.42,5.62h3.57v1.66h-4l-1.51,6.06h3.91v1.66h-4.35L791.93,657h-1.81l1.37-5.43h-5.43L784.74,657H783Zm7.58-1.66,1.51-6.06H788l-1.52,6.06Z"/><path class="cls-46" d="M806.43,653l1-.51a5.94,5.94,0,0,0,5.71,3.48c2.64,0,4.81-1.55,4.81-4.1,0-2.35-1.31-3.62-4.13-4.93L812,646c-2.82-1.31-4.22-2.64-4.22-5.2,0-2.79,2.23-4.51,5-4.51a5.74,5.74,0,0,1,5.17,2.91l-.95.62a4.61,4.61,0,0,0-4.22-2.46c-2.38,0-3.77,1.36-3.77,3.41s1,3,3.5,4.16l1.87.86c3.27,1.49,4.84,3.21,4.84,6,0,3.15-2.49,5.17-6,5.17A7,7,0,0,1,806.43,653Z"/><path class="cls-46" d="M826.44,635.32h1.16v11.91a4.89,4.89,0,0,1,4.6-2.85c2.7,0,4.51,1.81,4.51,4.81v7.57h-1.15v-7.37c0-2.49-1.16-3.95-3.51-3.95A4.24,4.24,0,0,0,827.6,650v6.77h-1.16Z"/><path class="cls-46" d="M849.9,656a5.21,5.21,0,0,0,4.25-1.9l.77.68a6.2,6.2,0,0,1-5,2.26,6.31,6.31,0,0,1-.24-12.62c3.68,0,6,2.88,5.94,6.56H844.76A4.87,4.87,0,0,0,849.9,656Zm4.51-6c-.18-2.5-1.72-4.6-4.75-4.6a4.82,4.82,0,0,0-4.87,4.6Z"/><path class="cls-46" d="M867.9,656a5.17,5.17,0,0,0,4.24-1.9l.77.68a6.19,6.19,0,0,1-5,2.26,6.31,6.31,0,0,1-.24-12.62c3.68,0,6,2.88,5.94,6.56H862.76A4.87,4.87,0,0,0,867.9,656Zm4.51-6c-.18-2.5-1.72-4.6-4.75-4.6a4.82,4.82,0,0,0-4.87,4.6Z"/><path class="cls-46" d="M880.55,644.64h1.15l-.05,3a5.6,5.6,0,0,1,5.19-3.23,6.32,6.32,0,0,1,0,12.62,5.75,5.75,0,0,1-5.14-3.18v9.23h-1.15Zm11.07,6c0-3-1.93-5.25-4.93-5.25a5.27,5.27,0,0,0,0,10.54C889.69,656,891.62,653.67,891.62,650.67Z"/><path class="cls-46" d="M912.68,656.76h-1.46L907,651a10.82,10.82,0,0,1-2.52.27h-2.85v5.49h-1.22V636.57h4.07c5.46,0,8,3.26,8,7.36a6.78,6.78,0,0,1-4.34,6.68Zm-8.32-6.56c5.11,0,6.92-2.94,6.92-6.27s-1.81-6.29-6.92-6.29h-2.73V650.2Z"/><path class="cls-46" d="M920.84,636.57h1.22v19.12h9.71v1.07H920.84Z"/></g></g></svg>